<svg width="134" height="40" viewBox="0 0 134 40" fill="none" xmlns="http://www.w3.org/2000/svg">
<g id="logo">
<path id="Vector" d="M0 0H3.81139V9.99204C3.81139 10.5863 3.90648 11.1489 4.08873 11.6798C4.2789 12.2028 4.54039 12.6703 4.88904 13.0586C5.23769 13.4548 5.65766 13.7638 6.14895 13.9936C6.64023 14.2234 7.1949 14.3343 7.81296 14.3343C8.43103 14.3343 8.96193 14.2234 9.45321 13.9936C9.94449 13.7638 10.3565 13.4548 10.7052 13.0586C11.0459 12.6624 11.3153 12.2028 11.4976 11.6798C11.6877 11.1568 11.7749 10.5943 11.7749 9.99204V0H14.1838V9.99204C14.1838 10.7923 14.0491 11.553 13.7797 12.2662C13.5102 12.9793 13.0824 13.6053 12.5039 14.1362C11.9255 14.6671 11.1806 15.095 10.2694 15.4041C9.35812 15.721 8.26463 15.8716 6.9968 15.8716C5.85576 15.8716 4.84942 15.7131 3.97779 15.4041C3.10616 15.0871 2.36925 14.6671 1.78288 14.1283C1.19651 13.5895 0.75277 12.9635 0.451662 12.2424C0.150554 11.5213 0 10.7607 0 9.95242V0Z" fill="#353019"/>
<path id="Vector_2" d="M31.3315 15.8794H27.5201V5.88734C27.5201 5.29305 27.425 4.73046 27.2427 4.19956C27.0526 3.67658 26.7911 3.20907 26.4424 2.8208C26.0938 2.4246 25.6738 2.11557 25.1825 1.88578C24.6912 1.65598 24.1366 1.54505 23.5185 1.54505C22.9005 1.54505 22.3695 1.65598 21.8783 1.88578C21.387 2.11557 20.9749 2.4246 20.6263 2.8208C20.2856 3.21699 20.0161 3.67658 19.8339 4.19956C19.6437 4.72253 19.5566 5.28513 19.5566 5.88734V15.8794H17.1477V5.88734C17.1477 5.08703 17.2824 4.32634 17.5518 3.61319C17.8212 2.90003 18.2491 2.27405 18.8276 1.74315C19.406 1.21224 20.1509 0.784355 21.0621 0.475323C21.9734 0.158367 23.0669 0.0078125 24.3347 0.0078125C25.4757 0.0078125 26.4821 0.166291 27.3537 0.475323C28.2253 0.792279 28.9622 1.21225 29.5486 1.75107C30.135 2.2899 30.5787 2.91588 30.8798 3.63696C31.1809 4.35803 31.3315 5.11872 31.3315 5.92696V15.8794Z" fill="#353019"/>
<g id="Group">
<path id="Vector_3" d="M4.23136 31.8857C4.23136 32.892 4.38191 33.7795 4.69095 34.5481C4.99205 35.3167 5.39617 35.9665 5.9033 36.4815C6.40251 37.0045 6.98888 37.4007 7.63864 37.6701C8.29632 37.9395 8.97778 38.0742 9.683 38.0742C10.2218 38.0742 10.729 37.9791 11.1965 37.7969C11.664 37.6067 12.0998 37.3532 12.5118 37.0362C12.916 36.7192 13.3042 36.3468 13.6608 35.9269C14.0174 35.5069 14.3581 35.0632 14.6909 34.6036L16.2757 35.7684C15.935 36.3151 15.5229 36.846 15.0396 37.3532C14.5562 37.8603 14.0094 38.3119 13.4072 38.7002C12.805 39.0885 12.1473 39.3975 11.4421 39.6352C10.7369 39.873 9.98411 39.9839 9.19172 39.9839C7.86051 39.9839 6.6323 39.7858 5.50711 39.3975C4.38191 39.0093 3.4152 38.4625 2.59904 37.7494C1.78288 37.0441 1.14896 36.1883 0.689375 35.1979C0.229789 34.2074 0 33.098 0 31.8777C0 30.6575 0.213945 29.6115 0.649759 28.621C1.08557 27.6305 1.69571 26.7748 2.48018 26.0537C3.26464 25.3326 4.21551 24.77 5.31694 24.3659C6.41836 23.9618 7.63864 23.7637 8.96985 23.7637C9.85733 23.7637 10.6735 23.8667 11.4183 24.0806C12.1553 24.2867 12.8288 24.5798 13.4389 24.9523C14.0411 25.3247 14.5879 25.7605 15.0633 26.2755C15.5388 26.7906 15.9587 27.3532 16.3232 27.9713L14.7226 29.0885C14.3977 28.621 14.0411 28.1852 13.6529 27.7732C13.2646 27.3611 12.8605 27.0045 12.4247 26.6955C11.9889 26.3865 11.5372 26.1408 11.0538 25.9665C10.5705 25.7843 10.0713 25.6971 9.55622 25.6971C8.85099 25.6971 8.16954 25.8318 7.5277 26.0933C6.88587 26.3627 6.31535 26.751 5.83199 27.274C5.34071 27.7969 4.95244 28.4388 4.66718 29.2074C4.37399 29.976 4.23136 30.8635 4.23136 31.8698V31.8857Z" fill="#353019"/>
<path id="Vector_4" d="M27.9316 39.9922C26.6796 39.9922 25.5148 39.7941 24.4372 39.39C23.3516 38.9858 22.4166 38.4232 21.6242 37.6942C20.8318 36.9652 20.2058 36.1015 19.7541 35.1031C19.3025 34.1047 19.0727 33.0033 19.0727 31.8068C19.0727 30.6103 19.3025 29.5564 19.7541 28.5818C20.2058 27.5992 20.8318 26.7593 21.6242 26.062C22.4166 25.3647 23.3516 24.8179 24.4372 24.4296C25.5227 24.0414 26.6876 23.8433 27.9316 23.8433C29.1757 23.8433 30.3484 24.0414 31.426 24.4296C32.5037 24.8258 33.4387 25.3726 34.239 26.0699C35.0314 26.7672 35.6653 27.6071 36.117 28.5818C36.5687 29.5564 36.8064 30.6182 36.8064 31.7751C36.8064 32.5992 36.7034 33.3757 36.4973 34.1047C36.2913 34.8337 35.9981 35.4993 35.6178 36.1095C35.2374 36.7196 34.7779 37.2663 34.247 37.7418C33.716 38.2251 33.1138 38.6293 32.4562 38.9621C31.7985 39.2949 31.0853 39.5564 30.3246 39.7307C29.5639 39.9129 28.7636 40.0001 27.9395 40.0001L27.9316 39.9922ZM27.9316 38.6926C28.6844 38.6926 29.35 38.5183 29.9284 38.1697C30.5069 37.821 30.9902 37.3456 31.3785 36.7354C31.7668 36.1253 32.06 35.4042 32.266 34.5564C32.4641 33.7164 32.5671 32.7973 32.5671 31.7989C32.5671 30.8004 32.4641 29.9209 32.266 29.1047C32.0679 28.2886 31.7668 27.5913 31.3785 27.0049C30.9902 26.4185 30.5069 25.9589 29.9284 25.6341C29.35 25.3092 28.6844 25.1428 27.9316 25.1428C27.1788 25.1428 26.4974 25.3092 25.9189 25.6341C25.3405 25.9589 24.8571 26.4185 24.4689 27.0049C24.0806 27.5913 23.7874 28.2965 23.5893 29.1047C23.3912 29.9209 23.2961 30.8163 23.2961 31.7989C23.2961 32.7814 23.3912 33.7164 23.5893 34.5564C23.7874 35.3963 24.0806 36.1253 24.4689 36.7354C24.8571 37.3456 25.3405 37.821 25.9189 38.1697C26.4974 38.5183 27.1709 38.6926 27.9316 38.6926Z" fill="#353019"/>
<path id="Vector_5" d="M40.2063 24.1519H43.9068L49.2634 34.7382L54.5407 24.1519H58.1619V39.651H54.3663V29.548L49.303 39.651H47.8371L42.5994 29.4371V39.651H40.1905V24.1519H40.2063Z" fill="#353019"/>
<path id="Vector_6" d="M62.0678 24.1519H65.7682L71.1248 34.7382L76.4021 24.1519H80.0233V39.651H76.2278V29.548L71.1644 39.651H69.6985L64.4608 29.4371V39.651H62.0519V24.1519H62.0678Z" fill="#353019"/>
<path id="Vector_7" d="M92.3374 39.9922C91.0855 39.9922 89.9206 39.7941 88.843 39.39C87.7574 38.9858 86.8224 38.4232 86.03 37.6942C85.2376 36.9652 84.6116 36.1015 84.16 35.1031C83.7083 34.1047 83.4785 33.0033 83.4785 31.8068C83.4785 30.6103 83.7083 29.5564 84.16 28.5818C84.6116 27.5992 85.2376 26.7593 86.03 26.062C86.8224 25.3647 87.7574 24.8179 88.843 24.4296C89.9286 24.0414 91.0934 23.8433 92.3374 23.8433C93.5815 23.8433 94.7542 24.0414 95.8319 24.4296C96.9095 24.8258 97.8445 25.3726 98.6449 26.0699C99.4372 26.7672 100.071 27.6071 100.523 28.5818C100.974 29.5564 101.212 30.6182 101.212 31.7751C101.212 32.5992 101.109 33.3757 100.903 34.1047C100.697 34.8337 100.404 35.4993 100.024 36.1095C99.6433 36.7196 99.1837 37.2663 98.6528 37.7418C98.1219 38.2251 97.5197 38.6293 96.862 38.9621C96.2043 39.2949 95.4911 39.5564 94.7304 39.7307C93.9698 39.9129 93.1694 40.0001 92.3454 40.0001L92.3374 39.9922ZM92.3374 38.6926C93.0902 38.6926 93.7558 38.5183 94.3343 38.1697C94.9127 37.821 95.3961 37.3456 95.7843 36.7354C96.1726 36.1253 96.4658 35.4042 96.6718 34.5564C96.8699 33.7164 96.9729 32.7973 96.9729 31.7989C96.9729 30.8004 96.8699 29.9209 96.6718 29.1047C96.4737 28.2886 96.1726 27.5913 95.7843 27.0049C95.3961 26.4185 94.9127 25.9589 94.3343 25.6341C93.7558 25.3092 93.0902 25.1428 92.3374 25.1428C91.5847 25.1428 90.9032 25.3092 90.3248 25.6341C89.7463 25.9589 89.263 26.4185 88.8747 27.0049C88.4864 27.5913 88.1932 28.2965 87.9951 29.1047C87.797 29.9209 87.702 30.8163 87.702 31.7989C87.702 32.7814 87.797 33.7164 87.9951 34.5564C88.1932 35.3963 88.4864 36.1253 88.8747 36.7354C89.263 37.3456 89.7463 37.821 90.3248 38.1697C90.9032 38.5183 91.5767 38.6926 92.3374 38.6926Z" fill="#353019"/>
<path id="Vector_8" d="M104.611 24.1519H107.044L115.879 34.0013V24.1519H118.256V39.8808H116.624L107.02 29.0013V39.651H104.611V24.1519Z" fill="#353019"/>
<path id="Vector_9" d="M127.654 39.8733C126.727 39.8733 125.911 39.7624 125.214 39.5484C124.516 39.3345 123.922 39.0334 123.439 38.653C122.947 38.2727 122.559 37.8131 122.274 37.2901C121.981 36.7592 121.783 36.1808 121.68 35.5469H124.318C124.413 35.9351 124.54 36.2996 124.714 36.6404C124.889 36.9732 125.111 37.2663 125.38 37.5199C125.649 37.7656 125.974 37.9636 126.339 38.1063C126.711 38.2489 127.139 38.3202 127.623 38.3202C127.939 38.3202 128.264 38.2885 128.573 38.2172C128.89 38.1459 129.176 38.035 129.421 37.8765C129.675 37.718 129.873 37.5199 130.023 37.2743C130.174 37.0286 130.253 36.7196 130.253 36.3551C130.253 35.8955 130.134 35.4914 129.897 35.1348C129.659 34.7782 129.35 34.4534 128.962 34.1602C128.573 33.867 128.13 33.5976 127.638 33.344C127.139 33.0905 126.64 32.8369 126.117 32.5833C125.602 32.3298 125.095 32.0603 124.596 31.7751C124.096 31.4898 123.661 31.1808 123.272 30.8321C122.884 30.4835 122.575 30.0952 122.337 29.6515C122.1 29.2157 121.981 28.7085 121.981 28.1459C121.981 27.5279 122.115 26.9574 122.385 26.4344C122.654 25.9114 123.043 25.4597 123.558 25.0715C124.065 24.6832 124.691 24.3821 125.436 24.1681C126.172 23.9542 127.02 23.8433 127.963 23.8433C128.74 23.8433 129.445 23.9463 130.079 24.1602C130.713 24.3742 131.268 24.6674 131.751 25.0477C132.234 25.428 132.638 25.8639 132.971 26.371C133.296 26.8781 133.55 27.4169 133.724 28.0033H131.339C131.204 27.6388 131.046 27.2902 130.855 26.9494C130.673 26.6166 130.451 26.3234 130.182 26.0699C129.913 25.8163 129.588 25.6182 129.207 25.4677C128.827 25.3171 128.375 25.2458 127.844 25.2458C127.345 25.2458 126.933 25.3092 126.592 25.4439C126.252 25.5707 125.982 25.7371 125.776 25.9431C125.57 26.1412 125.42 26.371 125.333 26.6166C125.237 26.8623 125.198 27.1079 125.198 27.3456C125.198 27.7577 125.317 28.1301 125.562 28.4629C125.808 28.7957 126.125 29.1127 126.529 29.3979C126.925 29.6911 127.385 29.9605 127.892 30.2299C128.399 30.4914 128.922 30.7608 129.453 31.0223C129.984 31.2917 130.499 31.5691 131.014 31.8622C131.521 32.1554 131.981 32.4803 132.377 32.829C132.773 33.1776 133.098 33.5659 133.344 33.9938C133.589 34.4217 133.708 34.8971 133.708 35.4359C133.708 36.0698 133.581 36.6562 133.32 37.195C133.058 37.7339 132.678 38.2093 132.163 38.6055C131.656 39.0017 131.022 39.3186 130.261 39.5484C129.5 39.7782 128.629 39.8892 127.638 39.8892L127.654 39.8733Z" fill="#353019"/>
</g>
</g>
</svg>
