<svg width="614" height="323" viewBox="0 0 614 323" fill="none" xmlns="http://www.w3.org/2000/svg">
<circle cx="65.2573" cy="257.921" r="65" fill="url(#paint0_radial_519_3866)"/>
<circle cx="311.27" cy="257.921" r="65" fill="url(#paint1_radial_519_3866)"/>
<circle cx="548.743" cy="257.921" r="65" fill="url(#paint2_radial_519_3866)"/>
<circle cx="310.458" cy="65" r="65" fill="url(#paint3_radial_519_3866)"/>
<path d="M280.199 56.1498C279.489 56.1498 278.845 56.0751 278.267 55.9258C277.697 55.7764 277.184 55.5664 276.727 55.2958C276.279 55.0158 275.868 54.6891 275.495 54.3158L276.797 52.5798C277.385 53.1678 277.973 53.5784 278.561 53.8118C279.158 54.0358 279.751 54.1478 280.339 54.1478C280.609 54.1478 280.871 54.1198 281.123 54.0638C281.384 53.9984 281.594 53.8958 281.753 53.7558C281.911 53.6158 281.991 53.4338 281.991 53.2098C281.991 53.0604 281.949 52.9344 281.865 52.8318C281.781 52.7198 281.664 52.6264 281.515 52.5518C281.365 52.4771 281.188 52.4118 280.983 52.3558C280.787 52.2998 280.577 52.2531 280.353 52.2158C280.138 52.1691 279.909 52.1271 279.667 52.0898C279.079 51.9964 278.556 51.8658 278.099 51.6978C277.651 51.5298 277.273 51.3198 276.965 51.0678C276.657 50.8158 276.419 50.5218 276.251 50.1858C276.092 49.8498 276.013 49.4671 276.013 49.0378C276.013 48.5804 276.12 48.1651 276.335 47.7918C276.559 47.4091 276.862 47.0871 277.245 46.8258C277.627 46.5551 278.071 46.3498 278.575 46.2098C279.079 46.0604 279.611 45.9858 280.171 45.9858C280.843 45.9858 281.426 46.0511 281.921 46.1818C282.425 46.3124 282.863 46.4991 283.237 46.7418C283.61 46.9751 283.923 47.2504 284.175 47.5678L282.845 49.0798C282.611 48.8464 282.35 48.6504 282.061 48.4918C281.771 48.3331 281.463 48.2118 281.137 48.1278C280.819 48.0438 280.497 48.0018 280.171 48.0018C279.844 48.0018 279.555 48.0391 279.303 48.1138C279.051 48.1791 278.85 48.2771 278.701 48.4078C278.551 48.5384 278.477 48.7018 278.477 48.8978C278.477 49.0658 278.537 49.2104 278.659 49.3318C278.78 49.4438 278.939 49.5418 279.135 49.6258C279.34 49.7098 279.569 49.7798 279.821 49.8358C280.073 49.8824 280.325 49.9244 280.577 49.9618C281.109 50.0458 281.608 50.1578 282.075 50.2978C282.541 50.4284 282.952 50.6058 283.307 50.8298C283.661 51.0444 283.937 51.3244 284.133 51.6698C284.338 52.0058 284.441 52.4258 284.441 52.9298C284.441 53.6111 284.254 54.1944 283.881 54.6798C283.517 55.1558 283.017 55.5198 282.383 55.7718C281.748 56.0238 281.02 56.1498 280.199 56.1498ZM287.896 56.0098V46.5318H290.136V56.0098H287.896ZM286.244 50.5358V48.5758H292.026V50.5358H286.244ZM298.383 56.1498C297.477 56.1498 296.684 55.9864 296.003 55.6598C295.331 55.3238 294.808 54.8711 294.435 54.3018C294.061 53.7231 293.875 53.0651 293.875 52.3278C293.875 51.7398 293.982 51.2078 294.197 50.7318C294.411 50.2558 294.71 49.8451 295.093 49.4998C295.475 49.1544 295.923 48.8884 296.437 48.7018C296.95 48.5151 297.505 48.4218 298.103 48.4218C298.681 48.4218 299.213 48.5151 299.699 48.7018C300.184 48.8791 300.604 49.1358 300.959 49.4718C301.323 49.8078 301.603 50.2044 301.799 50.6618C301.995 51.1191 302.083 51.6231 302.065 52.1738L302.051 52.8038H295.345L295.023 51.5018H300.231L299.993 51.7818V51.5018C299.965 51.2684 299.862 51.0584 299.685 50.8718C299.517 50.6851 299.297 50.5404 299.027 50.4378C298.756 50.3258 298.457 50.2698 298.131 50.2698C297.711 50.2698 297.337 50.3398 297.011 50.4798C296.684 50.6104 296.427 50.8158 296.241 51.0958C296.063 51.3758 295.975 51.7304 295.975 52.1598C295.975 52.5704 296.082 52.9298 296.297 53.2378C296.521 53.5458 296.833 53.7884 297.235 53.9658C297.645 54.1431 298.126 54.2318 298.677 54.2318C299.153 54.2318 299.549 54.1758 299.867 54.0638C300.193 53.9424 300.487 53.7931 300.749 53.6158L301.757 55.0718C301.449 55.3051 301.108 55.5058 300.735 55.6738C300.371 55.8324 299.988 55.9491 299.587 56.0238C299.195 56.1078 298.793 56.1498 298.383 56.1498ZM306.151 56.0098L303.561 48.5758H305.927L307.397 53.4758L307.103 53.4478L308.783 49.5698H310.225L312.017 53.4478L311.723 53.4758L313.193 48.5758H315.573L312.899 56.0098H311.205L309.273 51.5298L309.791 51.5158L307.831 56.0098H306.151ZM320.457 56.1358C319.72 56.1358 319.076 55.9724 318.525 55.6458C317.975 55.3191 317.541 54.8664 317.223 54.2878C316.915 53.6998 316.761 53.0324 316.761 52.2858C316.761 51.5298 316.92 50.8624 317.237 50.2838C317.555 49.7051 317.993 49.2524 318.553 48.9258C319.123 48.5898 319.776 48.4218 320.513 48.4218C320.933 48.4218 321.321 48.4778 321.675 48.5898C322.03 48.6924 322.338 48.8371 322.599 49.0238C322.87 49.2104 323.089 49.4158 323.257 49.6398C323.435 49.8638 323.551 50.0971 323.607 50.3398H323.117V48.5758H325.329V56.0098H323.075V54.1058L323.551 54.1758C323.495 54.4184 323.379 54.6564 323.201 54.8898C323.024 55.1231 322.795 55.3331 322.515 55.5198C322.235 55.7064 321.918 55.8558 321.563 55.9678C321.218 56.0798 320.849 56.1358 320.457 56.1358ZM321.059 54.2458C321.479 54.2458 321.843 54.1664 322.151 54.0078C322.469 53.8491 322.711 53.6251 322.879 53.3358C323.057 53.0371 323.145 52.6871 323.145 52.2858C323.145 51.8938 323.057 51.5531 322.879 51.2638C322.711 50.9651 322.469 50.7318 322.151 50.5638C321.843 50.3958 321.479 50.3118 321.059 50.3118C320.639 50.3118 320.275 50.3958 319.967 50.5638C319.659 50.7318 319.417 50.9651 319.239 51.2638C319.071 51.5531 318.987 51.8938 318.987 52.2858C318.987 52.6871 319.071 53.0371 319.239 53.3358C319.417 53.6251 319.659 53.8491 319.967 54.0078C320.275 54.1664 320.639 54.2458 321.059 54.2458ZM328.785 56.0098V48.5758H330.913L331.011 51.1378L330.479 50.8718C330.6 50.4144 330.81 50.0038 331.109 49.6398C331.417 49.2664 331.767 48.9724 332.159 48.7578C332.56 48.5338 332.985 48.4218 333.433 48.4218C333.676 48.4218 333.904 48.4451 334.119 48.4918C334.343 48.5384 334.534 48.5991 334.693 48.6738L334.077 51.1238C333.937 51.0211 333.746 50.9418 333.503 50.8858C333.27 50.8298 333.032 50.8018 332.789 50.8018C332.518 50.8018 332.271 50.8484 332.047 50.9418C331.832 51.0258 331.65 51.1471 331.501 51.3058C331.352 51.4551 331.235 51.6278 331.151 51.8238C331.076 52.0198 331.039 52.2298 331.039 52.4538V56.0098H328.785ZM339.72 56.1638C338.992 56.1638 338.353 56.0004 337.802 55.6738C337.252 55.3378 336.822 54.8804 336.514 54.3018C336.206 53.7138 336.052 53.0464 336.052 52.2998C336.052 51.5531 336.211 50.8904 336.528 50.3118C336.846 49.7238 337.284 49.2618 337.844 48.9258C338.414 48.5898 339.067 48.4218 339.804 48.4218C340.215 48.4218 340.598 48.4778 340.952 48.5898C341.307 48.6924 341.624 48.8324 341.904 49.0098C342.194 49.1871 342.422 49.3924 342.59 49.6258C342.768 49.8498 342.87 50.0784 342.898 50.3118L342.366 50.4378V45.6498H344.62V56.0098H342.534L342.408 54.2038L342.856 54.3158C342.828 54.5491 342.726 54.7778 342.548 55.0018C342.371 55.2164 342.138 55.4124 341.848 55.5898C341.568 55.7578 341.246 55.8978 340.882 56.0098C340.518 56.1124 340.131 56.1638 339.72 56.1638ZM340.35 54.2738C340.77 54.2738 341.134 54.1898 341.442 54.0218C341.76 53.8538 342.002 53.6251 342.17 53.3358C342.338 53.0371 342.422 52.6918 342.422 52.2998C342.422 51.8984 342.338 51.5531 342.17 51.2638C342.002 50.9651 341.76 50.7364 341.442 50.5778C341.134 50.4098 340.77 50.3258 340.35 50.3258C339.93 50.3258 339.566 50.4098 339.258 50.5778C338.95 50.7364 338.708 50.9651 338.53 51.2638C338.362 51.5531 338.278 51.8984 338.278 52.2998C338.278 52.6918 338.362 53.0371 338.53 53.3358C338.708 53.6251 338.95 53.8538 339.258 54.0218C339.566 54.1898 339.93 54.2738 340.35 54.2738ZM284.019 74.1498C283.244 74.1498 282.521 74.0284 281.849 73.7858C281.186 73.5338 280.603 73.1838 280.099 72.7358C279.604 72.2878 279.221 71.7558 278.951 71.1398C278.68 70.5144 278.545 69.8238 278.545 69.0678C278.545 68.3304 278.685 67.6538 278.965 67.0378C279.254 66.4218 279.646 65.8898 280.141 65.4418C280.635 64.9938 281.219 64.6438 281.891 64.3918C282.563 64.1398 283.286 64.0138 284.061 64.0138C284.593 64.0138 285.106 64.0791 285.601 64.2098C286.105 64.3404 286.571 64.5224 287.001 64.7558C287.43 64.9891 287.794 65.2551 288.093 65.5538L286.679 67.3178C286.455 67.1031 286.212 66.9164 285.951 66.7578C285.689 66.5898 285.395 66.4591 285.069 66.3658C284.742 66.2631 284.383 66.2118 283.991 66.2118C283.608 66.2118 283.235 66.2771 282.871 66.4078C282.507 66.5384 282.185 66.7298 281.905 66.9818C281.625 67.2244 281.401 67.5278 281.233 67.8918C281.074 68.2464 280.995 68.6478 280.995 69.0958C280.995 69.5438 281.079 69.9451 281.247 70.2998C281.415 70.6544 281.643 70.9578 281.933 71.2098C282.231 71.4524 282.577 71.6391 282.969 71.7698C283.361 71.9004 283.785 71.9658 284.243 71.9658C284.644 71.9658 285.008 71.9098 285.335 71.7978C285.661 71.6858 285.955 71.5504 286.217 71.3918C286.478 71.2238 286.711 71.0464 286.917 70.8598L288.051 72.6938C287.799 72.9364 287.463 73.1698 287.043 73.3938C286.623 73.6178 286.151 73.7998 285.629 73.9398C285.106 74.0798 284.569 74.1498 284.019 74.1498ZM294.399 74.1498C293.531 74.1498 292.761 73.9818 292.089 73.6458C291.417 73.3098 290.889 72.8524 290.507 72.2738C290.124 71.6951 289.933 71.0324 289.933 70.2858C289.933 69.5391 290.124 68.8764 290.507 68.2978C290.889 67.7191 291.417 67.2618 292.089 66.9258C292.761 66.5898 293.531 66.4218 294.399 66.4218C295.257 66.4218 296.018 66.5898 296.681 66.9258C297.353 67.2618 297.88 67.7191 298.263 68.2978C298.645 68.8764 298.837 69.5391 298.837 70.2858C298.837 71.0324 298.645 71.6951 298.263 72.2738C297.88 72.8524 297.353 73.3098 296.681 73.6458C296.018 73.9818 295.257 74.1498 294.399 74.1498ZM294.399 72.2178C294.8 72.2178 295.164 72.1338 295.491 71.9658C295.827 71.7978 296.088 71.5691 296.275 71.2798C296.471 70.9904 296.564 70.6591 296.555 70.2858C296.564 69.9124 296.471 69.5764 296.275 69.2778C296.088 68.9791 295.827 68.7504 295.491 68.5918C295.164 68.4238 294.8 68.3398 294.399 68.3398C293.988 68.3398 293.61 68.4238 293.265 68.5918C292.929 68.7598 292.667 68.9884 292.481 69.2778C292.294 69.5671 292.201 69.9031 292.201 70.2858C292.201 70.6591 292.294 70.9904 292.481 71.2798C292.667 71.5691 292.929 71.7978 293.265 71.9658C293.61 72.1338 293.988 72.2178 294.399 72.2178ZM304.384 74.1638C303.787 74.1638 303.269 74.0331 302.83 73.7718C302.401 73.5104 302.069 73.1324 301.836 72.6378C301.603 72.1338 301.486 71.5318 301.486 70.8318V66.5758H303.726V70.4678C303.726 70.8504 303.777 71.1724 303.88 71.4338C303.992 71.6951 304.165 71.8958 304.398 72.0358C304.631 72.1664 304.916 72.2318 305.252 72.2318C305.495 72.2318 305.719 72.1944 305.924 72.1198C306.129 72.0358 306.311 71.9238 306.47 71.7838C306.629 71.6344 306.75 71.4664 306.834 71.2798C306.927 71.0838 306.974 70.8644 306.974 70.6218V66.5758H309.214V74.0098H307.114L307.016 72.4838L307.422 72.3158C307.319 72.6424 307.123 72.9458 306.834 73.2258C306.545 73.5058 306.19 73.7344 305.77 73.9118C305.359 74.0798 304.897 74.1638 304.384 74.1638ZM312.7 74.0098V66.5758H314.828L314.898 68.3118L314.366 68.4658C314.487 68.1018 314.693 67.7658 314.982 67.4578C315.281 67.1498 315.64 66.9024 316.06 66.7158C316.489 66.5198 316.951 66.4218 317.446 66.4218C318.081 66.4218 318.617 66.5478 319.056 66.7998C319.495 67.0518 319.826 67.4111 320.05 67.8778C320.274 68.3351 320.386 68.8811 320.386 69.5158V74.0098H318.132V69.8378C318.132 69.5111 318.071 69.2358 317.95 69.0118C317.838 68.7878 317.665 68.6151 317.432 68.4938C317.208 68.3724 316.947 68.3118 316.648 68.3118C316.387 68.3118 316.149 68.3584 315.934 68.4518C315.729 68.5358 315.551 68.6524 315.402 68.8018C315.253 68.9418 315.136 69.1004 315.052 69.2778C314.977 69.4551 314.94 69.6371 314.94 69.8238V74.0098H313.834C313.526 74.0098 313.279 74.0098 313.092 74.0098C312.905 74.0098 312.775 74.0098 312.7 74.0098ZM327.301 74.1498C326.48 74.1498 325.752 73.9818 325.117 73.6458C324.483 73.3098 323.983 72.8524 323.619 72.2738C323.255 71.6858 323.073 71.0231 323.073 70.2858C323.073 69.5484 323.255 68.8904 323.619 68.3118C323.983 67.7238 324.478 67.2618 325.103 66.9258C325.729 66.5898 326.438 66.4218 327.231 66.4218C327.987 66.4218 328.678 66.5384 329.303 66.7718C329.929 66.9958 330.437 67.3131 330.829 67.7238L329.611 69.2638C329.443 69.1051 329.243 68.9558 329.009 68.8158C328.776 68.6758 328.524 68.5684 328.253 68.4938C327.992 68.4098 327.721 68.3678 327.441 68.3678C327.012 68.3678 326.634 68.4518 326.307 68.6198C325.99 68.7784 325.743 69.0024 325.565 69.2918C325.397 69.5811 325.313 69.9124 325.313 70.2858C325.313 70.6404 325.402 70.9624 325.579 71.2518C325.757 71.5411 326.004 71.7698 326.321 71.9378C326.639 72.1058 327.007 72.1898 327.427 72.1898C327.763 72.1898 328.062 72.1571 328.323 72.0918C328.585 72.0264 328.823 71.9378 329.037 71.8258C329.261 71.7044 329.453 71.5691 329.611 71.4198L330.829 72.9458C330.409 73.3004 329.896 73.5898 329.289 73.8138C328.683 74.0378 328.02 74.1498 327.301 74.1498ZM333.525 74.0098V66.5758H335.779V74.0098H333.525ZM334.645 65.0498C334.225 65.0498 333.898 64.9518 333.665 64.7558C333.432 64.5504 333.315 64.2611 333.315 63.8878C333.315 63.5518 333.432 63.2764 333.665 63.0618C333.908 62.8471 334.234 62.7398 334.645 62.7398C335.065 62.7398 335.392 62.8424 335.625 63.0478C335.858 63.2438 335.975 63.5238 335.975 63.8878C335.975 64.2331 335.854 64.5131 335.611 64.7278C335.378 64.9424 335.056 65.0498 334.645 65.0498ZM339.401 74.0098V63.6498H341.641V74.0098H339.401ZM294.121 94.6138C292.702 93.8951 291.633 92.9991 290.915 91.9258C290.196 90.8524 289.837 89.6764 289.837 88.3978C289.837 87.1378 290.196 85.9711 290.915 84.8978C291.643 83.8244 292.716 82.9191 294.135 82.1818L295.395 83.4558C294.284 84.0718 293.467 84.8091 292.945 85.6678C292.422 86.5171 292.161 87.4271 292.161 88.3978C292.161 89.3684 292.422 90.2831 292.945 91.1418C293.467 91.9911 294.284 92.7238 295.395 93.3398L294.121 94.6138ZM301.465 92.1498C300.756 92.1498 300.112 92.0751 299.533 91.9258C298.964 91.7764 298.451 91.5664 297.993 91.2958C297.545 91.0158 297.135 90.6891 296.761 90.3158L298.063 88.5798C298.651 89.1678 299.239 89.5784 299.827 89.8118C300.425 90.0358 301.017 90.1478 301.605 90.1478C301.876 90.1478 302.137 90.1198 302.389 90.0638C302.651 89.9984 302.861 89.8958 303.019 89.7558C303.178 89.6158 303.257 89.4338 303.257 89.2098C303.257 89.0604 303.215 88.9344 303.131 88.8318C303.047 88.7198 302.931 88.6264 302.781 88.5518C302.632 88.4771 302.455 88.4118 302.249 88.3558C302.053 88.2998 301.843 88.2531 301.619 88.2158C301.405 88.1691 301.176 88.1271 300.933 88.0898C300.345 87.9964 299.823 87.8658 299.365 87.6978C298.917 87.5298 298.539 87.3198 298.231 87.0678C297.923 86.8158 297.685 86.5218 297.517 86.1858C297.359 85.8498 297.279 85.4671 297.279 85.0378C297.279 84.5804 297.387 84.1651 297.601 83.7918C297.825 83.4091 298.129 83.0871 298.511 82.8258C298.894 82.5551 299.337 82.3498 299.841 82.2098C300.345 82.0604 300.877 81.9858 301.437 81.9858C302.109 81.9858 302.693 82.0511 303.187 82.1818C303.691 82.3124 304.13 82.4991 304.503 82.7418C304.877 82.9751 305.189 83.2504 305.441 83.5678L304.111 85.0798C303.878 84.8464 303.617 84.6504 303.327 84.4918C303.038 84.3331 302.73 84.2118 302.403 84.1278C302.086 84.0438 301.764 84.0018 301.437 84.0018C301.111 84.0018 300.821 84.0391 300.569 84.1138C300.317 84.1791 300.117 84.2771 299.967 84.4078C299.818 84.5384 299.743 84.7018 299.743 84.8978C299.743 85.0658 299.804 85.2104 299.925 85.3318C300.047 85.4438 300.205 85.5418 300.401 85.6258C300.607 85.7098 300.835 85.7798 301.087 85.8358C301.339 85.8824 301.591 85.9244 301.843 85.9618C302.375 86.0458 302.875 86.1578 303.341 86.2978C303.808 86.4284 304.219 86.6058 304.573 86.8298C304.928 87.0444 305.203 87.3244 305.399 87.6698C305.605 88.0058 305.707 88.4258 305.707 88.9298C305.707 89.6111 305.521 90.1944 305.147 90.6798C304.783 91.1558 304.284 91.5198 303.649 91.7718C303.015 92.0238 302.287 92.1498 301.465 92.1498ZM313.194 92.1498C312.42 92.1498 311.696 92.0284 311.024 91.7858C310.362 91.5338 309.778 91.1838 309.274 90.7358C308.78 90.2878 308.397 89.7558 308.126 89.1398C307.856 88.5144 307.72 87.8238 307.72 87.0678C307.72 86.3304 307.86 85.6538 308.14 85.0378C308.43 84.4218 308.822 83.8898 309.316 83.4418C309.811 82.9938 310.394 82.6438 311.066 82.3918C311.738 82.1398 312.462 82.0138 313.236 82.0138C313.768 82.0138 314.282 82.0791 314.776 82.2098C315.28 82.3404 315.747 82.5224 316.176 82.7558C316.606 82.9891 316.97 83.2551 317.268 83.5538L315.854 85.3178C315.63 85.1031 315.388 84.9164 315.126 84.7578C314.865 84.5898 314.571 84.4591 314.244 84.3658C313.918 84.2631 313.558 84.2118 313.166 84.2118C312.784 84.2118 312.41 84.2771 312.046 84.4078C311.682 84.5384 311.36 84.7298 311.08 84.9818C310.8 85.2244 310.576 85.5278 310.408 85.8918C310.25 86.2464 310.17 86.6478 310.17 87.0958C310.17 87.5438 310.254 87.9451 310.422 88.2998C310.59 88.6544 310.819 88.9578 311.108 89.2098C311.407 89.4524 311.752 89.6391 312.144 89.7698C312.536 89.9004 312.961 89.9658 313.418 89.9658C313.82 89.9658 314.184 89.9098 314.51 89.7978C314.837 89.6858 315.131 89.5504 315.392 89.3918C315.654 89.2238 315.887 89.0464 316.092 88.8598L317.226 90.6938C316.974 90.9364 316.638 91.1698 316.218 91.3938C315.798 91.6178 315.327 91.7998 314.804 91.9398C314.282 92.0798 313.745 92.1498 313.194 92.1498ZM322.79 86.6898C322.79 89.6858 321.544 91.9258 320.032 93.4238L318.702 92.8218C320.116 91.3238 321.208 89.3778 321.208 86.6898C321.208 84.0158 320.116 82.0698 318.702 80.5718L320.032 79.9698C321.544 81.4678 322.79 83.7078 322.79 86.6898Z" fill="#0A7A0A"/>
<path d="M276.651 258.061C275.83 258.061 275.083 257.935 274.411 257.683C273.748 257.431 273.165 257.077 272.661 256.619C272.166 256.153 271.784 255.611 271.513 254.995C271.242 254.379 271.107 253.707 271.107 252.979C271.107 252.251 271.242 251.579 271.513 250.963C271.784 250.347 272.166 249.811 272.661 249.353C273.165 248.887 273.748 248.527 274.411 248.275C275.083 248.023 275.825 247.897 276.637 247.897C277.44 247.897 278.177 248.023 278.849 248.275C279.521 248.527 280.104 248.887 280.599 249.353C281.094 249.811 281.476 250.347 281.747 250.963C282.018 251.579 282.153 252.251 282.153 252.979C282.153 253.698 282.018 254.37 281.747 254.995C281.476 255.611 281.094 256.153 280.599 256.619C280.104 257.077 279.521 257.431 278.849 257.683C278.177 257.935 277.444 258.061 276.651 258.061ZM276.637 255.821C277.085 255.821 277.496 255.751 277.869 255.611C278.252 255.471 278.583 255.275 278.863 255.023C279.143 254.762 279.358 254.459 279.507 254.113C279.656 253.768 279.731 253.39 279.731 252.979C279.731 252.569 279.656 252.191 279.507 251.845C279.358 251.5 279.143 251.201 278.863 250.949C278.583 250.688 278.252 250.487 277.869 250.347C277.496 250.207 277.085 250.137 276.637 250.137C276.189 250.137 275.774 250.207 275.391 250.347C275.018 250.487 274.686 250.688 274.397 250.949C274.117 251.211 273.902 251.514 273.753 251.859C273.613 252.205 273.543 252.578 273.543 252.979C273.543 253.39 273.613 253.768 273.753 254.113C273.902 254.459 274.117 254.762 274.397 255.023C274.686 255.275 275.018 255.471 275.391 255.611C275.774 255.751 276.189 255.821 276.637 255.821ZM284.987 261.001V250.487H287.115L287.199 252.153L286.779 252.027C286.844 251.729 287.022 251.453 287.311 251.201C287.6 250.949 287.964 250.744 288.403 250.585C288.851 250.427 289.327 250.347 289.831 250.347C290.559 250.347 291.198 250.515 291.749 250.851C292.3 251.178 292.729 251.631 293.037 252.209C293.354 252.779 293.513 253.441 293.513 254.197C293.513 254.944 293.354 255.607 293.037 256.185C292.729 256.764 292.295 257.221 291.735 257.557C291.175 257.884 290.531 258.047 289.803 258.047C289.299 258.047 288.828 257.963 288.389 257.795C287.95 257.627 287.582 257.408 287.283 257.137C286.994 256.867 286.807 256.582 286.723 256.283L287.241 256.087V261.001H284.987ZM289.257 256.157C289.677 256.157 290.041 256.078 290.349 255.919C290.657 255.751 290.895 255.523 291.063 255.233C291.24 254.944 291.329 254.599 291.329 254.197C291.329 253.805 291.24 253.465 291.063 253.175C290.895 252.877 290.657 252.648 290.349 252.489C290.05 252.321 289.686 252.237 289.257 252.237C288.837 252.237 288.468 252.317 288.151 252.475C287.843 252.634 287.6 252.863 287.423 253.161C287.255 253.46 287.171 253.805 287.171 254.197C287.171 254.599 287.255 254.944 287.423 255.233C287.6 255.523 287.843 255.751 288.151 255.919C288.468 256.078 288.837 256.157 289.257 256.157ZM299.962 258.061C299.056 258.061 298.263 257.898 297.582 257.571C296.91 257.235 296.387 256.783 296.014 256.213C295.64 255.635 295.454 254.977 295.454 254.239C295.454 253.651 295.561 253.119 295.776 252.643C295.99 252.167 296.289 251.757 296.672 251.411C297.054 251.066 297.502 250.8 298.016 250.613C298.529 250.427 299.084 250.333 299.682 250.333C300.26 250.333 300.792 250.427 301.278 250.613C301.763 250.791 302.183 251.047 302.538 251.383C302.902 251.719 303.182 252.116 303.378 252.573C303.574 253.031 303.662 253.535 303.644 254.085L303.63 254.715H296.924L296.602 253.413H301.81L301.572 253.693V253.413C301.544 253.18 301.441 252.97 301.264 252.783C301.096 252.597 300.876 252.452 300.606 252.349C300.335 252.237 300.036 252.181 299.71 252.181C299.29 252.181 298.916 252.251 298.59 252.391C298.263 252.522 298.006 252.727 297.82 253.007C297.642 253.287 297.554 253.642 297.554 254.071C297.554 254.482 297.661 254.841 297.876 255.149C298.1 255.457 298.412 255.7 298.814 255.877C299.224 256.055 299.705 256.143 300.256 256.143C300.732 256.143 301.128 256.087 301.446 255.975C301.772 255.854 302.066 255.705 302.328 255.527L303.336 256.983C303.028 257.217 302.687 257.417 302.314 257.585C301.95 257.744 301.567 257.861 301.166 257.935C300.774 258.019 300.372 258.061 299.962 258.061ZM306.425 257.921V250.487H308.553L308.651 253.049L308.119 252.783C308.24 252.326 308.45 251.915 308.749 251.551C309.057 251.178 309.407 250.884 309.799 250.669C310.2 250.445 310.625 250.333 311.073 250.333C311.315 250.333 311.544 250.357 311.759 250.403C311.983 250.45 312.174 250.511 312.333 250.585L311.717 253.035C311.577 252.933 311.385 252.853 311.143 252.797C310.909 252.741 310.671 252.713 310.429 252.713C310.158 252.713 309.911 252.76 309.687 252.853C309.472 252.937 309.29 253.059 309.141 253.217C308.991 253.367 308.875 253.539 308.791 253.735C308.716 253.931 308.679 254.141 308.679 254.365V257.921H306.425ZM317.388 258.047C316.651 258.047 316.007 257.884 315.456 257.557C314.905 257.231 314.471 256.778 314.154 256.199C313.846 255.611 313.692 254.944 313.692 254.197C313.692 253.441 313.851 252.774 314.168 252.195C314.485 251.617 314.924 251.164 315.484 250.837C316.053 250.501 316.707 250.333 317.444 250.333C317.864 250.333 318.251 250.389 318.606 250.501C318.961 250.604 319.269 250.749 319.53 250.935C319.801 251.122 320.02 251.327 320.188 251.551C320.365 251.775 320.482 252.009 320.538 252.251H320.048V250.487H322.26V257.921H320.006V256.017L320.482 256.087C320.426 256.33 320.309 256.568 320.132 256.801C319.955 257.035 319.726 257.245 319.446 257.431C319.166 257.618 318.849 257.767 318.494 257.879C318.149 257.991 317.78 258.047 317.388 258.047ZM317.99 256.157C318.41 256.157 318.774 256.078 319.082 255.919C319.399 255.761 319.642 255.537 319.81 255.247C319.987 254.949 320.076 254.599 320.076 254.197C320.076 253.805 319.987 253.465 319.81 253.175C319.642 252.877 319.399 252.643 319.082 252.475C318.774 252.307 318.41 252.223 317.99 252.223C317.57 252.223 317.206 252.307 316.898 252.475C316.59 252.643 316.347 252.877 316.17 253.175C316.002 253.465 315.918 253.805 315.918 254.197C315.918 254.599 316.002 254.949 316.17 255.247C316.347 255.537 316.59 255.761 316.898 255.919C317.206 256.078 317.57 256.157 317.99 256.157ZM326.444 257.921V248.443H328.684V257.921H326.444ZM324.792 252.447V250.487H330.574V252.447H324.792ZM336.987 258.061C336.119 258.061 335.349 257.893 334.677 257.557C334.005 257.221 333.477 256.764 333.095 256.185C332.712 255.607 332.521 254.944 332.521 254.197C332.521 253.451 332.712 252.788 333.095 252.209C333.477 251.631 334.005 251.173 334.677 250.837C335.349 250.501 336.119 250.333 336.987 250.333C337.845 250.333 338.606 250.501 339.269 250.837C339.941 251.173 340.468 251.631 340.851 252.209C341.233 252.788 341.425 253.451 341.425 254.197C341.425 254.944 341.233 255.607 340.851 256.185C340.468 256.764 339.941 257.221 339.269 257.557C338.606 257.893 337.845 258.061 336.987 258.061ZM336.987 256.129C337.388 256.129 337.752 256.045 338.079 255.877C338.415 255.709 338.676 255.481 338.863 255.191C339.059 254.902 339.152 254.571 339.143 254.197C339.152 253.824 339.059 253.488 338.863 253.189C338.676 252.891 338.415 252.662 338.079 252.503C337.752 252.335 337.388 252.251 336.987 252.251C336.576 252.251 336.198 252.335 335.853 252.503C335.517 252.671 335.255 252.9 335.069 253.189C334.882 253.479 334.789 253.815 334.789 254.197C334.789 254.571 334.882 254.902 335.069 255.191C335.255 255.481 335.517 255.709 335.853 255.877C336.198 256.045 336.576 256.129 336.987 256.129ZM344.2 257.921V250.487H346.328L346.426 253.049L345.894 252.783C346.015 252.326 346.225 251.915 346.524 251.551C346.832 251.178 347.182 250.884 347.574 250.669C347.975 250.445 348.4 250.333 348.848 250.333C349.091 250.333 349.319 250.357 349.534 250.403C349.758 250.45 349.949 250.511 350.108 250.585L349.492 253.035C349.352 252.933 349.161 252.853 348.918 252.797C348.685 252.741 348.447 252.713 348.204 252.713C347.933 252.713 347.686 252.76 347.462 252.853C347.247 252.937 347.065 253.059 346.916 253.217C346.767 253.367 346.65 253.539 346.566 253.735C346.491 253.931 346.454 254.141 346.454 254.365V257.921H344.2ZM296.629 278.525C295.211 277.807 294.142 276.911 293.423 275.837C292.705 274.764 292.345 273.588 292.345 272.309C292.345 271.049 292.705 269.883 293.423 268.809C294.151 267.736 295.225 266.831 296.643 266.093L297.903 267.367C296.793 267.983 295.976 268.721 295.453 269.579C294.931 270.429 294.669 271.339 294.669 272.309C294.669 273.28 294.931 274.195 295.453 275.053C295.976 275.903 296.793 276.635 297.903 277.251L296.629 278.525ZM304.726 276.061C303.905 276.061 303.158 275.935 302.486 275.683C301.824 275.431 301.24 275.077 300.736 274.619C300.242 274.153 299.859 273.611 299.588 272.995C299.318 272.379 299.182 271.707 299.182 270.979C299.182 270.251 299.318 269.579 299.588 268.963C299.859 268.347 300.242 267.811 300.736 267.353C301.24 266.887 301.824 266.527 302.486 266.275C303.158 266.023 303.9 265.897 304.712 265.897C305.515 265.897 306.252 266.023 306.924 266.275C307.596 266.527 308.18 266.887 308.674 267.353C309.169 267.811 309.552 268.347 309.822 268.963C310.093 269.579 310.228 270.251 310.228 270.979C310.228 271.698 310.093 272.37 309.822 272.995C309.552 273.611 309.169 274.153 308.674 274.619C308.18 275.077 307.596 275.431 306.924 275.683C306.252 275.935 305.52 276.061 304.726 276.061ZM304.712 273.821C305.16 273.821 305.571 273.751 305.944 273.611C306.327 273.471 306.658 273.275 306.938 273.023C307.218 272.762 307.433 272.459 307.582 272.113C307.732 271.768 307.806 271.39 307.806 270.979C307.806 270.569 307.732 270.191 307.582 269.845C307.433 269.5 307.218 269.201 306.938 268.949C306.658 268.688 306.327 268.487 305.944 268.347C305.571 268.207 305.16 268.137 304.712 268.137C304.264 268.137 303.849 268.207 303.466 268.347C303.093 268.487 302.762 268.688 302.472 268.949C302.192 269.211 301.978 269.514 301.828 269.859C301.688 270.205 301.618 270.578 301.618 270.979C301.618 271.39 301.688 271.768 301.828 272.113C301.978 272.459 302.192 272.762 302.472 273.023C302.762 273.275 303.093 273.471 303.466 273.611C303.849 273.751 304.264 273.821 304.712 273.821ZM313.006 275.921V266.121H317.92C318.555 266.121 319.12 266.261 319.614 266.541C320.118 266.821 320.52 267.204 320.818 267.689C321.117 268.175 321.266 268.721 321.266 269.327C321.266 269.971 321.112 270.55 320.804 271.063C320.496 271.567 320.081 271.969 319.558 272.267C319.045 272.557 318.462 272.701 317.808 272.701H315.386V275.921H313.006ZM315.344 270.615H317.43C317.673 270.615 317.897 270.564 318.102 270.461C318.317 270.349 318.485 270.2 318.606 270.013C318.737 269.827 318.802 269.612 318.802 269.369C318.802 269.127 318.737 268.921 318.606 268.753C318.485 268.585 318.317 268.455 318.102 268.361C317.897 268.268 317.673 268.221 317.43 268.221H315.344V270.615ZM324.277 278.525L323.017 277.251C324.128 276.635 324.94 275.903 325.453 275.053C325.976 274.195 326.237 273.28 326.237 272.309C326.237 271.339 325.976 270.429 325.453 269.579C324.94 268.721 324.128 267.983 323.017 267.367L324.291 266.093C325.71 266.812 326.778 267.708 327.497 268.781C328.216 269.855 328.575 271.031 328.575 272.309C328.575 273.579 328.211 274.755 327.483 275.837C326.764 276.911 325.696 277.807 324.277 278.525Z" fill="#394062"/>
<path d="M504.161 242.921L501.473 234.521H503.573L504.893 238.805C504.949 238.997 505.001 239.197 505.049 239.405C505.105 239.605 505.153 239.813 505.193 240.029C505.241 240.237 505.281 240.433 505.313 240.617C505.345 240.801 505.369 240.953 505.385 241.073H505.049C505.097 240.809 505.149 240.553 505.205 240.305C505.261 240.057 505.321 239.809 505.385 239.561C505.457 239.313 505.537 239.065 505.625 238.817L506.897 235.613H508.553L509.801 238.805C509.905 239.077 509.997 239.345 510.077 239.609C510.165 239.873 510.237 240.125 510.293 240.365C510.349 240.597 510.385 240.817 510.401 241.025L510.101 241.061C510.117 240.925 510.133 240.789 510.149 240.653C510.165 240.509 510.185 240.361 510.209 240.209C510.233 240.057 510.261 239.905 510.293 239.753C510.325 239.601 510.361 239.445 510.401 239.285C510.449 239.117 510.497 238.949 510.545 238.781L511.949 234.521H513.977L511.145 242.921H509.585L507.509 237.929L507.785 237.953L505.817 242.921H504.161ZM518.766 243.041C518.022 243.041 517.362 242.897 516.786 242.609C516.21 242.321 515.758 241.929 515.43 241.433C515.102 240.937 514.938 240.369 514.938 239.729C514.938 239.089 515.102 238.521 515.43 238.025C515.758 237.529 516.21 237.137 516.786 236.849C517.362 236.561 518.022 236.417 518.766 236.417C519.502 236.417 520.154 236.561 520.722 236.849C521.298 237.137 521.75 237.529 522.078 238.025C522.406 238.521 522.57 239.089 522.57 239.729C522.57 240.369 522.406 240.937 522.078 241.433C521.75 241.929 521.298 242.321 520.722 242.609C520.154 242.897 519.502 243.041 518.766 243.041ZM518.766 241.385C519.11 241.385 519.422 241.313 519.702 241.169C519.99 241.025 520.214 240.829 520.374 240.581C520.542 240.333 520.622 240.049 520.614 239.729C520.622 239.409 520.542 239.121 520.374 238.865C520.214 238.609 519.99 238.413 519.702 238.277C519.422 238.133 519.11 238.061 518.766 238.061C518.414 238.061 518.09 238.133 517.794 238.277C517.506 238.421 517.282 238.617 517.122 238.865C516.962 239.113 516.882 239.401 516.882 239.729C516.882 240.049 516.962 240.333 517.122 240.581C517.282 240.829 517.506 241.025 517.794 241.169C518.09 241.313 518.414 241.385 518.766 241.385ZM524.949 242.921V236.549H526.773L526.857 238.745L526.401 238.517C526.505 238.125 526.685 237.773 526.941 237.461C527.205 237.141 527.505 236.889 527.841 236.705C528.185 236.513 528.549 236.417 528.933 236.417C529.141 236.417 529.337 236.437 529.521 236.477C529.713 236.517 529.877 236.569 530.013 236.633L529.485 238.733C529.365 238.645 529.201 238.577 528.993 238.529C528.793 238.481 528.589 238.457 528.381 238.457C528.149 238.457 527.937 238.497 527.745 238.577C527.561 238.649 527.405 238.753 527.277 238.889C527.149 239.017 527.049 239.165 526.977 239.333C526.913 239.501 526.881 239.681 526.881 239.873V242.921H524.949ZM533.931 241.193L533.307 239.753L536.847 236.549H539.403L533.931 241.193ZM532.167 242.921V234.041H534.039V242.921H532.167ZM537.063 242.921L534.459 239.729L535.791 238.673L539.331 242.921H537.063ZM544.604 243.041C543.996 243.041 543.444 242.977 542.948 242.849C542.46 242.721 542.02 242.541 541.628 242.309C541.244 242.069 540.892 241.789 540.572 241.469L541.688 239.981C542.192 240.485 542.696 240.837 543.2 241.037C543.712 241.229 544.22 241.325 544.724 241.325C544.956 241.325 545.18 241.301 545.396 241.253C545.62 241.197 545.8 241.109 545.936 240.989C546.072 240.869 546.14 240.713 546.14 240.521C546.14 240.393 546.104 240.285 546.032 240.197C545.96 240.101 545.86 240.021 545.732 239.957C545.604 239.893 545.452 239.837 545.276 239.789C545.108 239.741 544.928 239.701 544.736 239.669C544.552 239.629 544.356 239.593 544.148 239.561C543.644 239.481 543.196 239.369 542.804 239.225C542.42 239.081 542.096 238.901 541.832 238.685C541.568 238.469 541.364 238.217 541.22 237.929C541.084 237.641 541.016 237.313 541.016 236.945C541.016 236.553 541.108 236.197 541.292 235.877C541.484 235.549 541.744 235.273 542.072 235.049C542.4 234.817 542.78 234.641 543.212 234.521C543.644 234.393 544.1 234.329 544.58 234.329C545.156 234.329 545.656 234.385 546.08 234.497C546.512 234.609 546.888 234.769 547.208 234.977C547.528 235.177 547.796 235.413 548.012 235.685L546.872 236.981C546.672 236.781 546.448 236.613 546.2 236.477C545.952 236.341 545.688 236.237 545.408 236.165C545.136 236.093 544.86 236.057 544.58 236.057C544.3 236.057 544.052 236.089 543.836 236.153C543.62 236.209 543.448 236.293 543.32 236.405C543.192 236.517 543.128 236.657 543.128 236.825C543.128 236.969 543.18 237.093 543.284 237.197C543.388 237.293 543.524 237.377 543.692 237.449C543.868 237.521 544.064 237.581 544.28 237.629C544.496 237.669 544.712 237.705 544.928 237.737C545.384 237.809 545.812 237.905 546.212 238.025C546.612 238.137 546.964 238.289 547.268 238.481C547.572 238.665 547.808 238.905 547.976 239.201C548.152 239.489 548.24 239.849 548.24 240.281C548.24 240.865 548.08 241.365 547.76 241.781C547.448 242.189 547.02 242.501 546.476 242.717C545.932 242.933 545.308 243.041 544.604 243.041ZM551.201 242.921V234.797H553.121V242.921H551.201ZM549.785 238.229V236.549H554.741V238.229H549.785ZM557.105 242.921V236.549H558.929L559.013 238.745L558.557 238.517C558.661 238.125 558.841 237.773 559.097 237.461C559.361 237.141 559.661 236.889 559.997 236.705C560.341 236.513 560.705 236.417 561.089 236.417C561.297 236.417 561.493 236.437 561.677 236.477C561.869 236.517 562.033 236.569 562.169 236.633L561.641 238.733C561.521 238.645 561.357 238.577 561.149 238.529C560.949 238.481 560.745 238.457 560.537 238.457C560.305 238.457 560.093 238.497 559.901 238.577C559.717 238.649 559.561 238.753 559.433 238.889C559.305 239.017 559.205 239.165 559.133 239.333C559.069 239.501 559.037 239.681 559.037 239.873V242.921H557.105ZM567.198 243.041C566.422 243.041 565.742 242.901 565.158 242.621C564.582 242.333 564.134 241.945 563.814 241.457C563.494 240.961 563.334 240.397 563.334 239.765C563.334 239.261 563.426 238.805 563.61 238.397C563.794 237.989 564.05 237.637 564.378 237.341C564.706 237.045 565.09 236.817 565.53 236.657C565.97 236.497 566.446 236.417 566.958 236.417C567.454 236.417 567.91 236.497 568.326 236.657C568.742 236.809 569.102 237.029 569.406 237.317C569.718 237.605 569.958 237.945 570.126 238.337C570.294 238.729 570.37 239.161 570.354 239.633L570.342 240.173H564.594L564.318 239.057H568.782L568.578 239.297V239.057C568.554 238.857 568.466 238.677 568.314 238.517C568.17 238.357 567.982 238.233 567.75 238.145C567.518 238.049 567.262 238.001 566.982 238.001C566.622 238.001 566.302 238.061 566.022 238.181C565.742 238.293 565.522 238.469 565.362 238.709C565.21 238.949 565.134 239.253 565.134 239.621C565.134 239.973 565.226 240.281 565.41 240.545C565.602 240.809 565.87 241.017 566.214 241.169C566.566 241.321 566.978 241.397 567.45 241.397C567.858 241.397 568.198 241.349 568.47 241.253C568.75 241.149 569.002 241.021 569.226 240.869L570.09 242.117C569.826 242.317 569.534 242.489 569.214 242.633C568.902 242.769 568.574 242.869 568.23 242.933C567.894 243.005 567.55 243.041 567.198 243.041ZM575.186 243.029C574.554 243.029 574.002 242.889 573.53 242.609C573.058 242.329 572.686 241.941 572.414 241.445C572.15 240.941 572.018 240.369 572.018 239.729C572.018 239.081 572.154 238.509 572.426 238.013C572.698 237.517 573.074 237.129 573.554 236.849C574.042 236.561 574.602 236.417 575.234 236.417C575.594 236.417 575.926 236.465 576.23 236.561C576.534 236.649 576.798 236.773 577.022 236.933C577.254 237.093 577.442 237.269 577.586 237.461C577.738 237.653 577.838 237.853 577.886 238.061H577.466V236.549H579.362V242.921H577.43V241.289L577.838 241.349C577.79 241.557 577.69 241.761 577.538 241.961C577.386 242.161 577.19 242.341 576.95 242.501C576.71 242.661 576.438 242.789 576.134 242.885C575.838 242.981 575.522 243.029 575.186 243.029ZM575.702 241.409C576.062 241.409 576.374 241.341 576.638 241.205C576.91 241.069 577.118 240.877 577.262 240.629C577.414 240.373 577.49 240.073 577.49 239.729C577.49 239.393 577.414 239.101 577.262 238.853C577.118 238.597 576.91 238.397 576.638 238.253C576.374 238.109 576.062 238.037 575.702 238.037C575.342 238.037 575.03 238.109 574.766 238.253C574.502 238.397 574.294 238.597 574.142 238.853C573.998 239.101 573.926 239.393 573.926 239.729C573.926 240.073 573.998 240.373 574.142 240.629C574.294 240.877 574.502 241.069 574.766 241.205C575.03 241.341 575.342 241.409 575.702 241.409ZM582.276 242.921V236.549H584.1L584.16 237.893L583.812 237.809C583.916 237.617 584.052 237.437 584.22 237.269C584.396 237.101 584.592 236.957 584.808 236.837C585.032 236.709 585.272 236.609 585.528 236.537C585.784 236.465 586.06 236.429 586.356 236.429C586.7 236.429 587.016 236.481 587.304 236.585C587.6 236.689 587.852 236.861 588.06 237.101C588.268 237.333 588.428 237.645 588.54 238.037L588.144 237.989L588.24 237.797C588.368 237.613 588.52 237.441 588.696 237.281C588.88 237.113 589.088 236.969 589.32 236.849C589.552 236.721 589.8 236.621 590.064 236.549C590.328 236.469 590.6 236.429 590.88 236.429C591.464 236.429 591.94 236.541 592.308 236.765C592.676 236.981 592.948 237.289 593.124 237.689C593.3 238.089 593.388 238.553 593.388 239.081V242.921H591.456V239.285C591.456 239.029 591.416 238.809 591.336 238.625C591.256 238.441 591.132 238.301 590.964 238.205C590.804 238.101 590.596 238.049 590.34 238.049C590.116 238.049 589.908 238.085 589.716 238.157C589.532 238.229 589.368 238.329 589.224 238.457C589.088 238.577 588.98 238.721 588.9 238.889C588.828 239.049 588.792 239.225 588.792 239.417V242.921H586.86V239.273C586.86 239.025 586.816 238.809 586.728 238.625C586.64 238.441 586.504 238.301 586.32 238.205C586.136 238.101 585.908 238.049 585.636 238.049C585.42 238.049 585.224 238.089 585.048 238.169C584.88 238.241 584.732 238.341 584.604 238.469C584.476 238.589 584.376 238.721 584.304 238.865C584.24 239.009 584.208 239.157 584.208 239.309V242.921H582.276ZM534.67 260.153C533.454 259.537 532.538 258.769 531.922 257.849C531.306 256.929 530.998 255.921 530.998 254.825C530.998 253.745 531.306 252.745 531.922 251.825C532.546 250.905 533.466 250.129 534.682 249.497L535.762 250.589C534.81 251.117 534.11 251.749 533.662 252.485C533.214 253.213 532.99 253.993 532.99 254.825C532.99 255.657 533.214 256.441 533.662 257.177C534.11 257.905 534.81 258.533 535.762 259.061L534.67 260.153ZM539.381 257.921L536.693 249.521H538.793L540.113 253.805C540.169 253.997 540.221 254.197 540.269 254.405C540.325 254.605 540.373 254.813 540.413 255.029C540.461 255.237 540.501 255.433 540.533 255.617C540.565 255.801 540.589 255.953 540.605 256.073H540.269C540.317 255.809 540.369 255.553 540.425 255.305C540.481 255.057 540.541 254.809 540.605 254.561C540.677 254.313 540.757 254.065 540.845 253.817L542.117 250.613H543.773L545.021 253.805C545.125 254.077 545.217 254.345 545.297 254.609C545.385 254.873 545.457 255.125 545.513 255.365C545.569 255.597 545.605 255.817 545.621 256.025L545.321 256.061C545.337 255.925 545.353 255.789 545.369 255.653C545.385 255.509 545.405 255.361 545.429 255.209C545.453 255.057 545.481 254.905 545.513 254.753C545.545 254.601 545.581 254.445 545.621 254.285C545.669 254.117 545.717 253.949 545.765 253.781L547.169 249.521H549.197L546.365 257.921H544.805L542.729 252.929L543.005 252.953L541.037 257.921H539.381ZM554.114 258.041C553.506 258.041 552.954 257.977 552.458 257.849C551.97 257.721 551.53 257.541 551.138 257.309C550.754 257.069 550.402 256.789 550.082 256.469L551.198 254.981C551.702 255.485 552.206 255.837 552.71 256.037C553.222 256.229 553.73 256.325 554.234 256.325C554.466 256.325 554.69 256.301 554.906 256.253C555.13 256.197 555.31 256.109 555.446 255.989C555.582 255.869 555.65 255.713 555.65 255.521C555.65 255.393 555.614 255.285 555.542 255.197C555.47 255.101 555.37 255.021 555.242 254.957C555.114 254.893 554.962 254.837 554.786 254.789C554.618 254.741 554.438 254.701 554.246 254.669C554.062 254.629 553.866 254.593 553.658 254.561C553.154 254.481 552.706 254.369 552.314 254.225C551.93 254.081 551.606 253.901 551.342 253.685C551.078 253.469 550.874 253.217 550.73 252.929C550.594 252.641 550.526 252.313 550.526 251.945C550.526 251.553 550.618 251.197 550.802 250.877C550.994 250.549 551.254 250.273 551.582 250.049C551.91 249.817 552.29 249.641 552.722 249.521C553.154 249.393 553.61 249.329 554.09 249.329C554.666 249.329 555.166 249.385 555.59 249.497C556.022 249.609 556.398 249.769 556.718 249.977C557.038 250.177 557.306 250.413 557.522 250.685L556.382 251.981C556.182 251.781 555.958 251.613 555.71 251.477C555.462 251.341 555.198 251.237 554.918 251.165C554.646 251.093 554.37 251.057 554.09 251.057C553.81 251.057 553.562 251.089 553.346 251.153C553.13 251.209 552.958 251.293 552.83 251.405C552.702 251.517 552.638 251.657 552.638 251.825C552.638 251.969 552.69 252.093 552.794 252.197C552.898 252.293 553.034 252.377 553.202 252.449C553.378 252.521 553.574 252.581 553.79 252.629C554.006 252.669 554.222 252.705 554.438 252.737C554.894 252.809 555.322 252.905 555.722 253.025C556.122 253.137 556.474 253.289 556.778 253.481C557.082 253.665 557.318 253.905 557.486 254.201C557.662 254.489 557.75 254.849 557.75 255.281C557.75 255.865 557.59 256.365 557.27 256.781C556.958 257.189 556.53 257.501 555.986 257.717C555.442 257.933 554.818 258.041 554.114 258.041ZM562.607 253.361C562.607 255.929 561.539 257.849 560.243 259.133L559.103 258.617C560.315 257.333 561.251 255.665 561.251 253.361C561.251 251.069 560.315 249.401 559.103 248.117L560.243 247.601C561.539 248.885 562.607 250.805 562.607 253.361ZM507.938 272.921V264.521H512.15C512.694 264.521 513.178 264.641 513.602 264.881C514.034 265.121 514.378 265.449 514.634 265.865C514.89 266.281 515.018 266.749 515.018 267.269C515.018 267.821 514.886 268.317 514.622 268.757C514.358 269.189 514.002 269.533 513.554 269.789C513.114 270.037 512.614 270.161 512.054 270.161H509.978V272.921H507.938ZM509.942 268.373H511.73C511.938 268.373 512.13 268.329 512.306 268.241C512.49 268.145 512.634 268.017 512.738 267.857C512.85 267.697 512.906 267.513 512.906 267.305C512.906 267.097 512.85 266.921 512.738 266.777C512.634 266.633 512.49 266.521 512.306 266.441C512.13 266.361 511.938 266.321 511.73 266.321H509.942V268.373ZM517.466 272.921V264.041H519.386V272.921H517.466ZM524.754 273.029C524.122 273.029 523.57 272.889 523.098 272.609C522.626 272.329 522.254 271.941 521.982 271.445C521.718 270.941 521.586 270.369 521.586 269.729C521.586 269.081 521.722 268.509 521.994 268.013C522.266 267.517 522.642 267.129 523.122 266.849C523.61 266.561 524.17 266.417 524.802 266.417C525.162 266.417 525.494 266.465 525.798 266.561C526.102 266.649 526.366 266.773 526.59 266.933C526.822 267.093 527.01 267.269 527.154 267.461C527.306 267.653 527.406 267.853 527.454 268.061H527.034V266.549H528.93V272.921H526.998V271.289L527.406 271.349C527.358 271.557 527.258 271.761 527.106 271.961C526.954 272.161 526.758 272.341 526.518 272.501C526.278 272.661 526.006 272.789 525.702 272.885C525.406 272.981 525.09 273.029 524.754 273.029ZM525.27 271.409C525.63 271.409 525.942 271.341 526.206 271.205C526.478 271.069 526.686 270.877 526.83 270.629C526.982 270.373 527.058 270.073 527.058 269.729C527.058 269.393 526.982 269.101 526.83 268.853C526.686 268.597 526.478 268.397 526.206 268.253C525.942 268.109 525.63 268.037 525.27 268.037C524.91 268.037 524.598 268.109 524.334 268.253C524.07 268.397 523.862 268.597 523.71 268.853C523.566 269.101 523.494 269.393 523.494 269.729C523.494 270.073 523.566 270.373 523.71 270.629C523.862 270.877 524.07 271.069 524.334 271.205C524.598 271.341 524.91 271.409 525.27 271.409ZM532.531 275.681L534.199 272.261L534.163 273.233L530.779 266.549H532.975L534.523 269.861C534.635 270.085 534.739 270.313 534.835 270.545C534.931 270.769 535.007 270.993 535.063 271.217L534.703 271.313C534.775 271.137 534.859 270.929 534.955 270.689C535.051 270.449 535.151 270.205 535.255 269.957L536.683 266.549H538.879L535.759 272.945L534.475 275.681H532.531ZM544.059 273.041C543.451 273.041 542.899 272.977 542.403 272.849C541.915 272.721 541.475 272.541 541.083 272.309C540.699 272.069 540.347 271.789 540.027 271.469L541.143 269.981C541.647 270.485 542.151 270.837 542.655 271.037C543.167 271.229 543.675 271.325 544.179 271.325C544.411 271.325 544.635 271.301 544.851 271.253C545.075 271.197 545.255 271.109 545.391 270.989C545.527 270.869 545.595 270.713 545.595 270.521C545.595 270.393 545.559 270.285 545.487 270.197C545.415 270.101 545.315 270.021 545.187 269.957C545.059 269.893 544.907 269.837 544.731 269.789C544.563 269.741 544.383 269.701 544.191 269.669C544.007 269.629 543.811 269.593 543.603 269.561C543.099 269.481 542.651 269.369 542.259 269.225C541.875 269.081 541.551 268.901 541.287 268.685C541.023 268.469 540.819 268.217 540.675 267.929C540.539 267.641 540.471 267.313 540.471 266.945C540.471 266.553 540.563 266.197 540.747 265.877C540.939 265.549 541.199 265.273 541.527 265.049C541.855 264.817 542.235 264.641 542.667 264.521C543.099 264.393 543.555 264.329 544.035 264.329C544.611 264.329 545.111 264.385 545.535 264.497C545.967 264.609 546.343 264.769 546.663 264.977C546.983 265.177 547.251 265.413 547.467 265.685L546.327 266.981C546.127 266.781 545.903 266.613 545.655 266.477C545.407 266.341 545.143 266.237 544.863 266.165C544.591 266.093 544.315 266.057 544.035 266.057C543.755 266.057 543.507 266.089 543.291 266.153C543.075 266.209 542.903 266.293 542.775 266.405C542.647 266.517 542.583 266.657 542.583 266.825C542.583 266.969 542.635 267.093 542.739 267.197C542.843 267.293 542.979 267.377 543.147 267.449C543.323 267.521 543.519 267.581 543.735 267.629C543.951 267.669 544.167 267.705 544.383 267.737C544.839 267.809 545.267 267.905 545.667 268.025C546.067 268.137 546.419 268.289 546.723 268.481C547.027 268.665 547.263 268.905 547.431 269.201C547.607 269.489 547.695 269.849 547.695 270.281C547.695 270.865 547.535 271.365 547.215 271.781C546.903 272.189 546.475 272.501 545.931 272.717C545.387 272.933 544.763 273.041 544.059 273.041ZM550.657 272.921V264.797H552.577V272.921H550.657ZM549.241 268.229V266.549H554.197V268.229H549.241ZM556.56 272.921V266.549H558.384L558.468 268.745L558.012 268.517C558.116 268.125 558.296 267.773 558.552 267.461C558.816 267.141 559.116 266.889 559.452 266.705C559.796 266.513 560.16 266.417 560.544 266.417C560.752 266.417 560.948 266.437 561.132 266.477C561.324 266.517 561.488 266.569 561.624 266.633L561.096 268.733C560.976 268.645 560.812 268.577 560.604 268.529C560.404 268.481 560.2 268.457 559.992 268.457C559.76 268.457 559.548 268.497 559.356 268.577C559.172 268.649 559.016 268.753 558.888 268.889C558.76 269.017 558.66 269.165 558.588 269.333C558.524 269.501 558.492 269.681 558.492 269.873V272.921H556.56ZM566.653 273.041C565.877 273.041 565.197 272.901 564.613 272.621C564.037 272.333 563.589 271.945 563.269 271.457C562.949 270.961 562.789 270.397 562.789 269.765C562.789 269.261 562.881 268.805 563.065 268.397C563.249 267.989 563.505 267.637 563.833 267.341C564.161 267.045 564.545 266.817 564.985 266.657C565.425 266.497 565.901 266.417 566.413 266.417C566.909 266.417 567.365 266.497 567.781 266.657C568.197 266.809 568.557 267.029 568.861 267.317C569.173 267.605 569.413 267.945 569.581 268.337C569.749 268.729 569.825 269.161 569.809 269.633L569.797 270.173H564.049L563.773 269.057H568.237L568.033 269.297V269.057C568.009 268.857 567.921 268.677 567.769 268.517C567.625 268.357 567.437 268.233 567.205 268.145C566.973 268.049 566.717 268.001 566.437 268.001C566.077 268.001 565.757 268.061 565.477 268.181C565.197 268.293 564.977 268.469 564.817 268.709C564.665 268.949 564.589 269.253 564.589 269.621C564.589 269.973 564.681 270.281 564.865 270.545C565.057 270.809 565.325 271.017 565.669 271.169C566.021 271.321 566.433 271.397 566.905 271.397C567.313 271.397 567.653 271.349 567.925 271.253C568.205 271.149 568.457 271.021 568.681 270.869L569.545 272.117C569.281 272.317 568.989 272.489 568.669 272.633C568.357 272.769 568.029 272.869 567.685 272.933C567.349 273.005 567.005 273.041 566.653 273.041ZM574.641 273.029C574.009 273.029 573.457 272.889 572.985 272.609C572.513 272.329 572.141 271.941 571.869 271.445C571.605 270.941 571.473 270.369 571.473 269.729C571.473 269.081 571.609 268.509 571.881 268.013C572.153 267.517 572.529 267.129 573.009 266.849C573.497 266.561 574.057 266.417 574.689 266.417C575.049 266.417 575.381 266.465 575.685 266.561C575.989 266.649 576.253 266.773 576.477 266.933C576.709 267.093 576.897 267.269 577.041 267.461C577.193 267.653 577.293 267.853 577.341 268.061H576.921V266.549H578.817V272.921H576.885V271.289L577.293 271.349C577.245 271.557 577.145 271.761 576.993 271.961C576.841 272.161 576.645 272.341 576.405 272.501C576.165 272.661 575.893 272.789 575.589 272.885C575.293 272.981 574.977 273.029 574.641 273.029ZM575.157 271.409C575.517 271.409 575.829 271.341 576.093 271.205C576.365 271.069 576.573 270.877 576.717 270.629C576.869 270.373 576.945 270.073 576.945 269.729C576.945 269.393 576.869 269.101 576.717 268.853C576.573 268.597 576.365 268.397 576.093 268.253C575.829 268.109 575.517 268.037 575.157 268.037C574.797 268.037 574.485 268.109 574.221 268.253C573.957 268.397 573.749 268.597 573.597 268.853C573.453 269.101 573.381 269.393 573.381 269.729C573.381 270.073 573.453 270.373 573.597 270.629C573.749 270.877 573.957 271.069 574.221 271.205C574.485 271.341 574.797 271.409 575.157 271.409ZM581.731 272.921V266.549H583.555L583.615 267.893L583.267 267.809C583.371 267.617 583.507 267.437 583.675 267.269C583.851 267.101 584.047 266.957 584.263 266.837C584.487 266.709 584.727 266.609 584.983 266.537C585.239 266.465 585.515 266.429 585.811 266.429C586.155 266.429 586.471 266.481 586.759 266.585C587.055 266.689 587.307 266.861 587.515 267.101C587.723 267.333 587.883 267.645 587.995 268.037L587.599 267.989L587.695 267.797C587.823 267.613 587.975 267.441 588.151 267.281C588.335 267.113 588.543 266.969 588.775 266.849C589.007 266.721 589.255 266.621 589.519 266.549C589.783 266.469 590.055 266.429 590.335 266.429C590.919 266.429 591.395 266.541 591.763 266.765C592.131 266.981 592.403 267.289 592.579 267.689C592.755 268.089 592.843 268.553 592.843 269.081V272.921H590.911V269.285C590.911 269.029 590.871 268.809 590.791 268.625C590.711 268.441 590.587 268.301 590.419 268.205C590.259 268.101 590.051 268.049 589.795 268.049C589.571 268.049 589.363 268.085 589.171 268.157C588.987 268.229 588.823 268.329 588.679 268.457C588.543 268.577 588.435 268.721 588.355 268.889C588.283 269.049 588.247 269.225 588.247 269.417V272.921H586.315V269.273C586.315 269.025 586.271 268.809 586.183 268.625C586.095 268.441 585.959 268.301 585.775 268.205C585.591 268.101 585.363 268.049 585.091 268.049C584.875 268.049 584.679 268.089 584.503 268.169C584.335 268.241 584.187 268.341 584.059 268.469C583.931 268.589 583.831 268.721 583.759 268.865C583.695 269.009 583.663 269.157 583.663 269.309V272.921H581.731ZM536.504 290.153C535.288 289.537 534.372 288.769 533.756 287.849C533.14 286.929 532.832 285.921 532.832 284.825C532.832 283.745 533.14 282.745 533.756 281.825C534.38 280.905 535.3 280.129 536.516 279.497L537.596 280.589C536.644 281.117 535.944 281.749 535.496 282.485C535.048 283.213 534.824 283.993 534.824 284.825C534.824 285.657 535.048 286.441 535.496 287.177C535.944 287.905 536.644 288.533 537.596 289.061L536.504 290.153ZM539.619 287.921V279.521H543.831C544.375 279.521 544.859 279.641 545.283 279.881C545.715 280.121 546.059 280.449 546.315 280.865C546.571 281.281 546.699 281.749 546.699 282.269C546.699 282.821 546.567 283.317 546.303 283.757C546.039 284.189 545.683 284.533 545.235 284.789C544.795 285.037 544.295 285.161 543.735 285.161H541.659V287.921H539.619ZM541.623 283.373H543.411C543.619 283.373 543.811 283.329 543.987 283.241C544.171 283.145 544.315 283.017 544.419 282.857C544.531 282.697 544.587 282.513 544.587 282.305C544.587 282.097 544.531 281.921 544.419 281.777C544.315 281.633 544.171 281.521 543.987 281.441C543.811 281.361 543.619 281.321 543.411 281.321H541.623V283.373ZM552.28 288.041C551.672 288.041 551.12 287.977 550.624 287.849C550.136 287.721 549.696 287.541 549.304 287.309C548.92 287.069 548.568 286.789 548.248 286.469L549.364 284.981C549.868 285.485 550.372 285.837 550.876 286.037C551.388 286.229 551.896 286.325 552.4 286.325C552.632 286.325 552.856 286.301 553.072 286.253C553.296 286.197 553.476 286.109 553.612 285.989C553.748 285.869 553.816 285.713 553.816 285.521C553.816 285.393 553.78 285.285 553.708 285.197C553.636 285.101 553.536 285.021 553.408 284.957C553.28 284.893 553.128 284.837 552.952 284.789C552.784 284.741 552.604 284.701 552.412 284.669C552.228 284.629 552.032 284.593 551.824 284.561C551.32 284.481 550.872 284.369 550.48 284.225C550.096 284.081 549.772 283.901 549.508 283.685C549.244 283.469 549.04 283.217 548.896 282.929C548.76 282.641 548.692 282.313 548.692 281.945C548.692 281.553 548.784 281.197 548.968 280.877C549.16 280.549 549.42 280.273 549.748 280.049C550.076 279.817 550.456 279.641 550.888 279.521C551.32 279.393 551.776 279.329 552.256 279.329C552.832 279.329 553.332 279.385 553.756 279.497C554.188 279.609 554.564 279.769 554.884 279.977C555.204 280.177 555.472 280.413 555.688 280.685L554.548 281.981C554.348 281.781 554.124 281.613 553.876 281.477C553.628 281.341 553.364 281.237 553.084 281.165C552.812 281.093 552.536 281.057 552.256 281.057C551.976 281.057 551.728 281.089 551.512 281.153C551.296 281.209 551.124 281.293 550.996 281.405C550.868 281.517 550.804 281.657 550.804 281.825C550.804 281.969 550.856 282.093 550.96 282.197C551.064 282.293 551.2 282.377 551.368 282.449C551.544 282.521 551.74 282.581 551.956 282.629C552.172 282.669 552.388 282.705 552.604 282.737C553.06 282.809 553.488 282.905 553.888 283.025C554.288 283.137 554.64 283.289 554.944 283.481C555.248 283.665 555.484 283.905 555.652 284.201C555.828 284.489 555.916 284.849 555.916 285.281C555.916 285.865 555.756 286.365 555.436 286.781C555.124 287.189 554.696 287.501 554.152 287.717C553.608 287.933 552.984 288.041 552.28 288.041ZM560.773 283.361C560.773 285.929 559.705 287.849 558.409 289.133L557.269 288.617C558.481 287.333 559.417 285.665 559.417 283.361C559.417 281.069 558.481 279.401 557.269 278.117L558.409 277.601C559.705 278.885 560.773 280.805 560.773 283.361Z" fill="#DF5387"/>
<path d="M44.6154 247.109V237.309H46.9954V247.109H44.6154ZM37.7554 247.109V237.309H40.1354V247.109H37.7554ZM38.6794 243.315L38.6934 241.187H45.8754V243.315H38.6794ZM54.1122 247.249C53.2068 247.249 52.4135 247.086 51.7322 246.759C51.0602 246.423 50.5375 245.97 50.1642 245.401C49.7908 244.822 49.6042 244.164 49.6042 243.427C49.6042 242.839 49.7115 242.307 49.9262 241.831C50.1408 241.355 50.4395 240.944 50.8222 240.599C51.2048 240.254 51.6528 239.988 52.1662 239.801C52.6795 239.614 53.2348 239.521 53.8322 239.521C54.4108 239.521 54.9428 239.614 55.4282 239.801C55.9135 239.978 56.3335 240.235 56.6882 240.571C57.0522 240.907 57.3322 241.304 57.5282 241.761C57.7242 242.218 57.8128 242.722 57.7942 243.273L57.7802 243.903H51.0742L50.7522 242.601H55.9602L55.7222 242.881V242.601C55.6942 242.368 55.5915 242.158 55.4142 241.971C55.2462 241.784 55.0268 241.64 54.7562 241.537C54.4855 241.425 54.1868 241.369 53.8602 241.369C53.4402 241.369 53.0668 241.439 52.7402 241.579C52.4135 241.71 52.1568 241.915 51.9702 242.195C51.7928 242.475 51.7042 242.83 51.7042 243.259C51.7042 243.67 51.8115 244.029 52.0262 244.337C52.2502 244.645 52.5628 244.888 52.9642 245.065C53.3748 245.242 53.8555 245.331 54.4062 245.331C54.8822 245.331 55.2788 245.275 55.5962 245.163C55.9228 245.042 56.2168 244.892 56.4782 244.715L57.4862 246.171C57.1782 246.404 56.8375 246.605 56.4642 246.773C56.1002 246.932 55.7175 247.048 55.3162 247.123C54.9242 247.207 54.5228 247.249 54.1122 247.249ZM63.431 247.235C62.6937 247.235 62.0497 247.072 61.499 246.745C60.9484 246.418 60.5144 245.966 60.197 245.387C59.889 244.799 59.735 244.132 59.735 243.385C59.735 242.629 59.8937 241.962 60.211 241.383C60.5284 240.804 60.967 240.352 61.527 240.025C62.0964 239.689 62.7497 239.521 63.487 239.521C63.907 239.521 64.2944 239.577 64.649 239.689C65.0037 239.792 65.3117 239.936 65.573 240.123C65.8437 240.31 66.063 240.515 66.231 240.739C66.4084 240.963 66.525 241.196 66.581 241.439H66.091V239.675H68.303V247.109H66.049V245.205L66.525 245.275C66.469 245.518 66.3524 245.756 66.175 245.989C65.9977 246.222 65.769 246.432 65.489 246.619C65.209 246.806 64.8917 246.955 64.537 247.067C64.1917 247.179 63.823 247.235 63.431 247.235ZM64.033 245.345C64.453 245.345 64.817 245.266 65.125 245.107C65.4424 244.948 65.685 244.724 65.853 244.435C66.0304 244.136 66.119 243.786 66.119 243.385C66.119 242.993 66.0304 242.652 65.853 242.363C65.685 242.064 65.4424 241.831 65.125 241.663C64.817 241.495 64.453 241.411 64.033 241.411C63.613 241.411 63.249 241.495 62.941 241.663C62.633 241.831 62.3904 242.064 62.213 242.363C62.045 242.652 61.961 242.993 61.961 243.385C61.961 243.786 62.045 244.136 62.213 244.435C62.3904 244.724 62.633 244.948 62.941 245.107C63.249 245.266 63.613 245.345 64.033 245.345ZM71.7586 247.109V236.749H73.9986V247.109H71.7586ZM78.2288 247.109V237.631H80.4688V247.109H78.2288ZM76.5768 241.635V239.675H82.3588V241.635H76.5768ZM85.1161 247.109V236.749H87.3141V241.411L86.7821 241.593C86.8754 241.22 87.0714 240.879 87.3701 240.571C87.6781 240.254 88.0514 240.002 88.4901 239.815C88.9287 239.619 89.3954 239.521 89.8901 239.521C90.5247 239.521 91.0567 239.652 91.4861 239.913C91.9247 240.165 92.2514 240.524 92.4661 240.991C92.6901 241.448 92.8021 241.985 92.8021 242.601V247.109H90.5481V242.951C90.5481 242.615 90.4874 242.335 90.3661 242.111C90.2541 241.878 90.0814 241.7 89.8481 241.579C89.6241 241.458 89.3627 241.402 89.0641 241.411C88.8214 241.411 88.5927 241.453 88.3781 241.537C88.1727 241.612 87.9907 241.724 87.8321 241.873C87.6827 242.013 87.5661 242.176 87.4821 242.363C87.3981 242.55 87.3561 242.75 87.3561 242.965V247.109H86.2501C85.9421 247.109 85.6947 247.109 85.5081 247.109C85.3214 247.109 85.1907 247.109 85.1161 247.109ZM24.9133 265.109L29.1833 255.309H31.2973L35.5393 265.109H33.1033L30.8353 259.803C30.7513 259.598 30.6673 259.392 30.5833 259.187C30.5086 258.982 30.434 258.772 30.3593 258.557C30.2846 258.342 30.2146 258.132 30.1493 257.927C30.084 257.722 30.0233 257.526 29.9673 257.339L30.4433 257.325C30.3873 257.549 30.322 257.764 30.2473 257.969C30.182 258.174 30.112 258.38 30.0373 258.585C29.9626 258.781 29.8833 258.982 29.7993 259.187C29.7153 259.392 29.6313 259.602 29.5473 259.817L27.2793 265.109H24.9133ZM26.9153 263.289L27.6853 261.497H32.7253L33.2993 263.289H26.9153ZM40.489 265.249C39.6676 265.249 38.9303 265.132 38.277 264.899C37.633 264.666 37.115 264.334 36.723 263.905L38.081 262.701C38.3983 263 38.7763 263.228 39.215 263.387C39.6536 263.546 40.1156 263.625 40.601 263.625C40.7503 263.625 40.895 263.611 41.035 263.583C41.1843 263.555 41.3103 263.518 41.413 263.471C41.525 263.415 41.6136 263.35 41.679 263.275C41.7443 263.2 41.777 263.107 41.777 262.995C41.777 262.818 41.665 262.678 41.441 262.575C41.2823 262.519 41.0816 262.463 40.839 262.407C40.5963 262.351 40.321 262.29 40.013 262.225C39.4996 262.132 39.047 262.02 38.655 261.889C38.2723 261.749 37.9503 261.576 37.689 261.371C37.465 261.175 37.2923 260.951 37.171 260.699C37.0496 260.447 36.989 260.153 36.989 259.817C36.989 259.472 37.0776 259.159 37.255 258.879C37.4323 258.59 37.6796 258.347 37.997 258.151C38.3143 257.946 38.6783 257.792 39.089 257.689C39.4996 257.577 39.929 257.521 40.377 257.521C40.825 257.521 41.2636 257.568 41.693 257.661C42.1223 257.745 42.5283 257.871 42.911 258.039C43.2936 258.198 43.6296 258.403 43.919 258.655L42.771 259.999C42.5656 259.84 42.3276 259.696 42.057 259.565C41.7863 259.434 41.497 259.332 41.189 259.257C40.8903 259.173 40.5963 259.131 40.307 259.131C40.1483 259.131 39.9943 259.14 39.845 259.159C39.705 259.178 39.5836 259.215 39.481 259.271C39.3783 259.318 39.2943 259.378 39.229 259.453C39.173 259.518 39.145 259.602 39.145 259.705C39.145 259.789 39.1683 259.868 39.215 259.943C39.2616 260.018 39.3316 260.078 39.425 260.125C39.5556 260.209 39.747 260.284 39.999 260.349C40.2603 260.414 40.587 260.484 40.979 260.559C41.5483 260.68 42.0336 260.82 42.435 260.979C42.8363 261.128 43.1583 261.31 43.401 261.525C43.597 261.674 43.7416 261.861 43.835 262.085C43.9283 262.3 43.975 262.538 43.975 262.799C43.975 263.275 43.821 263.7 43.513 264.073C43.2143 264.437 42.8036 264.726 42.281 264.941C41.7676 265.146 41.1703 265.249 40.489 265.249ZM49.362 265.249C48.5407 265.249 47.8034 265.132 47.15 264.899C46.506 264.666 45.988 264.334 45.596 263.905L46.954 262.701C47.2714 263 47.6494 263.228 48.088 263.387C48.5267 263.546 48.9887 263.625 49.474 263.625C49.6234 263.625 49.768 263.611 49.908 263.583C50.0574 263.555 50.1834 263.518 50.286 263.471C50.398 263.415 50.4867 263.35 50.552 263.275C50.6174 263.2 50.65 263.107 50.65 262.995C50.65 262.818 50.538 262.678 50.314 262.575C50.1554 262.519 49.9547 262.463 49.712 262.407C49.4694 262.351 49.194 262.29 48.886 262.225C48.3727 262.132 47.92 262.02 47.528 261.889C47.1454 261.749 46.8234 261.576 46.562 261.371C46.338 261.175 46.1654 260.951 46.044 260.699C45.9227 260.447 45.862 260.153 45.862 259.817C45.862 259.472 45.9507 259.159 46.128 258.879C46.3054 258.59 46.5527 258.347 46.87 258.151C47.1874 257.946 47.5514 257.792 47.962 257.689C48.3727 257.577 48.802 257.521 49.25 257.521C49.698 257.521 50.1367 257.568 50.566 257.661C50.9954 257.745 51.4014 257.871 51.784 258.039C52.1667 258.198 52.5027 258.403 52.792 258.655L51.644 259.999C51.4387 259.84 51.2007 259.696 50.93 259.565C50.6594 259.434 50.37 259.332 50.062 259.257C49.7634 259.173 49.4694 259.131 49.18 259.131C49.0214 259.131 48.8674 259.14 48.718 259.159C48.578 259.178 48.4567 259.215 48.354 259.271C48.2514 259.318 48.1674 259.378 48.102 259.453C48.046 259.518 48.018 259.602 48.018 259.705C48.018 259.789 48.0414 259.868 48.088 259.943C48.1347 260.018 48.2047 260.078 48.298 260.125C48.4287 260.209 48.62 260.284 48.872 260.349C49.1334 260.414 49.46 260.484 49.852 260.559C50.4214 260.68 50.9067 260.82 51.308 260.979C51.7094 261.128 52.0314 261.31 52.274 261.525C52.47 261.674 52.6147 261.861 52.708 262.085C52.8014 262.3 52.848 262.538 52.848 262.799C52.848 263.275 52.694 263.7 52.386 264.073C52.0874 264.437 51.6767 264.726 51.154 264.941C50.6407 265.146 50.0434 265.249 49.362 265.249ZM55.5191 265.109V257.675H57.7731V265.109H55.5191ZM56.6391 256.149C56.2191 256.149 55.8924 256.051 55.6591 255.855C55.4257 255.65 55.3091 255.36 55.3091 254.987C55.3091 254.651 55.4257 254.376 55.6591 254.161C55.9017 253.946 56.2284 253.839 56.6391 253.839C57.0591 253.839 57.3857 253.942 57.6191 254.147C57.8524 254.343 57.9691 254.623 57.9691 254.987C57.9691 255.332 57.8477 255.612 57.6051 255.827C57.3717 256.042 57.0497 256.149 56.6391 256.149ZM64.2233 265.249C63.402 265.249 62.6647 265.132 62.0113 264.899C61.3673 264.666 60.8493 264.334 60.4573 263.905L61.8153 262.701C62.1327 263 62.5107 263.228 62.9493 263.387C63.388 263.546 63.85 263.625 64.3353 263.625C64.4847 263.625 64.6293 263.611 64.7693 263.583C64.9187 263.555 65.0447 263.518 65.1473 263.471C65.2593 263.415 65.348 263.35 65.4133 263.275C65.4787 263.2 65.5113 263.107 65.5113 262.995C65.5113 262.818 65.3993 262.678 65.1753 262.575C65.0167 262.519 64.816 262.463 64.5733 262.407C64.3307 262.351 64.0553 262.29 63.7473 262.225C63.234 262.132 62.7813 262.02 62.3893 261.889C62.0067 261.749 61.6847 261.576 61.4233 261.371C61.1993 261.175 61.0267 260.951 60.9053 260.699C60.784 260.447 60.7233 260.153 60.7233 259.817C60.7233 259.472 60.812 259.159 60.9893 258.879C61.1667 258.59 61.414 258.347 61.7313 258.151C62.0487 257.946 62.4127 257.792 62.8233 257.689C63.234 257.577 63.6633 257.521 64.1113 257.521C64.5593 257.521 64.998 257.568 65.4273 257.661C65.8567 257.745 66.2627 257.871 66.6453 258.039C67.028 258.198 67.364 258.403 67.6533 258.655L66.5053 259.999C66.3 259.84 66.062 259.696 65.7913 259.565C65.5207 259.434 65.2313 259.332 64.9233 259.257C64.6247 259.173 64.3307 259.131 64.0413 259.131C63.8827 259.131 63.7287 259.14 63.5793 259.159C63.4393 259.178 63.318 259.215 63.2153 259.271C63.1127 259.318 63.0287 259.378 62.9633 259.453C62.9073 259.518 62.8793 259.602 62.8793 259.705C62.8793 259.789 62.9027 259.868 62.9493 259.943C62.996 260.018 63.066 260.078 63.1593 260.125C63.29 260.209 63.4813 260.284 63.7333 260.349C63.9947 260.414 64.3213 260.484 64.7133 260.559C65.2827 260.68 65.768 260.82 66.1693 260.979C66.5707 261.128 66.8927 261.31 67.1353 261.525C67.3313 261.674 67.476 261.861 67.5693 262.085C67.6627 262.3 67.7093 262.538 67.7093 262.799C67.7093 263.275 67.5553 263.7 67.2473 264.073C66.9487 264.437 66.538 264.726 66.0153 264.941C65.502 265.146 64.9047 265.249 64.2233 265.249ZM70.9964 265.109V255.631H73.2364V265.109H70.9964ZM69.3444 259.635V257.675H75.1264V259.635H69.3444ZM80.6713 265.235C79.9339 265.235 79.2899 265.072 78.7393 264.745C78.1886 264.418 77.7546 263.966 77.4373 263.387C77.1293 262.799 76.9753 262.132 76.9753 261.385C76.9753 260.629 77.1339 259.962 77.4513 259.383C77.7686 258.804 78.2073 258.352 78.7673 258.025C79.3366 257.689 79.9899 257.521 80.7273 257.521C81.1473 257.521 81.5346 257.577 81.8893 257.689C82.2439 257.792 82.5519 257.936 82.8133 258.123C83.0839 258.31 83.3033 258.515 83.4713 258.739C83.6486 258.963 83.7653 259.196 83.8213 259.439H83.3313V257.675H85.5433V265.109H83.2893V263.205L83.7653 263.275C83.7093 263.518 83.5926 263.756 83.4153 263.989C83.2379 264.222 83.0093 264.432 82.7293 264.619C82.4493 264.806 82.1319 264.955 81.7773 265.067C81.4319 265.179 81.0633 265.235 80.6713 265.235ZM81.2733 263.345C81.6933 263.345 82.0573 263.266 82.3653 263.107C82.6826 262.948 82.9253 262.724 83.0933 262.435C83.2706 262.136 83.3593 261.786 83.3593 261.385C83.3593 260.993 83.2706 260.652 83.0933 260.363C82.9253 260.064 82.6826 259.831 82.3653 259.663C82.0573 259.495 81.6933 259.411 81.2733 259.411C80.8533 259.411 80.4893 259.495 80.1813 259.663C79.8733 259.831 79.6306 260.064 79.4533 260.363C79.2853 260.652 79.2013 260.993 79.2013 261.385C79.2013 261.786 79.2853 262.136 79.4533 262.435C79.6306 262.724 79.8733 262.948 80.1813 263.107C80.4893 263.266 80.8533 263.345 81.2733 263.345ZM88.9989 265.109V257.675H91.1269L91.1969 259.411L90.6649 259.565C90.7862 259.201 90.9915 258.865 91.2809 258.557C91.5795 258.249 91.9389 258.002 92.3589 257.815C92.7882 257.619 93.2502 257.521 93.7449 257.521C94.3795 257.521 94.9162 257.647 95.3549 257.899C95.7935 258.151 96.1249 258.51 96.3489 258.977C96.5729 259.434 96.6849 259.98 96.6849 260.615V265.109H94.4309V260.937C94.4309 260.61 94.3702 260.335 94.2489 260.111C94.1369 259.887 93.9642 259.714 93.7309 259.593C93.5069 259.472 93.2455 259.411 92.9469 259.411C92.6855 259.411 92.4475 259.458 92.2329 259.551C92.0275 259.635 91.8502 259.752 91.7009 259.901C91.5515 260.041 91.4349 260.2 91.3509 260.377C91.2762 260.554 91.2389 260.736 91.2389 260.923V265.109H90.1329C89.8249 265.109 89.5775 265.109 89.3909 265.109C89.2042 265.109 89.0735 265.109 88.9989 265.109ZM100.842 265.109V255.631H103.082V265.109H100.842ZM99.1901 259.635V257.675H104.972V259.635H99.1901ZM51.3403 285.713C49.9217 284.994 48.853 284.098 48.1343 283.025C47.4157 281.952 47.0563 280.776 47.0563 279.497C47.0563 278.237 47.4157 277.07 48.1343 275.997C48.8623 274.924 49.9357 274.018 51.3543 273.281L52.6143 274.555C51.5037 275.171 50.687 275.908 50.1643 276.767C49.6417 277.616 49.3803 278.526 49.3803 279.497C49.3803 280.468 49.6417 281.382 50.1643 282.241C50.687 283.09 51.5037 283.823 52.6143 284.439L51.3403 285.713ZM61.8351 283.109V273.309H64.2151V283.109H61.8351ZM54.9751 283.109V273.309H57.3551V283.109H54.9751ZM55.8991 279.315L55.9131 277.187H63.0951V279.315H55.8991ZM66.2639 283.109L70.5339 273.309H72.6479L76.8899 283.109H74.4539L72.1859 277.803C72.1019 277.598 72.0179 277.392 71.9339 277.187C71.8592 276.982 71.7846 276.772 71.7099 276.557C71.6352 276.342 71.5652 276.132 71.4999 275.927C71.4346 275.722 71.3739 275.526 71.3179 275.339L71.7939 275.325C71.7379 275.549 71.6726 275.764 71.5979 275.969C71.5326 276.174 71.4626 276.38 71.3879 276.585C71.3132 276.781 71.2339 276.982 71.1499 277.187C71.0659 277.392 70.9819 277.602 70.8979 277.817L68.6299 283.109H66.2639ZM68.2659 281.289L69.0359 279.497H74.0759L74.6499 281.289H68.2659ZM79.1656 285.713L77.9056 284.439C79.0162 283.823 79.8282 283.09 80.3416 282.241C80.8642 281.382 81.1256 280.468 81.1256 279.497C81.1256 278.526 80.8642 277.616 80.3416 276.767C79.8282 275.908 79.0162 275.171 77.9056 274.555L79.1796 273.281C80.5982 274 81.6669 274.896 82.3856 275.969C83.1042 277.042 83.4636 278.218 83.4636 279.497C83.4636 280.766 83.0996 281.942 82.3716 283.025C81.6529 284.098 80.5842 284.994 79.1656 285.713Z" fill="#625939"/>
<path d="M64.2573 188.921C64.2573 189.474 64.705 189.921 65.2573 189.921C65.8096 189.921 66.2573 189.474 66.2573 188.921H64.2573ZM231.458 69.4402C231.458 69.9925 232.134 70.383 232.612 70.1068L240.303 65.6667C240.781 65.3905 240.781 64.6095 240.303 64.3333L232.612 59.8932C232.134 59.617 231.458 60.0075 231.458 60.5598V69.4402ZM66.2573 188.921V89H64.2573V188.921H66.2573ZM89.2573 66H232.458V64H89.2573V66ZM66.2573 89C66.2573 76.2975 76.5548 66 89.2573 66V64C75.4502 64 64.2573 75.1929 64.2573 89H66.2573Z" fill="url(#paint4_linear_519_3866)"/>
<path d="M232.27 262.362C232.27 262.914 232.946 263.304 233.424 263.028L241.115 258.588C241.593 258.312 241.593 257.531 241.115 257.255L233.424 252.815C232.946 252.538 232.27 252.929 232.27 253.481V262.362ZM144.257 253.481C144.257 252.929 143.581 252.538 143.103 252.815L135.412 257.255C134.934 257.531 134.934 258.312 135.412 258.588L143.103 263.028C143.581 263.304 144.257 262.914 144.257 262.362V253.481ZM233.27 256.921H143.257V258.921H233.27V256.921Z" fill="url(#paint5_linear_519_3866)"/>
<path d="M390.27 253.481C390.27 252.929 389.593 252.538 389.115 252.815L381.424 257.255C380.946 257.531 380.946 258.312 381.424 258.588L389.115 263.028C389.593 263.304 390.27 262.914 390.27 262.362V253.481ZM469.743 262.362C469.743 262.914 470.419 263.304 470.897 263.028L478.588 258.588C479.066 258.312 479.066 257.531 478.588 257.255L470.897 252.815C470.419 252.538 469.743 252.929 469.743 253.481V262.362ZM389.27 258.921H470.743V256.921H389.27V258.921Z" fill="#FF6AD5"/>
<path d="M547.743 188.921C547.743 189.474 548.19 189.921 548.743 189.921C549.295 189.921 549.743 189.474 549.743 188.921H547.743ZM389.458 60.5598C389.458 60.0075 388.781 59.617 388.303 59.8932L380.612 64.3333C380.134 64.6095 380.134 65.3905 380.612 65.6667L388.303 70.1068C388.781 70.383 389.458 69.9925 389.458 69.4402V60.5598ZM549.743 188.921V89H547.743V188.921H549.743ZM524.743 64H388.458V66H524.743V64ZM549.743 89C549.743 75.1929 538.55 64 524.743 64V66C537.445 66 547.743 76.2975 547.743 89H549.743Z" fill="url(#paint6_linear_519_3866)"/>
<defs>
<radialGradient id="paint0_radial_519_3866" cx="0" cy="0" r="1" gradientUnits="userSpaceOnUse" gradientTransform="translate(65.2573 257.921) rotate(90) scale(65)">
<stop stop-color="#C5D8FF"/>
<stop offset="0.66388" stop-color="#D4CDFF" stop-opacity="0.54"/>
<stop offset="1" stop-color="#FFD79B" stop-opacity="0.84"/>
</radialGradient>
<radialGradient id="paint1_radial_519_3866" cx="0" cy="0" r="1" gradientUnits="userSpaceOnUse" gradientTransform="translate(311.27 257.921) rotate(90) scale(83.3187)">
<stop stop-color="#83CBFF"/>
<stop offset="0.666669" stop-color="#E8E0FF" stop-opacity="0.83"/>
<stop offset="1" stop-color="#CC5FFF" stop-opacity="0"/>
</radialGradient>
<radialGradient id="paint2_radial_519_3866" cx="0" cy="0" r="1" gradientUnits="userSpaceOnUse" gradientTransform="translate(548.743 257.921) rotate(90) scale(98.6655)">
<stop stop-color="#FFF95F"/>
<stop offset="0.531224" stop-color="#FFEAEE" stop-opacity="0.84"/>
<stop offset="0.804394" stop-color="#FFB0D6"/>
</radialGradient>
<radialGradient id="paint3_radial_519_3866" cx="0" cy="0" r="1" gradientUnits="userSpaceOnUse" gradientTransform="translate(310.458 65) rotate(90) scale(65)">
<stop stop-color="#FFCDD6"/>
<stop offset="0.731476" stop-color="#FFCFD7" stop-opacity="0.64"/>
<stop offset="1" stop-color="#B4FFB7" stop-opacity="0.49"/>
</radialGradient>
<linearGradient id="paint4_linear_519_3866" x1="153.357" y1="65" x2="153.357" y2="188.921" gradientUnits="userSpaceOnUse">
<stop stop-color="#FFB27A" stop-opacity="0.94"/>
<stop offset="1" stop-color="#9CFF5F"/>
</linearGradient>
<linearGradient id="paint5_linear_519_3866" x1="57.4092" y1="-371.942" x2="57.4092" y2="-45.4529" gradientUnits="userSpaceOnUse">
<stop offset="0.372095" stop-color="#FF8E3C" stop-opacity="0.94"/>
<stop offset="0.528348" stop-color="#A57BFF"/>
</linearGradient>
<linearGradient id="paint6_linear_519_3866" x1="464.1" y1="65" x2="464.1" y2="188.921" gradientUnits="userSpaceOnUse">
<stop stop-color="#61B261"/>
<stop offset="0.588543" stop-color="#DAC4FF"/>
</linearGradient>
</defs>
</svg>
