<svg width="44" height="45" viewBox="0 0 44 45" fill="none" xmlns="http://www.w3.org/2000/svg">
<g id="DiscordLogo" clip-path="url(#clip0_478_1304)">
<path id="Vector" d="M42.5408 30.903L37.4688 10.8985C37.3353 10.3777 37.0528 9.90713 36.656 9.54446C36.2591 9.18179 35.7651 8.94274 35.2344 8.85659L29.0366 7.83909C28.3533 7.7292 27.6536 7.87736 27.0736 8.25475C26.4935 8.63214 26.0745 9.2118 25.8981 9.88097L25.8621 10.0271C25.8387 10.1199 25.835 10.2166 25.8511 10.3109C25.8672 10.4052 25.9029 10.4952 25.9558 10.5749C26.0087 10.6547 26.0777 10.7225 26.1583 10.7741C26.239 10.8257 26.3295 10.8598 26.4241 10.8744C27.8463 11.0831 29.2493 11.4062 30.6196 11.8403C30.9621 11.9437 31.2525 12.1735 31.4319 12.4831C31.6113 12.7927 31.6662 13.1589 31.5855 13.5075C31.5391 13.6892 31.4561 13.8594 31.3415 14.0078C31.2269 14.1562 31.0831 14.2796 30.9191 14.3704C30.7551 14.4612 30.5742 14.5174 30.3876 14.5358C30.201 14.5541 30.0126 14.5341 29.8341 14.4769C24.7497 12.9176 19.3156 12.9116 14.2278 14.4597C13.8835 14.5755 13.5078 14.5542 13.1788 14.4002C12.8498 14.2463 12.5927 13.9715 12.461 13.633C12.3983 13.4593 12.3713 13.2748 12.3816 13.0904C12.3918 12.906 12.4391 12.7256 12.5206 12.5599C12.6021 12.3942 12.7161 12.2466 12.8559 12.1259C12.9956 12.0053 13.1583 11.914 13.3341 11.8575C14.7215 11.4156 16.1424 11.0868 17.5828 10.8744C17.6774 10.8598 17.768 10.8257 17.8486 10.7741C17.9292 10.7225 17.9982 10.6547 18.0511 10.5749C18.104 10.4952 18.1397 10.4052 18.1558 10.3109C18.172 10.2166 18.1682 10.1199 18.1449 10.0271L18.1088 9.88097C17.9323 9.21122 17.5128 8.6312 16.9319 8.25402C16.351 7.87683 15.6505 7.72952 14.9669 7.84081L8.76565 8.85831C8.2352 8.94433 7.74132 9.18312 7.34448 9.54547C6.94764 9.90782 6.66504 10.378 6.53127 10.8985L1.45924 30.903C1.30021 31.5318 1.36943 32.1966 1.65457 32.7792C1.93971 33.3618 2.42229 33.8243 3.01643 34.0844L14.5321 39.1908C14.8783 39.3447 15.2524 39.4263 15.6313 39.4303C16.0102 39.4344 16.386 39.3609 16.7354 39.2144C17.0849 39.0679 17.4008 38.8515 17.6635 38.5785C17.9263 38.3055 18.1305 37.9816 18.2635 37.6267L18.8633 36.0025C18.8991 35.9052 18.9123 35.8011 18.9022 35.698C18.892 35.5948 18.8586 35.4953 18.8046 35.4069C18.7505 35.3185 18.6772 35.2434 18.59 35.1873C18.5029 35.1312 18.4042 35.0956 18.3013 35.083C16.6316 34.8808 14.9842 34.5241 13.3805 34.0174C13.0393 33.9137 12.7502 33.6846 12.5712 33.3761C12.3923 33.0677 12.3369 32.703 12.4163 32.3553C12.4623 32.1732 12.5451 32.0024 12.6596 31.8535C12.7742 31.7046 12.918 31.5807 13.0823 31.4895C13.2466 31.3984 13.4278 31.3419 13.6148 31.3235C13.8017 31.305 13.9905 31.3252 14.1694 31.3825C19.2728 32.9454 24.7272 32.9454 29.8307 31.3825C30.0093 31.3254 30.1978 31.3054 30.3845 31.3239C30.5712 31.3423 30.7521 31.3987 30.9162 31.4897C31.0802 31.5807 31.2239 31.7042 31.3384 31.8528C31.453 32.0014 31.5359 32.1718 31.5821 32.3536C31.6623 32.7015 31.6073 33.0669 31.4283 33.3758C31.2493 33.6847 30.9596 33.914 30.6178 34.0174C29.0147 34.5242 27.3679 34.881 25.6988 35.083C25.5959 35.0956 25.4972 35.1312 25.41 35.1873C25.3229 35.2434 25.2495 35.3185 25.1955 35.4069C25.1414 35.4953 25.1081 35.5948 25.0979 35.698C25.0877 35.8011 25.101 35.9052 25.1367 36.0025L25.7366 37.6267C25.8698 37.9814 26.0741 38.3051 26.3369 38.578C26.5997 38.8509 26.9155 39.0672 27.2649 39.2137C27.6143 39.3601 27.99 39.4337 28.3688 39.4297C28.7477 39.4258 29.1217 39.3445 29.468 39.1908L40.9836 34.0844C41.5778 33.8243 42.0603 33.3618 42.3455 32.7792C42.6306 32.1966 42.6998 31.5318 42.5408 30.903ZM15.8125 27.0547C15.4046 27.0547 15.0058 26.9338 14.6667 26.7071C14.3275 26.4805 14.0631 26.1584 13.907 25.7815C13.7509 25.4046 13.7101 24.9899 13.7897 24.5898C13.8692 24.1898 14.0657 23.8223 14.3541 23.5338C14.6426 23.2454 15.0101 23.0489 15.4102 22.9693C15.8102 22.8898 16.2249 22.9306 16.6018 23.0867C16.9787 23.2428 17.3008 23.5072 17.5274 23.8464C17.7541 24.1855 17.875 24.5843 17.875 24.9922C17.875 25.5392 17.6577 26.0638 17.2709 26.4506C16.8841 26.8374 16.3595 27.0547 15.8125 27.0547ZM28.1875 27.0547C27.7796 27.0547 27.3808 26.9338 27.0417 26.7071C26.7025 26.4805 26.4381 26.1584 26.282 25.7815C26.1259 25.4046 26.0851 24.9899 26.1647 24.5898C26.2442 24.1898 26.4407 23.8223 26.7291 23.5338C27.0176 23.2454 27.3851 23.0489 27.7852 22.9693C28.1852 22.8898 28.5999 22.9306 28.9768 23.0867C29.3537 23.2428 29.6758 23.5072 29.9024 23.8464C30.1291 24.1855 30.25 24.5843 30.25 24.9922C30.25 25.5392 30.0327 26.0638 29.6459 26.4506C29.2591 26.8374 28.7345 27.0547 28.1875 27.0547Z" fill="#2E2E2E"/>
</g>
<defs>
<clipPath id="clip0_478_1304">
<rect width="44" height="44" fill="white" transform="translate(0 0.929688)"/>
</clipPath>
</defs>
</svg>
