<svg width="154" height="52" viewBox="0 0 154 52" fill="none" xmlns="http://www.w3.org/2000/svg">
<path d="M3.94951 33.7228V17.5829V13.3018C2.42995 14.4964 1.1236 15.9449 0.0879925 17.5829H0V33.7228C0 38.2408 3.12373 42.0279 7.33045 43.0432V39.4084C5.31677 38.3085 3.95289 36.1764 3.94612 33.7228H3.94951Z" fill="#007000"/>
<path d="M9.58777 50.9578C10.3289 51.0999 11.0836 51.2082 11.8451 51.2861V34.1343V18.1366C11.8519 14.5594 14.7522 11.6624 18.3329 11.6624C18.6205 11.6624 18.9014 11.6827 19.1789 11.7166V8.54883C13.8825 8.54883 9.59115 12.8435 9.59115 18.1366V34.1343V50.9578H9.58777Z" fill="#00939F"/>
<path d="M24.8206 18.1368V34.2767V38.5579C26.3402 37.3632 27.6466 35.9147 28.6822 34.2767H28.7701V18.1368C28.7701 13.6188 25.6464 9.8317 21.4397 8.81641V12.4512C23.4534 13.5511 24.8173 15.6832 24.824 18.1368H24.8206Z" fill="#00939F"/>
<path d="M16.9216 0.573242V17.725V33.7227C16.9148 36.8126 14.7455 39.3948 11.8485 40.0379V43.0398C16.0552 42.0245 19.179 38.2374 19.179 33.7227V17.725V0.901522C18.4378 0.75938 17.6831 0.651082 16.9216 0.573242Z" fill="#007000"/>
<path d="M40.7701 9.0332H43.9901V17.4747C43.9901 17.9768 44.0704 18.4521 44.2244 18.9006C44.385 19.3424 44.606 19.7374 44.9005 20.0654C45.1951 20.4001 45.5499 20.6612 45.9649 20.8553C46.3799 21.0494 46.8485 21.1432 47.3707 21.1432C47.8929 21.1432 48.3414 21.0494 48.7564 20.8553C49.1715 20.6612 49.5196 20.4001 49.8141 20.0654C50.102 19.7307 50.3296 19.3424 50.4835 18.9006C50.6442 18.4587 50.7178 17.9835 50.7178 17.4747V9.0332H52.7529V17.4747C52.7529 18.1508 52.6391 18.7935 52.4115 19.3959C52.1839 19.9984 51.8224 20.5273 51.3337 20.9758C50.845 21.4243 50.2158 21.7858 49.4459 22.0469C48.6761 22.3147 47.7523 22.4418 46.6812 22.4418C45.7172 22.4418 44.867 22.308 44.1307 22.0469C43.3943 21.7791 42.7717 21.4243 42.2764 20.9691C41.781 20.5139 41.4061 19.985 41.1517 19.3759C40.8973 18.7667 40.7701 18.124 40.7701 17.4412V9.0332Z" fill="black"/>
<path d="M67.2394 22.4477H64.0194V14.0062C64.0194 13.5041 63.9391 13.0289 63.7851 12.5803C63.6244 12.1385 63.4035 11.7436 63.109 11.4155C62.8144 11.0808 62.4596 10.8197 62.0446 10.6256C61.6295 10.4315 61.1609 10.3378 60.6388 10.3378C60.1166 10.3378 59.6681 10.4315 59.2531 10.6256C58.838 10.8197 58.4899 11.0808 58.1954 11.4155C57.9075 11.7502 57.6799 12.1385 57.5259 12.5803C57.3653 13.0222 57.2917 13.4975 57.2917 14.0062V22.4477H55.2566V14.0062C55.2566 13.3301 55.3704 12.6874 55.598 12.085C55.8256 11.4825 56.1871 10.9536 56.6758 10.5051C57.1645 10.0566 57.7937 9.6951 58.5636 9.43403C59.3334 9.16625 60.2572 9.03906 61.3283 9.03906C62.2923 9.03906 63.1425 9.17295 63.8788 9.43403C64.6152 9.7018 65.2378 10.0566 65.7331 10.5118C66.2285 10.967 66.6034 11.4959 66.8578 12.105C67.1122 12.7142 67.2394 13.3569 67.2394 14.0397V22.4477Z" fill="black"/>
<path d="M44.3449 35.972C44.3449 36.8222 44.4721 37.5719 44.7332 38.2213C44.9875 38.8706 45.3289 39.4195 45.7574 39.8547C46.1791 40.2965 46.6745 40.6312 47.2234 40.8588C47.7791 41.0864 48.3548 41.2002 48.9506 41.2002C49.4058 41.2002 49.8342 41.1199 50.2292 40.9659C50.6241 40.8053 50.9923 40.591 51.3404 40.3233C51.6818 40.0555 52.0098 39.7409 52.3111 39.3861C52.6123 39.0313 52.9002 38.6564 53.1813 38.2681L54.5202 39.2522C54.2323 39.7141 53.8842 40.1626 53.4759 40.591C53.0675 41.0195 52.6056 41.401 52.0969 41.7291C51.5881 42.0571 51.0325 42.3182 50.4367 42.519C49.8409 42.7198 49.2049 42.8135 48.5355 42.8135C47.4109 42.8135 46.3733 42.6462 45.4227 42.3182C44.4721 41.9901 43.6554 41.5282 42.9659 40.9258C42.2764 40.33 41.7408 39.607 41.3525 38.7702C40.9643 37.9334 40.7701 36.9962 40.7701 35.9653C40.7701 34.9344 40.9509 34.0507 41.3191 33.2139C41.6873 32.3772 42.2027 31.6542 42.8654 31.045C43.5282 30.4358 44.3315 29.9605 45.262 29.6191C46.1925 29.2777 47.2234 29.1104 48.3481 29.1104C49.0978 29.1104 49.7873 29.1974 50.4166 29.3781C51.0392 29.5522 51.6082 29.7999 52.1236 30.1145C52.6324 30.4291 53.0943 30.7973 53.496 31.2324C53.8976 31.6676 54.2524 32.1429 54.5604 32.665L53.2081 33.6089C52.9336 33.2139 52.6324 32.8458 52.3044 32.4977C51.9764 32.1496 51.635 31.8483 51.2668 31.5872C50.8986 31.3262 50.517 31.1186 50.1087 30.9714C49.7003 30.8174 49.2786 30.7438 48.8434 30.7438C48.2477 30.7438 47.6719 30.8576 47.1297 31.0785C46.5875 31.3061 46.1055 31.6341 45.6971 32.0759C45.2821 32.5177 44.9541 33.06 44.7131 33.7093C44.4654 34.3587 44.3449 35.1084 44.3449 35.9586V35.972Z" fill="black"/>
<path d="M64.3675 42.8177C63.3098 42.8177 62.3258 42.6504 61.4153 42.309C60.4982 41.9676 59.7083 41.4923 59.0389 40.8764C58.3694 40.2605 57.8406 39.5309 57.459 38.6874C57.0774 37.8439 56.8833 36.9134 56.8833 35.9026C56.8833 34.8917 57.0774 34.0014 57.459 33.178C57.8406 32.3479 58.3694 31.6383 59.0389 31.0492C59.7083 30.4601 60.4982 29.9982 61.4153 29.6702C62.3324 29.3422 63.3165 29.1748 64.3675 29.1748C65.4185 29.1748 66.4093 29.3422 67.3197 29.6702C68.2301 30.0049 69.02 30.4668 69.6961 31.0559C70.3656 31.645 70.9011 32.3546 71.2827 33.178C71.6643 34.0014 71.8651 34.8984 71.8651 35.8758C71.8651 36.572 71.7781 37.228 71.604 37.8439C71.43 38.4598 71.1823 39.0221 70.861 39.5375C70.5396 40.053 70.1514 40.5149 69.7028 40.9166C69.2543 41.3249 68.7456 41.6663 68.1899 41.9475C67.6343 42.2286 67.0318 42.4496 66.3892 42.5968C65.7465 42.7508 65.0704 42.8244 64.3742 42.8244L64.3675 42.8177ZM64.3675 41.7199C65.0035 41.7199 65.5658 41.5726 66.0545 41.2781C66.5431 40.9835 66.9515 40.5819 67.2795 40.0664C67.6075 39.5509 67.8552 38.9418 68.0293 38.2255C68.1966 37.5159 68.2837 36.7393 68.2837 35.8959C68.2837 35.0524 68.1966 34.3093 68.0293 33.6198C67.8619 32.9303 67.6075 32.3412 67.2795 31.8458C66.9515 31.3504 66.5431 30.9622 66.0545 30.6877C65.5658 30.4132 65.0035 30.2727 64.3675 30.2727C63.7315 30.2727 63.1558 30.4132 62.6672 30.6877C62.1785 30.9622 61.7701 31.3504 61.4421 31.8458C61.1141 32.3412 60.8664 32.937 60.699 33.6198C60.5317 34.3093 60.4514 35.0658 60.4514 35.8959C60.4514 36.726 60.5317 37.5159 60.699 38.2255C60.8664 38.9351 61.1141 39.5509 61.4421 40.0664C61.7701 40.5819 62.1785 40.9835 62.6672 41.2781C63.1558 41.5726 63.7248 41.7199 64.3675 41.7199Z" fill="black"/>
<path d="M74.7369 29.4365H77.8632L82.3885 38.3801L86.8469 29.4365H89.9062V42.5305H86.6996V33.9953L82.422 42.5305H81.1835L76.7586 33.9016V42.5305H74.7235V29.4365H74.7369Z" fill="black"/>
<path d="M93.2064 29.4365H96.3327L100.858 38.3801L105.316 29.4365H108.376V42.5305H105.169V33.9953L100.891 42.5305H99.653L95.2281 33.9016V42.5305H93.1931V29.4365H93.2064Z" fill="black"/>
<path d="M118.779 42.8197C117.721 42.8197 116.737 42.6523 115.826 42.3109C114.909 41.9695 114.119 41.4942 113.45 40.8784C112.781 40.2625 112.252 39.5328 111.87 38.6893C111.489 37.8458 111.294 36.9153 111.294 35.9045C111.294 34.8937 111.489 34.0033 111.87 33.1799C112.252 32.3498 112.781 31.6403 113.45 31.0512C114.119 30.4621 114.909 30.0002 115.826 29.6721C116.744 29.3441 117.728 29.1768 118.779 29.1768C119.83 29.1768 120.82 29.3441 121.731 29.6721C122.641 30.0068 123.431 30.4688 124.107 31.0578C124.777 31.6469 125.312 32.3565 125.694 33.1799C126.075 34.0033 126.276 34.9004 126.276 35.8777C126.276 36.5739 126.189 37.23 126.015 37.8459C125.841 38.4617 125.593 39.024 125.272 39.5395C124.951 40.055 124.562 40.5169 124.114 40.9185C123.665 41.3269 123.157 41.6683 122.601 41.9494C122.045 42.2306 121.443 42.4515 120.8 42.5988C120.158 42.7528 119.481 42.8264 118.785 42.8264L118.779 42.8197ZM118.779 41.7218C119.415 41.7218 119.977 41.5746 120.466 41.28C120.954 40.9855 121.363 40.5838 121.691 40.0684C122.019 39.5529 122.266 38.9437 122.44 38.2274C122.608 37.5178 122.695 36.7413 122.695 35.8978C122.695 35.0543 122.608 34.3113 122.44 33.6218C122.273 32.9322 122.019 32.3432 121.691 31.8478C121.363 31.3524 120.954 30.9641 120.466 30.6897C119.977 30.4152 119.415 30.2746 118.779 30.2746C118.143 30.2746 117.567 30.4152 117.078 30.6897C116.59 30.9641 116.181 31.3524 115.853 31.8478C115.525 32.3432 115.277 32.9389 115.11 33.6218C114.943 34.3113 114.862 35.0677 114.862 35.8978C114.862 36.7279 114.943 37.5178 115.11 38.2274C115.277 38.937 115.525 39.5529 115.853 40.0684C116.181 40.5838 116.59 40.9855 117.078 41.28C117.567 41.5746 118.136 41.7218 118.779 41.7218Z" fill="black"/>
<path d="M129.148 29.4365H131.203L138.667 37.7575V29.4365H140.676V42.7247H139.297L131.183 33.5334V42.5305H129.148V29.4365Z" fill="black"/>
<path d="M148.615 42.7173C147.832 42.7173 147.142 42.6236 146.553 42.4429C145.964 42.2621 145.462 42.0077 145.054 41.6864C144.639 41.3651 144.311 40.9768 144.07 40.535C143.822 40.0865 143.655 39.5978 143.567 39.0623H145.797C145.877 39.3903 145.984 39.6982 146.131 39.9861C146.279 40.2672 146.466 40.5149 146.694 40.7291C146.921 40.9367 147.196 41.104 147.504 41.2245C147.818 41.345 148.18 41.4053 148.588 41.4053C148.856 41.4053 149.13 41.3785 149.392 41.3182C149.659 41.258 149.9 41.1643 150.108 41.0304C150.322 40.8965 150.489 40.7291 150.617 40.5216C150.744 40.3141 150.811 40.053 150.811 39.7451C150.811 39.3568 150.71 39.0154 150.509 38.7142C150.309 38.4129 150.048 38.1384 149.72 37.8908C149.391 37.6431 149.017 37.4155 148.602 37.2012C148.18 36.987 147.758 36.7728 147.316 36.5586C146.881 36.3444 146.453 36.1168 146.031 35.8758C145.609 35.6348 145.241 35.3737 144.913 35.0792C144.585 34.7846 144.324 34.4566 144.123 34.0817C143.922 33.7135 143.822 33.2851 143.822 32.8098C143.822 32.2876 143.936 31.8057 144.163 31.3638C144.391 30.922 144.719 30.5404 145.154 30.2124C145.582 29.8844 146.111 29.63 146.741 29.4493C147.363 29.2685 148.079 29.1748 148.876 29.1748C149.532 29.1748 150.128 29.2618 150.663 29.4426C151.199 29.6233 151.668 29.871 152.076 30.1923C152.484 30.5137 152.826 30.8818 153.107 31.3103C153.381 31.7387 153.596 32.1939 153.743 32.6893H151.728C151.614 32.3814 151.48 32.0868 151.319 31.799C151.165 31.5178 150.978 31.2701 150.75 31.0559C150.523 30.8417 150.248 30.6743 149.927 30.5471C149.606 30.4199 149.224 30.3597 148.776 30.3597C148.354 30.3597 148.006 30.4132 147.718 30.5271C147.43 30.6342 147.202 30.7747 147.028 30.9488C146.854 31.1161 146.727 31.3103 146.654 31.5178C146.573 31.7253 146.54 31.9328 146.54 32.1337C146.54 32.4818 146.64 32.7964 146.848 33.0776C147.055 33.3587 147.323 33.6265 147.664 33.8675C147.999 34.1152 148.387 34.3428 148.816 34.5704C149.244 34.7913 149.686 35.0189 150.135 35.2398C150.583 35.4674 151.018 35.7017 151.453 35.9494C151.882 36.1971 152.27 36.4716 152.605 36.7661C152.939 37.0607 153.214 37.3887 153.421 37.7502C153.629 38.1117 153.729 38.5133 153.729 38.9685C153.729 39.5041 153.622 39.9995 153.401 40.4547C153.18 40.9099 152.859 41.3115 152.424 41.6463C151.996 41.981 151.46 42.2487 150.817 42.4429C150.175 42.637 149.438 42.7307 148.602 42.7307L148.615 42.7173Z" fill="black"/>
</svg>
