<svg width="55" height="55" viewBox="0 0 55 55" fill="none" xmlns="http://www.w3.org/2000/svg">
<g id="Hammer" clip-path="url(#clip0_478_1027)">
<path id="Vector" d="M53.559 23.9944L39.3292 9.66757C35.5288 5.87477 30.3789 3.74463 25.0097 3.74463C19.6404 3.74463 14.4906 5.87477 10.6902 9.66757L10.6712 9.68656L7.76657 12.6882C7.46568 13.0116 7.30357 13.44 7.31502 13.8815C7.32648 14.3231 7.5106 14.7425 7.82785 15.0498C8.1451 15.3571 8.5702 15.5278 9.01188 15.5252C9.45357 15.5226 9.87663 15.347 10.1902 15.0359L13.0864 12.0448C14.2516 10.8799 15.5813 9.89203 17.0331 9.11281L26.8416 18.9319L6.59165 39.1819C6.27817 39.4954 6.0295 39.8674 5.85984 40.277C5.69018 40.6865 5.60286 41.1254 5.60286 41.5687C5.60286 42.012 5.69018 42.4509 5.85984 42.8604C6.0295 43.27 6.27817 43.6421 6.59165 43.9555L10.9559 48.3198C11.2694 48.6332 11.6414 48.8819 12.051 49.0516C12.4605 49.2212 12.8994 49.3085 13.3427 49.3085C13.786 49.3085 14.2249 49.2212 14.6344 49.0516C15.044 48.8819 15.4161 48.6332 15.7295 48.3198L35.9795 28.0698L39.0043 31.0946L42.7295 34.8155C43.0429 35.129 43.415 35.3777 43.8245 35.5473C44.234 35.717 44.6729 35.8043 45.1162 35.8043C45.5595 35.8043 45.9984 35.717 46.408 35.5473C46.8175 35.3777 47.1896 35.129 47.503 34.8155L53.5548 28.7637C54.1871 28.1315 54.5428 27.2742 54.5436 26.38C54.5444 25.4858 54.1902 24.6278 53.559 23.9944ZM13.3416 45.9319L8.97946 41.5676L23.3232 27.2239L27.6854 31.5882L13.3416 45.9319ZM34.7856 24.4838L30.0732 29.1983L25.7089 24.8382L30.4234 20.1237C30.5803 19.967 30.7047 19.7809 30.7897 19.5761C30.8746 19.3712 30.9183 19.1516 30.9183 18.9298C30.9183 18.7081 30.8746 18.4885 30.7897 18.2836C30.7047 18.0788 30.5803 17.8927 30.4234 17.7359L20.4376 7.75226C23.3226 6.93972 26.3721 6.91027 29.2723 7.66693C32.1725 8.42359 34.8189 9.93905 36.9392 12.0575L46.2669 21.4463L40.1982 27.5087L37.1734 24.4838C37.0166 24.3269 36.8305 24.2025 36.6257 24.1175C36.4208 24.0326 36.2012 23.9889 35.9795 23.9889C35.7577 23.9889 35.5381 24.0326 35.3333 24.1175C35.1284 24.2025 34.9423 24.3269 34.7856 24.4838ZM45.1215 32.4277L42.5902 29.8965L48.6357 23.8362L51.167 26.3675L45.1215 32.4277Z" fill="#793E07"/>
</g>
<defs>
<clipPath id="clip0_478_1027">
<rect width="54" height="54" fill="white" transform="translate(0.541962 0.369629)"/>
</clipPath>
</defs>
</svg>
