<svg width="145" height="136" viewBox="0 0 145 136" fill="none" xmlns="http://www.w3.org/2000/svg">
<g id="Layer_1">
<g id="Vector">
<path d="M16.1508 43.1137C15.5075 40.6272 13.9625 34.49 13.6283 31.0925C13.603 30.8204 13.5652 30.3838 13.6283 29.8271C13.8616 27.7898 15.1418 26.7205 16.7814 24.7655C19.5751 21.4375 20.067 19.5268 21.1958 19.7039C21.5237 19.7545 21.8769 19.976 22.457 20.9693C24.3867 24.253 23.6994 27.2267 24.9795 32.3579C25.0867 32.7944 25.4588 34.2813 25.6102 34.2559C25.8309 34.218 25.73 30.8584 24.9795 27.2963C24.0525 22.8864 22.6967 20.8744 23.7183 19.7039C24.4057 18.9194 25.7111 19.0269 26.2408 19.0712C30.075 19.3813 64.3306 21.7222 71.0152 19.7039C71.5765 19.5331 73.8152 18.7739 76.0602 19.7039C76.2368 19.7799 77.1071 20.1531 77.9521 20.9693C80.544 23.4875 80.4746 27.91 80.4746 28.5617C80.4494 36.4514 88.225 49.9278 88.6728 50.7061C93.5601 59.1842 98.6493 60.0383 113.898 76.6466C114.724 77.5514 118.564 81.7715 117.682 82.9736C117.026 83.8657 114.68 81.8664 111.375 82.3409C106.923 82.9799 106.671 87.2569 100.655 89.9332C98.5925 90.8506 96.2907 91.8756 93.7178 91.1986C89.0196 89.9649 85.5386 83.6253 85.5196 83.6063C83.9683 84.4604 81.6097 85.5487 78.5827 86.1371C71.6585 87.4784 65.9639 85.2576 63.4477 84.239C47.3289 77.7159 37.0371 57.5012 29.3939 42.481C28.8327 41.3738 27.111 37.9446 26.8714 38.0521C26.5183 38.2103 29.6588 46.1253 31.2858 50.0734C35.8074 61.057 39.2506 69.4275 45.7902 79.8101C55.6847 95.5326 63.2207 100.866 64.709 103.853C64.8099 104.055 65.1883 104.865 65.9702 105.118C67.2567 105.536 68.7576 104.163 69.1234 103.853C71.5828 101.727 75.4927 101.834 82.3665 100.056C93.0493 97.2915 102.698 92.0971 103.177 91.8313C105.706 90.452 108.443 88.7881 108.853 89.3005C109.332 89.9016 106.374 93.0904 105.069 94.3621C99.1727 100.101 93.4844 99.3351 82.9971 102.587C74.8431 105.118 55.6406 112.603 51.4658 115.241C51.1001 115.475 49.7505 116.361 48.9433 115.874C48.1109 115.374 48.2875 113.678 48.3127 113.343C48.7604 107.181 33.0894 75.7165 27.502 46.9099C27.0101 44.3917 26.3417 40.5639 26.2408 40.5829C26.0768 40.6082 27.1993 50.5479 29.3939 60.8292C31.3678 70.0792 33.6065 76.7415 36.3308 84.8717C39.6983 94.9126 39.774 105.877 43.2677 115.874C43.2929 115.95 43.4064 116.253 43.2677 116.506C42.9524 117.076 41.4893 117.146 40.7452 116.506C40.0515 115.905 40.1146 114.786 40.1146 114.608C40.1839 110.173 23.4849 41.8863 23.7183 41.8483C23.7813 41.8357 24.3552 46.7264 26.8714 58.9311C32.0867 84.1947 34.893 97.804 36.9614 103.853C38.0713 107.098 37.8695 110.686 38.8533 113.976C38.9857 114.419 39.3074 115.444 38.8533 115.874C38.3551 116.342 37.0371 116 36.3308 115.241C35.3344 114.172 35.656 112.388 35.7002 112.078C36.5263 106.231 21.1075 42.3671 20.5651 42.481C20.3318 42.5316 22.5138 54.3061 24.3489 63.36C29.4822 88.6805 32.0425 101.341 33.1777 104.485C34.338 107.712 33.947 111.363 35.0695 114.608C35.1011 114.703 35.2146 115.013 35.0695 115.241C34.6912 115.848 32.9002 115.342 32.547 115.241C27.0165 113.678 22.0408 50.9971 18.0426 45.0118C17.8787 44.765 17.33 44.0374 17.412 43.1137C17.5823 41.2409 20.1426 40.6715 23.7183 37.4194C25.0552 36.2047 24.9228 36.0718 25.6102 35.5213C29.5074 32.3768 36.2488 34.509 37.5921 34.8886C42.4857 36.2743 54.1838 36.7108 84.2584 32.3579" fill="url(#paint0_linear_631_1557)"/>
<path d="M16.1508 43.1137C15.5075 40.6272 13.9625 34.49 13.6283 31.0925C13.603 30.8204 13.5652 30.3838 13.6283 29.8271C13.8616 27.7898 15.1418 26.7205 16.7814 24.7655C19.5751 21.4375 20.067 19.5268 21.1958 19.7039C21.5237 19.7545 21.8769 19.976 22.457 20.9693C24.3867 24.253 23.6994 27.2267 24.9795 32.3579C25.0867 32.7944 25.4588 34.2813 25.6102 34.2559C25.8309 34.218 25.73 30.8584 24.9795 27.2963C24.0525 22.8864 22.6967 20.8744 23.7183 19.7039C24.4057 18.9194 25.7111 19.0269 26.2408 19.0712C30.075 19.3813 64.3306 21.7222 71.0152 19.7039C71.5765 19.5331 73.8152 18.7739 76.0602 19.7039C76.2368 19.7799 77.1071 20.1531 77.9521 20.9693C80.544 23.4875 80.4746 27.91 80.4746 28.5617C80.4494 36.4514 88.225 49.9278 88.6728 50.7061C93.5601 59.1842 98.6493 60.0383 113.898 76.6466C114.724 77.5514 118.564 81.7715 117.682 82.9736C117.026 83.8657 114.68 81.8664 111.375 82.3409C106.923 82.9799 106.671 87.2569 100.655 89.9332C98.5925 90.8506 96.2907 91.8756 93.7178 91.1986C89.0196 89.9649 85.5386 83.6253 85.5196 83.6063C83.9683 84.4604 81.6098 85.5487 78.5827 86.1371C71.6585 87.4784 65.9639 85.2576 63.4477 84.239C47.3289 77.7159 37.0371 57.5012 29.3939 42.481C28.8327 41.3738 27.111 37.9446 26.8714 38.0521C26.5183 38.2103 29.6588 46.1253 31.2858 50.0734C35.8074 61.057 39.2506 69.4275 45.7902 79.8101C55.6847 95.5326 63.2207 100.866 64.709 103.853C64.8099 104.055 65.1883 104.865 65.9702 105.118C67.2567 105.536 68.7576 104.163 69.1234 103.853C71.5828 101.727 75.4927 101.834 82.3665 100.056C93.0493 97.2915 102.698 92.0971 103.177 91.8313C105.706 90.4521 108.443 88.7881 108.853 89.3005C109.332 89.9016 106.374 93.0904 105.069 94.3621C99.1727 100.101 93.4844 99.3351 82.9971 102.587C74.8431 105.118 55.6406 112.603 51.4658 115.241C51.1001 115.475 49.7505 116.361 48.9433 115.874C48.1109 115.374 48.2875 113.678 48.3127 113.343C48.7604 107.181 33.0894 75.7165 27.502 46.9099C27.0101 44.3917 26.3417 40.5639 26.2408 40.5829C26.0768 40.6082 27.1993 50.5479 29.3939 60.8292C31.3678 70.0792 33.6065 76.7415 36.3308 84.8717C39.6983 94.9126 39.774 105.877 43.2677 115.874C43.2929 115.95 43.4064 116.253 43.2677 116.506C42.9524 117.076 41.4893 117.146 40.7452 116.506C40.0515 115.905 40.1146 114.786 40.1146 114.608C40.1839 110.173 23.4849 41.8863 23.7183 41.8483C23.7813 41.8357 24.3552 46.7264 26.8714 58.9311C32.0867 84.1947 34.893 97.804 36.9614 103.853C38.0713 107.098 37.8695 110.686 38.8533 113.976C38.9857 114.419 39.3074 115.444 38.8533 115.874C38.3551 116.342 37.0371 116 36.3308 115.241C35.3344 114.172 35.656 112.388 35.7002 112.078C36.5263 106.232 21.1075 42.3671 20.5651 42.481C20.3318 42.5316 22.5138 54.3061 24.3489 63.36C29.4822 88.6805 32.0425 101.341 33.1777 104.485C34.338 107.712 33.947 111.363 35.0695 114.608C35.1011 114.703 35.2146 115.013 35.0695 115.241C34.6912 115.848 32.9002 115.342 32.547 115.241C27.0165 113.678 22.0408 50.9971 18.0426 45.0118C17.8787 44.765 17.33 44.0374 17.412 43.1137C17.5823 41.2409 20.1426 40.6715 23.7183 37.4194C25.0552 36.2047 24.9228 36.0718 25.6102 35.5213C29.5074 32.3768 36.2488 34.509 37.5921 34.8886C42.4857 36.2743 54.1838 36.7108 84.2584 32.3579" stroke="black" stroke-width="0.75" stroke-miterlimit="10"/>
</g>
</g>
<defs>
<linearGradient id="paint0_linear_631_1557" x1="65.7031" y1="19.04" x2="65.7031" y2="116.96" gradientUnits="userSpaceOnUse">
<stop stop-color="#CEEEFF"/>
<stop offset="1" stop-color="#CEF9FF" stop-opacity="0"/>
</linearGradient>
</defs>
</svg>
