<svg width="106" height="97" viewBox="0 0 106 97" fill="none" xmlns="http://www.w3.org/2000/svg">
<g id="Layer_1" clip-path="url(#clip0_630_1269)">
<rect width="106" height="97" fill="url(#paint0_linear_630_1269)"/>
<path id="Vector" d="M52.939 26.289C53.7915 23.2482 3.95345 3.41796 0.373983 9.97106C0.122895 10.4248 0.216323 10.7961 0.373983 12.0101C1.15644 17.9503 0.344787 19.0523 0.373983 28.3339C0.432376 45.3766 3.2469 64.1755 2.39437 68.118C2.36517 68.2418 2.27174 68.6543 2.39437 69.1375C2.94909 71.3297 7.18255 71.9839 8.46135 72.196C8.46135 72.196 22.5865 74.5474 52.939 90.5588C53.2017 90.6944 53.7273 91.0008 53.9492 91.5783C54.4338 92.8336 53.1083 94.4424 52.939 94.6368C48.7289 99.3926 11.1824 74.954 3.4104 73.2155C2.98997 73.1212 1.46008 72.8266 1.39001 72.196C1.30242 71.4181 3.44543 70.1334 5.43078 70.157C8.26866 70.1865 9.55329 72.8678 12.508 75.2604C15.5911 77.7532 17.8742 77.8062 22.6157 79.3384C30.9658 82.0434 30.5221 84.0352 44.8516 90.5588C51.1113 93.4111 54.3112 94.4483 57.9899 93.6173C61.1373 92.9102 62.8131 91.2483 65.0671 89.5393C76.0157 81.2183 96.6049 74.7654 101.457 72.196C101.685 72.0782 102.24 71.7717 102.468 71.1765C102.923 69.992 101.79 68.4657 101.457 68.118C98.9464 65.4897 89.3 74.4059 73.1545 80.3579C66.5269 82.8036 61.5168 83.7465 59.006 88.5198C57.4702 91.4428 56.7637 95.9981 57.9958 96.6817C58.8074 97.1296 60.6935 96.0335 61.0263 94.6427C61.6278 92.1618 55.4382 90.3879 54.9593 87.5003C51.9288 69.1375 48.8924 49.7552 50.9186 34.4509C52.1156 25.3991 53.5521 23.4073 51.9288 20.172C47.9055 12.1279 36.8226 16.2649 19.5851 7.93205C19.5851 7.93205 13.9503 5.20945 4.42059 4.87355C2.94909 4.82051 0.876159 4.8323 0.379822 5.89305C-0.315049 7.36632 2.41188 10.0182 3.4104 10.9965C8.54894 15.9997 21.3836 24.303 45.8618 26.3008C50.4748 26.6779 52.7813 26.8665 52.939 26.3008V26.289Z" fill="url(#paint1_linear_630_1269)" stroke="black" stroke-width="0.75" stroke-miterlimit="10"/>
<path id="Vector_2" d="M54.9592 24.2502C55.3095 23.6726 55.981 23.4958 56.1387 23.4546C57.3883 23.0951 59.3152 21.2859 67.0873 16.0941C84.9145 4.19014 93.9595 -1.71472 100.447 0.789838C101.165 1.06681 103.168 1.86827 104.488 3.84834C107.039 7.67295 105.136 13.0356 104.488 15.0688C104.038 16.4831 104.943 13.9196 103.478 61.9953C103.156 72.426 103.005 76.2447 102.467 76.2742C101.638 76.3214 99.793 67.3167 99.4368 57.9114C98.6835 38.1814 104.949 29.0648 101.457 10.9849C100.61 6.59452 99.6295 3.9662 97.4164 2.82295C94.8588 1.50879 90.7479 2.22775 75.1805 14.0434C64.1793 22.3938 57.8263 25.0246 56.1387 27.8003C51.7067 35.09 53.8147 42.1651 54.965 69.1318C56.0336 94.2304 58.4569 84.4184 59.0058 84.4361C60.5415 84.4833 104.318 73.2616 101.457 62.984C102.583 39.0199 108.444 8.89162 103.478 5.17672C89.9895 -1.80979 55.8607 28.9491 54.965 26.2892C54.8716 26.0063 54.5037 25.0045 54.965 24.2502H54.9592Z" fill="url(#paint2_linear_630_1269)" stroke="black" stroke-width="0.75" stroke-miterlimit="10"/>
</g>
<defs>
<linearGradient id="paint0_linear_630_1269" x1="53" y1="0" x2="53" y2="97" gradientUnits="userSpaceOnUse">
<stop stop-color="white"/>
<stop offset="1" stop-color="white" stop-opacity="0"/>
</linearGradient>
<linearGradient id="paint1_linear_630_1269" x1="17.6085" y1="12.1323" x2="80.458" y2="96.2319" gradientUnits="userSpaceOnUse">
<stop stop-color="#DDFFE3"/>
<stop offset="1" stop-color="#F8CDFF" stop-opacity="0.49"/>
</linearGradient>
<linearGradient id="paint2_linear_630_1269" x1="79.8261" y1="0.222168" x2="79.8261" y2="86.3108" gradientUnits="userSpaceOnUse">
<stop stop-color="#A0DBB0"/>
<stop offset="1" stop-color="#D9D9D9" stop-opacity="0"/>
</linearGradient>
<clipPath id="clip0_630_1269">
<rect width="106" height="97" fill="white"/>
</clipPath>
</defs>
</svg>
