<svg width="156" height="156" viewBox="0 0 156 156" fill="none" xmlns="http://www.w3.org/2000/svg">
<g id="Layer_1">
<g id="Vector">
<path d="M11.0117 131.224H130.306H11.0117Z" fill="white"/>
<path d="M11.0117 131.224H130.306" stroke="black" stroke-width="0.75" stroke-miterlimit="10"/>
</g>
<path id="Vector_2" d="M63.7571 107.419C63.4617 107.528 62.7187 107.693 59.4903 105.235C55.5754 102.25 51.1305 98.8644 48.5843 93.0729C45.5558 86.1805 46.9549 79.7754 48.5843 71.9736C49.7314 66.4823 50.2745 67.6702 53.6419 56.7833C57.9087 42.9811 58.3519 36.8197 56.1707 31.4633C55.6884 30.2841 54.2372 27.0685 53.6419 27.2425C53.0553 27.4122 53.177 30.9411 54.4848 33.9957C56.1273 37.8292 59.0558 39.5436 60.3854 40.7489C65.0302 44.9566 62.9359 53.2153 60.3854 66.0689C58.4997 75.559 57.0614 77.0602 57.8566 81.2592C58.8559 86.5199 61.7758 87.3988 68.8148 95.6097C76.4012 104.456 83.3663 115.395 91.5697 120.086C92.795 120.786 94.2853 121.482 94.9414 120.93C95.3586 120.577 95.8235 119.407 92.4126 112.488C88.8845 105.33 85.0174 97.4807 82.2974 98.1378C80.6724 98.5294 79.5687 101.941 80.6115 103.203C81.9107 104.769 86.8162 103.355 89.8838 101.514C99.621 95.6749 103.671 77.8652 100.842 65.2204C100.268 62.6619 98.7564 57.3794 99.9991 56.779C100.616 56.4787 101.941 57.3316 102.528 58.4673C104.687 62.6358 97.2052 71.099 94.9414 73.6575C91.0439 78.0697 88.5847 79.4056 88.198 82.9431C87.8808 85.8672 89.1321 88.8913 89.8838 88.8522C90.4834 88.8217 90.831 86.8506 91.5697 81.2548C93.7422 64.8288 92.9645 65.0986 94.0985 62.688C97.3877 55.6955 102.228 57.0139 104.214 50.0258C105.178 46.6231 105.057 42.7026 107.585 41.5843C108.702 41.0926 110.04 41.2754 110.114 41.5843C110.258 42.1892 105.487 42.9158 100.842 45.8051C95.0283 49.421 92.2953 54.6294 90.7268 57.6231C89.4797 60.0032 85.8082 67.0088 88.198 69.4411C88.8627 70.1156 89.9968 70.6726 90.7268 70.2853C92.6777 69.254 91.4611 61.7438 89.0409 55.9348C87.0031 51.044 84.7393 48.8597 83.9833 43.2726C83.7921 41.8715 83.5531 39.152 83.9833 39.0519C84.4221 38.9518 85.378 41.5756 85.6691 42.4285C87.455 47.7153 86.5338 53.2544 84.8262 59.307C82.2279 68.5361 81.0417 67.5005 79.7686 73.6575C78.2304 81.0895 78.4303 89.9878 80.6115 90.5361C81.1981 90.684 81.915 90.2185 82.2974 89.6919C84.018 87.3292 79.6382 83.0389 76.3968 74.5017C74.8283 70.368 73.8637 67.8312 73.868 64.3719C73.8724 58.4107 76.7401 58.415 78.9257 49.1816C78.9257 49.1816 80.3595 43.1203 80.6115 34.8312C80.681 32.4771 80.3291 31.8984 80.6202 30.11C80.6463 29.9403 80.6724 29.8054 80.6115 29.7663C80.1205 29.4486 74.6806 34.7659 72.1822 41.5843C69.5795 48.6769 70.7222 55.8782 71.3392 55.9348C71.8085 55.974 72.7427 51.9708 73.0251 48.3375C73.5552 41.5539 71.5217 39.809 71.3392 31.4589C71.235 26.7117 71.8215 23.9617 71.3392 23.8616C70.6049 23.7093 68.4281 29.9621 67.1245 35.6797C65.6994 41.9237 63.3053 52.3972 66.2816 64.3763C67.7676 70.3549 69.649 72.9352 71.3392 82.099C72.1865 86.707 72.6732 91.2715 72.1822 91.3846C71.6173 91.5108 71.5434 85.2667 67.1245 78.7224C64.8738 75.3937 62.3189 73.2006 62.9099 70.2809C63.1793 68.9451 64.0743 67.6354 64.5957 67.7485C65.6429 67.9748 64.8564 73.8055 64.5957 81.2548C64.0222 97.6678 66.551 106.392 63.7528 107.419H63.7571Z" fill="url(#paint0_linear_631_1560)" stroke="black" stroke-width="0.75" stroke-miterlimit="10"/>
<path id="Vector_3" d="M73.2072 112.017C70.0719 111.833 66.462 111.618 62.225 110.316C59.5905 109.505 58.4278 108.799 57.1563 109.465C55.3796 110.395 54.4783 113.433 55.4667 115.419C56.207 116.91 57.8225 117.418 59.6907 117.971C72.1839 121.671 76.1334 121.518 79.1163 120.523C79.7826 120.299 80.8799 119.874 81.6507 118.821C82.8874 117.129 82.9135 114.323 81.6507 112.867C80.3617 111.381 78.6286 112.337 73.2028 112.017H73.2072Z" fill="#DCC9B3" stroke="black" stroke-width="0.75" stroke-miterlimit="10"/>
<path id="Vector_4" d="M95.5839 109.098C97.4448 110.523 97.2796 113.277 97.2579 113.578C97.0274 116.707 94.223 118.502 94.0448 118.616C92.7317 119.426 91.9664 119.256 86.1576 119.661C83.314 119.858 81.8618 119.962 80.4052 120.219C77.1573 120.79 73.7224 121.932 73.8051 122.385C73.9138 123 80.7661 123.697 87.7663 122.25C89.2924 121.936 91.1447 121.453 92.3012 122.464C93.4752 123.483 93.6317 125.758 92.8578 127.362C92.3664 128.386 91.5621 128.992 91.0403 129.318C86.3358 132.295 81.4444 127.462 73.6616 128.822C72.9268 128.952 71.6659 129.223 71.0093 128.543C70.0876 127.588 71.1963 125.627 71.918 122.455C73.1181 117.212 71.505 116.38 72.7572 114.48C74.7877 111.403 78.5313 114.314 85.4619 110.989C87.7489 109.891 91.1447 107.747 94.0491 108.405C94.7969 108.575 95.2883 108.876 95.5839 109.107V109.098Z" fill="#DCC9B3" stroke="black" stroke-width="0.75" stroke-miterlimit="10"/>
<path id="Vector_5" d="M63.3871 118.957C62.313 118.574 60.3298 117.869 58.4649 118.957C56.3633 120.189 56.0546 122.744 56.0039 123.179C55.9827 123.362 55.6909 126.161 57.6446 128.246C59.6024 130.331 63.3405 131.202 65.8481 129.091C67.7595 127.48 68.4191 124.581 67.4888 122.335C66.5585 120.089 64.3766 119.31 63.3871 118.957Z" fill="#DCC9B3" stroke="black" stroke-width="0.75" stroke-miterlimit="10"/>
</g>
<defs>
<linearGradient id="paint0_linear_631_1560" x1="78.4586" y1="23.8589" x2="78.4586" y2="118.173" gradientUnits="userSpaceOnUse">
<stop stop-color="#FFD4D4"/>
<stop offset="1" stop-color="#D9D9D9" stop-opacity="0"/>
</linearGradient>
</defs>
</svg>
