<svg width="156" height="156" viewBox="0 0 156 156" fill="none" xmlns="http://www.w3.org/2000/svg">
<g clip-path="url(#clip0_630_1543)">
<rect width="106" height="97" transform="translate(25 29.5)" fill="url(#paint0_linear_630_1543)"/>
<path d="M77.939 55.789C78.7915 52.7482 28.9534 32.918 25.374 39.4711C25.1229 39.9248 25.2163 40.2961 25.374 41.5101C26.1564 47.4503 25.3448 48.5523 25.374 57.8339C25.4324 74.8766 28.2469 93.6755 27.3944 97.618C27.3652 97.7418 27.2717 98.1543 27.3944 98.6375C27.9491 100.83 32.1826 101.484 33.4614 101.696C33.4614 101.696 47.5865 104.047 77.939 120.059C78.2017 120.194 78.7273 120.501 78.9492 121.078C79.4338 122.334 78.1083 123.942 77.939 124.137C73.7289 128.893 36.1824 104.454 28.4104 102.716C27.99 102.621 26.4601 102.327 26.39 101.696C26.3024 100.918 28.4454 99.6334 30.4308 99.657C33.2687 99.6865 34.5533 102.368 37.508 104.76C40.5911 107.253 42.8742 107.306 47.6157 108.838C55.9658 111.543 55.5221 113.535 69.8516 120.059C76.1113 122.911 79.3112 123.948 82.9899 123.117C86.1373 122.41 87.8131 120.748 90.0671 119.039C101.016 110.718 121.605 104.265 126.457 101.696C126.685 101.578 127.24 101.272 127.468 100.677C127.923 99.492 126.79 97.9657 126.457 97.618C123.946 94.9897 114.3 103.906 98.1545 109.858C91.5269 112.304 86.5168 113.246 84.006 118.02C82.4702 120.943 81.7637 125.498 82.9958 126.182C83.8074 126.63 85.6935 125.534 86.0263 124.143C86.6278 121.662 80.4382 119.888 79.9593 117C76.9288 98.6375 73.8924 79.2552 75.9186 63.9509C77.1156 54.8991 78.5521 52.9073 76.9288 49.672C72.9055 41.6279 61.8226 45.7649 44.5851 37.4321C44.5851 37.4321 38.9503 34.7095 29.4206 34.3735C27.9491 34.3205 25.8762 34.3323 25.3798 35.393C24.685 36.8663 27.4119 39.5182 28.4104 40.4965C33.5489 45.4997 46.3836 53.803 70.8618 55.8008C75.4748 56.1779 77.7813 56.3665 77.939 55.8008V55.789Z" fill="url(#paint1_linear_630_1543)" stroke="black" stroke-width="0.75" stroke-miterlimit="10"/>
<path d="M79.9592 53.7502C80.3095 53.1726 80.981 52.9958 81.1387 52.9546C82.3883 52.5951 84.3152 50.7859 92.0873 45.5941C109.915 33.6901 118.96 27.7853 125.447 30.2898C126.165 30.5668 128.168 31.3683 129.488 33.3483C132.039 37.1729 130.136 42.5356 129.488 44.5688C129.038 45.9831 129.943 43.4196 128.478 91.4953C128.156 101.926 128.005 105.745 127.467 105.774C126.638 105.821 124.793 96.8167 124.437 87.4114C123.683 67.6814 129.949 58.5648 126.457 40.4849C125.61 36.0945 124.629 33.4662 122.416 32.3229C119.859 31.0088 115.748 31.7277 100.18 43.5434C89.1793 51.8938 82.8263 54.5246 81.1387 57.3003C76.7067 64.59 78.8147 71.6651 79.965 98.6318C81.0336 123.73 83.4569 113.918 84.0058 113.936C85.5415 113.983 129.318 102.762 126.457 92.484C127.583 68.5199 133.444 38.3916 128.478 34.6767C114.99 27.6902 80.8607 58.4491 79.965 55.7892C79.8716 55.5063 79.5037 54.5045 79.965 53.7502H79.9592Z" fill="url(#paint2_linear_630_1543)" stroke="black" stroke-width="0.75" stroke-miterlimit="10"/>
</g>
<defs>
<linearGradient id="paint0_linear_630_1543" x1="53" y1="0" x2="53" y2="97" gradientUnits="userSpaceOnUse">
<stop stop-color="white"/>
<stop offset="1" stop-color="white" stop-opacity="0"/>
</linearGradient>
<linearGradient id="paint1_linear_630_1543" x1="42.6085" y1="41.6323" x2="105.458" y2="125.732" gradientUnits="userSpaceOnUse">
<stop stop-color="#DDFFE3"/>
<stop offset="1" stop-color="#F8CDFF" stop-opacity="0.49"/>
</linearGradient>
<linearGradient id="paint2_linear_630_1543" x1="104.826" y1="29.7222" x2="104.826" y2="115.811" gradientUnits="userSpaceOnUse">
<stop stop-color="#A0DBB0"/>
<stop offset="1" stop-color="#D9D9D9" stop-opacity="0"/>
</linearGradient>
<clipPath id="clip0_630_1543">
<rect width="106" height="97" fill="white" transform="translate(25 29.5)"/>
</clipPath>
</defs>
</svg>
