<svg width="178" height="49" viewBox="0 0 178 49" fill="none" xmlns="http://www.w3.org/2000/svg">
<path d="M9.52412 0.694572C7.05195 1.20321 4.84086 2.67302 3.42935 4.62189C2.00153 6.56244 1.23458 8.82892 0.827445 11.1098C0.426839 13.399 0.459479 15.7186 0.581864 18.0002C0.842136 22.6015 1.84651 27.142 3.55908 31.4628C4.42475 33.6231 5.45279 35.716 6.67664 37.724C7.9168 39.726 9.3691 41.6051 10.9683 43.3645C12.5919 45.092 14.3298 46.8203 16.6632 47.8892C17.2507 48.162 17.8953 48.3288 18.5643 48.4205C19.266 48.4887 19.9432 48.3826 20.5632 48.2075C21.8116 47.852 22.913 47.2456 23.9492 46.5853C25.3852 45.6613 26.707 44.5925 27.9471 43.4782C28.4775 42.9847 29.0078 42.492 29.5218 41.9925C29.6116 41.9091 29.6932 41.8174 29.7911 41.7272C31.3902 40.1429 32.8833 38.4593 34.3193 36.7538C37.3463 33.1228 40.1285 29.3403 42.6415 25.3986C45.1463 21.4576 47.5287 17.4325 49.3156 13.1262C50.2294 10.9961 50.7271 8.52495 50.107 6.17583C49.8051 5.00772 49.1932 3.86387 48.1651 3.03687C47.1453 2.21138 45.7338 1.85435 44.4202 1.93016C43.0902 1.99838 41.899 2.4388 40.7568 2.90119C39.6063 3.39391 38.5049 3.98439 37.5095 4.69012C35.4942 6.07654 33.7808 7.82076 32.3522 9.6999C29.4892 13.4976 27.5474 17.7728 26.029 22.1239C24.5612 26.4674 23.1333 30.9481 23.312 35.6243C23.3699 36.7841 23.5168 37.9363 23.9003 39.0665C24.0308 39.4448 24.2022 39.8245 24.398 40.18C23.312 41.1738 22.2032 42.091 21.1262 42.8028C20.3511 43.3038 18.9396 43.9171 18.9396 43.9171C18.9396 43.9171 18.7927 43.8875 18.703 43.8345C18.2053 43.6753 17.4384 43.1818 16.704 42.5989C15.9689 42.022 15.2191 41.3247 14.4938 40.5666C13.7741 39.8245 13.008 38.9748 12.3879 38.1796C11.7271 37.3905 11.1314 36.5271 10.544 35.663C9.4099 33.896 8.3737 32.0396 7.50069 30.0983C5.75548 26.2256 4.63689 22.0564 4.1963 17.8107C4.04128 16.7578 3.99314 15.6663 3.92705 14.6271C3.88626 13.6037 3.91971 12.5811 4.0168 11.5806C4.23709 9.58695 4.77559 7.66081 5.76283 6.10762C6.74191 4.55367 8.17055 3.37873 10.0789 2.81703C11.98 2.22653 13.9545 2.38498 15.88 3.26429C17.79 4.14435 19.5018 5.68314 20.9549 7.40385C22.4317 9.13139 23.7289 11.0803 24.7488 13.1262L24.7578 13.1565C24.8141 13.2634 24.9609 13.324 25.0833 13.2861C25.222 13.2323 25.2873 13.0958 25.2383 12.9753C24.4306 10.7914 23.3373 8.71522 21.9992 6.77392C20.6367 4.8637 18.9804 3.05278 16.8346 1.8172C15.7658 1.19562 14.559 0.747643 13.3099 0.558136C12.8204 0.478542 12.3259 0.441406 11.8315 0.441406C11.0564 0.441406 10.2813 0.532356 9.52412 0.694572ZM26.3806 36.9516C26.339 36.4816 26.3235 35.9965 26.339 35.503C26.3806 33.5254 26.7967 31.4628 27.3923 29.4161C27.6942 28.3776 28.0369 27.3694 28.4367 26.3234C28.8193 25.2856 29.1628 24.2312 29.6034 23.2155L30.2145 21.6843L30.9007 20.191C31.325 19.1828 31.8716 18.2428 32.3522 17.2801C33.4137 15.4078 34.5723 13.6196 35.8777 12.0505C37.0044 10.6959 38.274 9.43157 39.7442 8.39383C40.8816 7.59033 43.1131 5.82868 44.6592 6.52454C45.7354 7.00892 45.6758 8.19977 45.4302 9.12153C45.3511 9.41716 45.2605 9.69913 45.1871 9.94625C44.421 12.5182 43.1017 14.8992 41.7522 17.243C40.6499 19.16 39.475 21.0634 38.2356 22.9433C35.7471 26.6796 33.1118 30.3636 30.2806 33.843C29.0812 35.3067 27.8492 36.7318 26.552 38.0651C26.4785 37.7392 26.4133 37.3534 26.3806 36.9516Z" fill="url(#paint0_linear_478_1215)"/>
<path d="M57.7767 30.5484L57.7668 30.5681C56.3468 32.4685 54.474 34.0064 52.5063 35.3841C50.5278 36.7413 48.4345 37.969 46.2883 39.0641C44.1314 40.1504 41.9018 41.1452 39.6805 41.8692C39.4079 41.9608 39.1344 42.0405 38.8816 42.1108C38.6082 42.1826 38.3868 42.2221 38.082 42.2821C37.5137 42.4029 36.9453 42.4834 36.3778 42.5537C35.2419 42.6942 34.1267 42.7148 33.042 42.635C31.9169 42.5442 30.843 42.2924 29.9277 41.8795C29.8335 41.9805 29.7493 42.0705 29.6551 42.1613C29.1388 42.6848 28.6027 43.198 28.0665 43.7103C29.5807 44.4541 31.3064 44.7959 32.9793 44.837C34.2415 44.867 35.5153 44.7557 36.7454 44.5338C37.9771 44.3135 39.2286 44.0419 40.3959 43.569C42.7213 42.6548 44.9203 41.5179 47.0566 40.2807C49.192 39.0349 51.2432 37.6769 53.1688 36.1381C55.0845 34.6002 56.8928 32.8909 58.2195 30.8192C58.2922 30.7086 58.2608 30.5681 58.1451 30.4868C58.1014 30.4568 58.0493 30.4418 57.9973 30.4418C57.9138 30.4418 57.8296 30.4797 57.7767 30.5484Z" fill="url(#paint1_linear_478_1215)"/>
<path d="M71.5993 37.6544V12.5512H76.0535V33.8424H86.8829V37.6544H71.5993Z" fill="black"/>
<path d="M93.1183 12.5512L98.533 21.7443H98.7251L104.164 12.5512H109.242L101.667 25.1028L109.362 37.6544H104.2L98.7251 28.5226H98.533L93.0583 37.6544H87.9197L95.6876 25.1028L88.0158 12.5512H93.1183Z" fill="black"/>
<path d="M119.719 37.6544H111.387V12.5512H119.887C122.328 12.5512 124.425 13.0538 126.178 14.0589C127.939 15.0558 129.292 16.4899 130.236 18.3612C131.181 20.2325 131.653 22.4716 131.653 25.0783C131.653 27.6932 131.177 29.9404 130.224 31.8199C129.28 33.6994 127.915 35.1416 126.13 36.1468C124.353 37.1519 122.216 37.6544 119.719 37.6544ZM115.841 33.7198H119.503C121.216 33.7198 122.644 33.4011 123.789 32.7637C124.933 32.1182 125.794 31.158 126.37 29.8832C126.946 28.6003 127.235 26.9986 127.235 25.0783C127.235 23.158 126.946 21.5645 126.37 20.2979C125.794 19.0231 124.941 18.0711 123.813 17.4419C122.692 16.8045 121.3 16.4858 119.635 16.4858H115.841V33.7198Z" fill="black"/>
<path d="M136.369 37.6544H131.615L140.271 12.5512H145.77L154.438 37.6544H149.684L143.117 17.6993H142.925L136.369 37.6544ZM136.525 27.8117H149.492V31.4644H136.525V27.8117Z" fill="black"/>
<path d="M177.14 25.1028C177.14 27.8076 176.644 30.1243 175.651 32.0528C174.667 33.9731 173.322 35.444 171.617 36.4654C169.92 37.4869 167.995 37.9976 165.842 37.9976C163.689 37.9976 161.76 37.4869 160.055 36.4654C158.359 35.4358 157.014 33.9608 156.021 32.0405C155.037 30.112 154.545 27.7994 154.545 25.1028C154.545 22.398 155.037 20.0854 156.021 18.1651C157.014 16.2366 158.359 14.7616 160.055 13.7402C161.76 12.7187 163.689 12.208 165.842 12.208C167.995 12.208 169.92 12.7187 171.617 13.7402C173.322 14.7616 174.667 16.2366 175.651 18.1651C176.644 20.0854 177.14 22.398 177.14 25.1028ZM172.662 25.1028C172.662 23.1988 172.37 21.5931 171.785 20.2856C171.209 18.97 170.409 17.9772 169.384 17.3071C168.36 16.6289 167.179 16.2897 165.842 16.2897C164.506 16.2897 163.325 16.6289 162.301 17.3071C161.276 17.9772 160.472 18.97 159.887 20.2856C159.311 21.5931 159.023 23.1988 159.023 25.1028C159.023 27.0068 159.311 28.6166 159.887 29.9322C160.472 31.2397 161.276 32.2326 162.301 32.9108C163.325 33.5809 164.506 33.9159 165.842 33.9159C167.179 33.9159 168.36 33.5809 169.384 32.9108C170.409 32.2326 171.209 31.2397 171.785 29.9322C172.37 28.6166 172.662 27.0068 172.662 25.1028Z" fill="black"/>
<defs>
<linearGradient id="paint0_linear_478_1215" x1="52.3672" y1="24.4413" x2="-1.45258" y2="24.4413" gradientUnits="userSpaceOnUse">
<stop stop-color="#00FB8C"/>
<stop offset="0.0971267" stop-color="#64CCEB"/>
<stop offset="0.276683" stop-color="#64CCEB"/>
<stop offset="0.319606" stop-color="#64CCEB"/>
<stop offset="0.697546" stop-color="#0F39D9"/>
<stop offset="0.806149" stop-color="#0F39D9"/>
<stop offset="1" stop-color="#64CCEB"/>
</linearGradient>
<linearGradient id="paint1_linear_478_1215" x1="51.5963" y1="41.7831" x2="35.21" y2="31.8842" gradientUnits="userSpaceOnUse">
<stop stop-color="#00FB8C"/>
<stop offset="0.0958371" stop-color="#64CCEB"/>
<stop offset="0.477009" stop-color="#64CCEB"/>
<stop offset="0.646695" stop-color="#64CCEB"/>
<stop offset="1" stop-color="#0F39D9"/>
</linearGradient>
</defs>
</svg>
