<svg width="207" height="57" viewBox="0 0 207 57" fill="none" xmlns="http://www.w3.org/2000/svg">
<path d="M10.5281 0.593216C7.64394 1.18662 5.06434 2.9014 3.41758 5.17509C1.75178 7.43906 0.857009 10.0833 0.38202 12.7443C-0.085355 15.4151 -0.0472748 18.1212 0.0955077 20.7832C0.399158 26.1512 1.57093 31.4486 3.56893 36.4894C4.57888 39.0099 5.77825 41.4516 7.20608 43.7943C8.65294 46.1299 10.3473 48.3222 12.213 50.3748C14.1072 52.3903 16.1347 54.4066 18.8571 55.6536C19.5425 55.9719 20.2945 56.1665 21.075 56.2735C21.8936 56.3531 22.6837 56.2293 23.4071 56.025C24.8635 55.6102 26.1485 54.9027 27.3574 54.1325C29.0327 53.0544 30.5748 51.8075 32.0217 50.5075C32.6404 49.9317 33.2591 49.3569 33.8588 48.7741C33.9635 48.6768 34.0587 48.5698 34.1729 48.4646C36.0386 46.6163 37.7806 44.6521 39.4559 42.6623C42.9874 38.4262 46.2333 34.0132 49.1651 29.4145C52.0874 24.8167 54.8669 20.1208 56.9515 15.0967C58.0176 12.6117 58.5982 9.72866 57.8748 6.98802C57.5226 5.62522 56.8087 4.29073 55.6093 3.32589C54.4195 2.36282 52.7727 1.94629 51.2402 2.03473C49.6886 2.11432 48.2989 2.62814 46.9662 3.1676C45.6241 3.74244 44.339 4.43134 43.1777 5.25468C40.8266 6.87218 38.8276 8.9071 37.1609 11.0994C33.8207 15.5301 31.5552 20.5179 29.7838 25.5941C28.0714 30.6615 26.4056 35.8889 26.614 41.3446C26.6816 42.6976 26.8529 44.0419 27.3003 45.3605C27.4526 45.8018 27.6525 46.2448 27.881 46.6596C26.614 47.819 25.3204 48.8891 24.0639 49.7195C23.1596 50.304 21.5129 51.0195 21.5129 51.0195C21.5129 51.0195 21.3415 50.985 21.2368 50.9231C20.6562 50.7374 19.7614 50.1617 18.9047 49.4816C18.0471 48.8086 17.1723 47.995 16.3261 47.1106C15.4865 46.2448 14.5927 45.2534 13.8693 44.3258C13.0982 43.4051 12.4034 42.3979 11.718 41.3897C10.3949 39.3282 9.18599 37.1624 8.16747 34.8976C6.13139 30.3794 4.82637 25.5154 4.31235 20.5621C4.13149 19.3337 4.07533 18.0602 3.99823 16.8478C3.95063 15.6539 3.98966 14.4609 4.10293 13.2935C4.35994 10.9677 4.98819 8.72049 6.13996 6.90843C7.28222 5.09549 8.94897 3.72473 11.1754 3.06942C13.3933 2.3805 15.6969 2.56535 17.9433 3.59121C20.1717 4.61796 22.1687 6.41321 23.864 8.42071C25.5869 10.4362 27.1004 12.7098 28.2903 15.0967L28.3008 15.1321C28.3664 15.2568 28.5378 15.3276 28.6805 15.2833C28.8424 15.2205 28.9185 15.0614 28.8614 14.9207C27.919 12.3729 26.6435 9.95063 25.0824 7.68578C23.4928 5.45719 21.5605 3.34445 19.057 1.90294C17.8101 1.17777 16.4022 0.655128 14.9449 0.434036C14.3738 0.341179 13.7969 0.297852 13.2201 0.297852C12.3158 0.297852 11.4115 0.403961 10.5281 0.593216ZM30.1941 42.8931C30.1455 42.3448 30.1274 41.7788 30.1455 41.2031C30.194 38.8958 30.6795 36.4894 31.3744 34.1017C31.7266 32.8901 32.1264 31.7139 32.5928 30.4935C33.0392 29.2828 33.44 28.0526 33.954 26.8676L34.6669 25.0812L35.4675 23.339C35.9625 22.1628 36.6002 21.0662 37.1609 19.943C38.3993 17.7587 39.751 15.6724 41.274 13.8418C42.5885 12.2615 44.0697 10.7864 45.7849 9.57568C47.1119 8.63826 49.7153 6.583 51.5191 7.39485C52.7746 7.95995 52.7051 9.34928 52.4186 10.4247C52.3263 10.7696 52.2206 11.0985 52.135 11.3868C51.2411 14.3875 49.7019 17.1653 48.1275 19.8997C46.8415 22.1362 45.4708 24.3569 44.0249 26.5501C41.1217 30.9091 38.0471 35.2071 34.7441 39.2663C33.3448 40.974 31.9074 42.6366 30.3939 44.1922C30.3083 43.8119 30.2321 43.3618 30.1941 42.8931Z" fill="url(#paint0_linear_634_1573)"/>
<path d="M66.8228 35.423L66.8113 35.446C65.1546 37.6631 62.9697 39.4574 60.674 41.0647C58.3658 42.6481 55.9236 44.0804 53.4197 45.3579C50.9033 46.6254 48.3021 47.786 45.7106 48.6306C45.3925 48.7375 45.0735 48.8305 44.7786 48.9125C44.4596 48.9963 44.2013 49.0423 43.8457 49.1123C43.1826 49.2532 42.5195 49.3472 41.8574 49.4292C40.5322 49.5932 39.2311 49.6171 37.9657 49.5241C36.6531 49.4181 35.4002 49.1243 34.3323 48.6426C34.2225 48.7605 34.1241 48.8655 34.0143 48.9714C33.4119 49.5821 32.7864 50.1808 32.1609 50.7786C33.9275 51.6463 35.9409 52.0451 37.8925 52.093C39.3651 52.128 40.8512 51.9981 42.2863 51.7393C43.7233 51.4823 45.1834 51.1655 46.5452 50.6137C49.2582 49.5471 51.8237 48.2207 54.316 46.7774C56.8074 45.3239 59.2004 43.7396 61.4469 41.9444C63.6819 40.1501 65.7916 38.1559 67.3394 35.7389C67.4242 35.61 67.3876 35.446 67.2527 35.3511C67.2016 35.3161 67.1409 35.2986 67.0802 35.2986C66.9828 35.2986 66.8845 35.3428 66.8228 35.423Z" fill="url(#paint1_linear_634_1573)"/>
<path d="M82.9492 43.7138V14.4268H88.1458V39.2664H100.78V43.7138H82.9492Z" fill="black"/>
<path d="M108.055 14.4268L114.372 25.152H114.596L120.941 14.4268H126.866L118.028 29.0703L127.006 43.7138H120.983L114.596 33.0601H114.372L107.985 43.7138H101.99L111.052 29.0703L102.102 14.4268H108.055Z" fill="black"/>
<path d="M139.089 43.7138H129.368V14.4268H139.285C142.133 14.4268 144.579 15.0131 146.624 16.1857C148.679 17.3488 150.257 19.0219 151.359 21.2051C152.461 23.3883 153.012 26.0005 153.012 29.0417C153.012 32.0924 152.456 34.7142 151.345 36.9069C150.243 39.0996 148.651 40.7823 146.568 41.9549C144.495 43.1275 142.002 43.7138 139.089 43.7138ZM134.564 39.1234H138.837C140.835 39.1234 142.502 38.7516 143.837 38.008C145.172 37.2549 146.176 36.1347 146.849 34.6474C147.521 33.1507 147.857 31.2821 147.857 29.0417C147.857 26.8013 147.521 24.9423 146.849 23.4646C146.176 21.9773 145.182 20.8667 143.865 20.1326C142.558 19.389 140.933 19.0172 138.991 19.0172H134.564V39.1234Z" fill="black"/>
<path d="M158.514 43.7138H152.968L163.067 14.4268H169.482L179.595 43.7138H174.048L166.386 20.4329H166.162L158.514 43.7138ZM158.696 32.2307H173.824V36.4922H158.696V32.2307Z" fill="black"/>
<path d="M206.08 29.0703C206.08 32.2259 205.501 34.9287 204.343 37.1786C203.195 39.419 201.626 41.135 199.637 42.3267C197.657 43.5184 195.411 44.1143 192.899 44.1143C190.388 44.1143 188.137 43.5184 186.148 42.3267C184.168 41.1255 182.6 39.4047 181.442 37.1643C180.293 34.9144 179.719 32.2164 179.719 29.0703C179.719 25.9147 180.293 23.2167 181.442 20.9763C182.6 18.7264 184.168 17.0056 186.148 15.8139C188.137 14.6222 190.388 14.0264 192.899 14.0264C195.411 14.0264 197.657 14.6222 199.637 15.8139C201.626 17.0056 203.195 18.7264 204.343 20.9763C205.501 23.2167 206.08 25.9147 206.08 29.0703ZM200.855 29.0703C200.855 26.849 200.515 24.9757 199.833 23.4503C199.161 21.9154 198.227 20.7571 197.032 19.9753C195.836 19.184 194.459 18.7884 192.899 18.7884C191.34 18.7884 189.963 19.184 188.767 19.9753C187.572 20.7571 186.634 21.9154 185.952 23.4503C185.28 24.9757 184.944 26.849 184.944 29.0703C184.944 31.2916 185.28 33.1697 185.952 34.7046C186.634 36.23 187.572 37.3883 188.767 38.1796C189.963 38.9614 191.34 39.3522 192.899 39.3522C194.459 39.3522 195.836 38.9614 197.032 38.1796C198.227 37.3883 199.161 36.23 199.833 34.7046C200.515 33.1697 200.855 31.2916 200.855 29.0703Z" fill="black"/>
<defs>
<linearGradient id="paint0_linear_634_1573" x1="60.5118" y1="28.2977" x2="-2.27801" y2="28.2977" gradientUnits="userSpaceOnUse">
<stop stop-color="#00FB8C"/>
<stop offset="0.0971267" stop-color="#64CCEB"/>
<stop offset="0.276683" stop-color="#64CCEB"/>
<stop offset="0.319606" stop-color="#64CCEB"/>
<stop offset="0.697546" stop-color="#0F39D9"/>
<stop offset="0.806149" stop-color="#0F39D9"/>
<stop offset="1" stop-color="#64CCEB"/>
</linearGradient>
<linearGradient id="paint1_linear_634_1573" x1="59.6123" y1="48.5302" x2="40.495" y2="36.9815" gradientUnits="userSpaceOnUse">
<stop stop-color="#00FB8C"/>
<stop offset="0.0958371" stop-color="#64CCEB"/>
<stop offset="0.477009" stop-color="#64CCEB"/>
<stop offset="0.646695" stop-color="#64CCEB"/>
<stop offset="1" stop-color="#0F39D9"/>
</linearGradient>
</defs>
</svg>
