<svg width="44" height="45" viewBox="0 0 44 45" fill="none" xmlns="http://www.w3.org/2000/svg">
<g id="MediumLogo" clip-path="url(#clip0_478_1290)">
<path id="Vector" d="M23.375 22.9297C23.375 25.1053 22.7299 27.232 21.5212 29.041C20.3125 30.8499 18.5945 32.2598 16.5845 33.0924C14.5745 33.9249 12.3628 34.1428 10.229 33.7183C8.09522 33.2939 6.13521 32.2462 4.59683 30.7079C3.05845 29.1695 2.0108 27.2095 1.58637 25.0757C1.16193 22.9419 1.37977 20.7302 2.21233 18.7202C3.04489 16.7102 4.45479 14.9922 6.26373 13.7835C8.07267 12.5748 10.1994 11.9297 12.375 11.9297C15.2914 11.9329 18.0875 13.0928 20.1497 15.155C22.2119 17.2172 23.3718 20.0133 23.375 22.9297ZM31.625 11.9297C30.6488 11.9297 28.8063 12.4041 27.445 15.582C26.5942 17.5672 26.125 20.1797 26.125 22.9297C26.125 25.6797 26.5942 28.2922 27.445 30.2773C28.8063 33.4553 30.6488 33.9297 31.625 33.9297C32.6013 33.9297 34.4438 33.4553 35.805 30.2773C36.6558 28.2922 37.125 25.6797 37.125 22.9297C37.125 20.1797 36.6558 17.5672 35.805 15.582C34.4438 12.4041 32.6013 11.9297 31.625 11.9297ZM41.25 11.9297C40.8853 11.9297 40.5356 12.0746 40.2777 12.3324C40.0199 12.5903 39.875 12.94 39.875 13.3047V32.5547C39.875 32.9194 40.0199 33.2691 40.2777 33.527C40.5356 33.7848 40.8853 33.9297 41.25 33.9297C41.6147 33.9297 41.9644 33.7848 42.2223 33.527C42.4801 33.2691 42.625 32.9194 42.625 32.5547V13.3047C42.625 12.94 42.4801 12.5903 42.2223 12.3324C41.9644 12.0746 41.6147 11.9297 41.25 11.9297Z" fill="#2E2E2E"/>
</g>
<defs>
<clipPath id="clip0_478_1290">
<rect width="44" height="44" fill="white" transform="translate(0 0.929688)"/>
</clipPath>
</defs>
</svg>
