<svg width="55" height="55" viewBox="0 0 55 55" fill="none" xmlns="http://www.w3.org/2000/svg">
<g id="Plant">
<path id="Vector" d="M52.4341 8.42498C52.41 8.01215 52.2351 7.62254 51.9427 7.33012C51.6503 7.03771 51.2607 6.86284 50.8478 6.83873C39.9297 6.20592 31.1631 9.52608 27.3958 15.7445C24.9067 19.8557 24.9109 24.8486 27.362 29.6115C25.9669 31.2724 24.9473 33.2152 24.3731 35.3069L20.9411 31.8623C22.5906 28.4176 22.5274 24.8275 20.7302 21.8448C17.9458 17.2485 11.5185 14.7848 3.53876 15.253C3.12592 15.2771 2.73631 15.452 2.44389 15.7444C2.15148 16.0368 1.97662 16.4264 1.95251 16.8393C1.48212 24.819 3.94798 31.2463 8.5443 34.0307C10.0611 34.9574 11.804 35.4479 13.5815 35.4482C15.3067 35.4269 17.0052 35.0182 18.5512 34.2522L23.8246 39.5256V45.5732C23.8246 46.0207 24.0024 46.45 24.3189 46.7664C24.6353 47.0829 25.0646 47.2607 25.5121 47.2607C25.9597 47.2607 26.3889 47.0829 26.7054 46.7664C27.0218 46.45 27.1996 46.0207 27.1996 45.5732V39.3526C27.1921 36.668 28.1057 34.0621 29.7878 31.9698C31.9583 33.1041 34.3654 33.7111 36.8141 33.7417C39.1817 33.7493 41.5052 33.1026 43.5283 31.8728C49.7467 28.1097 53.0753 19.3431 52.4341 8.42498ZM10.2845 31.1451C7.04876 29.1855 5.21782 24.5469 5.26212 18.5732C11.2359 18.5226 15.8744 20.3598 17.834 23.5956C18.857 25.2831 19.0237 27.2512 18.3529 29.2783L13.2039 24.1293C12.8849 23.8262 12.46 23.6597 12.02 23.6653C11.58 23.671 11.1595 23.8483 10.8484 24.1594C10.5372 24.4706 10.3599 24.891 10.3543 25.3311C10.3486 25.7711 10.5151 26.1959 10.8182 26.515L15.9672 31.664C13.9401 32.3347 11.9741 32.1681 10.2845 31.1451ZM41.7796 28.9893C38.9531 30.7 35.6308 30.8308 32.2558 29.4112L43.581 18.0838C43.8841 17.7648 44.0506 17.3399 44.045 16.8999C44.0393 16.4599 43.862 16.0394 43.5509 15.7283C43.2397 15.4171 42.8193 15.2398 42.3792 15.2341C41.9392 15.2285 41.5144 15.395 41.1953 15.6981L29.868 27.0107C28.442 23.6357 28.5707 20.3113 30.2899 17.4869C33.2303 12.6353 40.2039 9.93108 49.1329 10.1399C49.3354 19.0668 46.6354 26.0488 41.7796 28.9893Z" fill="#3A9C5B"/>
</g>
</svg>
