<svg width="309" height="33" viewBox="0 0 309 33" fill="none" xmlns="http://www.w3.org/2000/svg">
<path fill-rule="evenodd" clip-rule="evenodd" d="M199.675 4.20185L196.49 0.954102L186.933 10.6973L190.118 13.9451L196.489 7.44975L202.861 13.9453L206.046 10.6975L199.675 4.202L199.675 4.20185Z" fill="#00FF84"/>
<path fill-rule="evenodd" clip-rule="evenodd" d="M33.6481 32.0597H27.8293V0.441406H33.6481V32.0597ZM5.95888 5.27226V14.6906H12.9746C16.2581 14.6906 17.7128 12.6298 17.7128 10.0026C17.7128 7.29066 16.2581 5.27226 12.9746 5.27226H5.95888ZM13.224 0.441608C20.2066 0.441608 23.6979 4.87533 23.6979 10.0026C23.6979 14.4943 20.7054 19.4788 13.224 19.4788H5.95888V32.0597H0.140015V0.441608H13.224ZM37.9009 20.2373C37.9009 27.568 42.556 32.441 48.3749 32.441C52.0325 32.441 54.651 30.6613 56.0225 28.6274V32.0597H61.883V8.58436H56.0225V11.9319C54.651 9.98271 52.1156 8.20299 48.4165 8.20299C42.556 8.20299 37.9009 12.9065 37.9009 20.2373ZM56.0225 20.322C56.0225 24.7713 53.1131 27.229 49.9127 27.229C46.7955 27.229 43.8445 24.6865 43.8445 20.2373C43.8445 15.788 46.7955 13.415 49.9127 13.415C53.1131 13.415 56.0225 15.8727 56.0225 20.322ZM89.5116 32.0597H83.6927V19.0931C83.6927 15.3218 81.6561 13.2879 78.5804 13.2879C75.4216 13.2879 73.385 15.3218 73.385 19.0931V32.0597H67.5661V8.58436H73.385V11.5082C74.8813 9.5166 77.3751 8.24537 80.3261 8.24537C85.6877 8.24537 89.5116 11.8048 89.5116 18.288V32.0597ZM93.5487 20.322C93.5487 27.6951 98.2869 32.441 104.937 32.441C110.673 32.441 114.939 29.1358 116.185 24.1357H109.909C109.203 26.2544 107.306 27.3561 104.896 27.3561C101.654 27.3561 99.4923 24.8984 99.4923 20.322C99.4923 15.7456 101.654 13.2455 104.896 13.2455C107.306 13.2455 109.244 14.5167 109.909 16.5083H116.185C114.939 11.2539 110.673 8.20299 104.937 8.20299C98.2869 8.20299 93.5487 12.9489 93.5487 20.322ZM123.865 32.0597H118.046V0.441406H123.865V18.5423L131.596 8.58436H139.16L129.019 20.3644L139.243 32.0597H131.679L123.865 22.0593V32.0597ZM152.211 13.076C155.203 13.076 157.614 15.0252 157.697 18.1185H146.766C147.223 14.8981 149.426 13.076 152.211 13.076ZM163.542 24.6865H157.266C156.518 26.2544 154.746 27.5256 152.252 27.5256C149.343 27.5256 147.015 25.5764 146.724 22.1017H163.557C163.682 21.339 163.724 20.5762 163.724 19.8135C163.724 12.8218 159.027 8.20299 152.377 8.20299C145.56 8.20299 140.822 12.9065 140.822 20.322C140.822 27.6951 145.685 32.441 152.377 32.441C158.071 32.441 162.295 29.0087 163.542 24.6865ZM179.318 14.4744C175.868 14.4744 173.79 15.8303 173.79 20.3644V32.0597H167.971V8.58436H173.79V12.2285C175.244 9.81322 177.655 8.24537 180.856 8.24537V14.4744H179.318Z" fill="black"/>
<path d="M230.396 2.5673H220.254V32.1445H230.396C239.664 32.1445 245.691 26.3392 245.691 17.3983C245.691 8.41493 239.664 2.5673 230.396 2.5673ZM226.073 27.1019V7.56745H230.188C236.298 7.56745 239.747 11.254 239.747 17.3983C239.747 23.5425 236.298 27.1019 230.188 27.1019H226.073Z" fill="black"/>
<path d="M269.748 32.1445H275.899L265.467 2.52492H258.692L248.259 32.1445H254.369L256.281 26.5087H267.836L269.748 32.1445ZM266.256 21.7628H257.86L262.058 9.38954L266.256 21.7628Z" fill="black"/>
<path d="M308.103 17.2711C308.103 8.41493 301.536 2.14355 293.265 2.14355C285.077 2.14355 278.385 8.41493 278.385 17.2711C278.385 26.1697 285.077 32.4411 293.265 32.4411C301.495 32.4411 308.103 26.1697 308.103 17.2711ZM284.37 17.2711C284.37 11.254 287.986 7.4827 293.265 7.4827C298.502 7.4827 302.118 11.254 302.118 17.2711C302.118 23.2883 298.502 27.1443 293.265 27.1443C287.986 27.1443 284.37 23.2883 284.37 17.2711Z" fill="black"/>
</svg>
