<svg width="65" height="65" viewBox="0 0 65 65" fill="none" xmlns="http://www.w3.org/2000/svg">
<g id="RainbowCloud">
<path id="Vector" d="M50.042 28.1338C47.6345 28.1398 45.2841 28.867 43.294 30.2217C41.3039 31.5764 39.7654 33.4963 38.877 35.7338C38.5996 35.7038 38.3209 35.6888 38.042 35.6888C33.6295 35.6888 30.042 39.3788 30.042 43.9113C30.042 48.4438 33.6295 52.1338 38.042 52.1338H50.042C53.2246 52.1338 56.2768 50.8696 58.5272 48.6191C60.7777 46.3687 62.042 43.3164 62.042 40.1338C62.042 36.9512 60.7777 33.899 58.5272 31.6486C56.2768 29.3981 53.2246 28.1338 50.042 28.1338ZM50.042 48.1338H38.042C35.837 48.1338 34.042 46.2388 34.042 43.9113C34.042 41.5838 35.837 39.6888 38.042 39.6888C38.5377 39.6874 39.0289 39.7843 39.487 39.9738C39.7593 40.0853 40.053 40.1353 40.3469 40.1203C40.6408 40.1052 40.9278 40.0255 41.1873 39.8867C41.4469 39.748 41.6726 39.5537 41.8484 39.3177C42.0243 39.0817 42.1458 38.8098 42.2045 38.5213C42.5094 37.0393 43.2285 35.6741 44.2781 34.5843C45.3277 33.4944 46.6649 32.7246 48.1345 32.3642C49.604 32.0037 51.1456 32.0674 52.5804 32.5478C54.0152 33.0283 55.2844 33.9058 56.2405 35.0785C57.1967 36.2512 57.8007 37.671 57.9824 39.1732C58.1641 40.6753 57.916 42.1982 57.2671 43.5651C56.6181 44.9319 55.5948 46.0867 54.3159 46.8954C53.0371 47.7041 51.5551 48.1335 50.042 48.1338ZM6.04196 40.1338V44.1338C6.04196 44.6643 5.83125 45.173 5.45618 45.5481C5.0811 45.9231 4.57239 46.1338 4.04196 46.1338C3.51153 46.1338 3.00282 45.9231 2.62775 45.5481C2.25268 45.173 2.04196 44.6643 2.04196 44.1338V40.1338C2.04215 35.0227 3.5488 30.0249 6.3736 25.7653C9.1984 21.5057 13.216 18.1731 17.9243 16.1841C22.6326 14.1952 27.8227 13.6381 32.8459 14.5824C37.8691 15.5268 42.5025 17.9308 46.167 21.4938C46.5341 21.8663 46.7408 22.3679 46.7426 22.8909C46.7444 23.4139 46.5413 23.9169 46.1767 24.2919C45.8121 24.667 45.3151 24.8842 44.7922 24.8972C44.2694 24.9102 43.7622 24.7178 43.3795 24.3613C40.2788 21.3461 36.3581 19.3117 32.1075 18.5124C27.857 17.7132 23.4651 18.1845 19.481 19.8675C15.4968 21.5506 12.0972 24.3706 9.70691 27.9751C7.31666 31.5797 6.0419 35.8088 6.04196 40.1338ZM14.042 40.1338V44.1338C14.042 44.6643 13.8312 45.173 13.4562 45.5481C13.0811 45.9231 12.5724 46.1338 12.042 46.1338C11.5115 46.1338 11.0028 45.9231 10.6277 45.5481C10.2527 45.173 10.042 44.6643 10.042 44.1338V40.1338C10.044 36.8079 10.9676 33.5475 12.7102 30.7145C14.4527 27.8815 16.9462 25.5868 19.9137 24.0849C22.8813 22.583 26.207 21.9326 29.5217 22.2061C32.8364 22.4795 36.0106 23.666 38.692 25.6338C38.9111 25.7863 39.0974 25.9812 39.24 26.2068C39.3826 26.4325 39.4786 26.6844 39.5224 26.9477C39.5661 27.2111 39.5567 27.4805 39.4946 27.7401C39.4326 27.9998 39.3192 28.2443 39.1612 28.4595C39.0031 28.6746 38.8036 28.8559 38.5744 28.9927C38.3451 29.1295 38.0909 29.2191 37.8265 29.256C37.5621 29.293 37.293 29.2767 37.0351 29.2081C36.7771 29.1394 36.5355 29.0198 36.3245 28.8563C34.239 27.326 31.7703 26.4034 29.1923 26.1909C26.6144 25.9783 24.0279 26.4841 21.7199 27.6522C19.412 28.8203 17.4728 30.605 16.1175 32.8082C14.7621 35.0115 14.0437 37.5471 14.042 40.1338ZM29.4345 34.2963C28.5527 34.086 27.6348 34.0781 26.7496 34.2733C25.8644 34.4686 25.035 34.8619 24.3236 35.4236C23.6122 35.9854 23.0373 36.7011 22.6421 37.5168C22.247 38.3326 22.0418 39.2274 22.042 40.1338V44.1338C22.042 44.6643 21.8312 45.173 21.4562 45.5481C21.0811 45.9231 20.5724 46.1338 20.042 46.1338C19.5115 46.1338 19.0028 45.9231 18.6277 45.5481C18.2527 45.173 18.042 44.6643 18.042 44.1338V40.1338C18.0416 38.6234 18.3835 37.1324 19.0418 35.7729C19.7002 34.4135 20.658 33.2208 21.8433 32.2845C23.0286 31.3482 24.4106 30.6926 25.8856 30.3669C27.3605 30.0411 28.8901 30.0538 30.3595 30.4038C30.615 30.4646 30.8562 30.5751 31.0691 30.729C31.2819 30.8829 31.4624 31.0773 31.6002 31.3009C31.738 31.5246 31.8304 31.7732 31.8721 32.0326C31.9137 32.292 31.9039 32.557 31.8432 32.8126C31.7825 33.0682 31.672 33.3093 31.5181 33.5222C31.3642 33.7351 31.1698 33.9156 30.9461 34.0533C30.7225 34.1911 30.4738 34.2835 30.2145 34.3252C29.9551 34.3669 29.69 34.3571 29.4345 34.2963Z" fill="#3191EA"/>
</g>
</svg>
