<svg width="44" height="45" viewBox="0 0 44 45" fill="none" xmlns="http://www.w3.org/2000/svg">
<g id="TelegramLogo" clip-path="url(#clip0_478_1301)">
<path id="Vector" d="M40.7138 5.43078C40.5007 5.24682 40.2415 5.12447 39.9641 5.07692C39.6867 5.02937 39.4015 5.05842 39.1394 5.16093L4.30719 18.7923C3.81354 18.9843 3.39561 19.3314 3.11631 19.7815C2.83702 20.2315 2.71148 20.7601 2.75859 21.2876C2.80571 21.8152 3.02292 22.3132 3.37755 22.7066C3.73217 23.1 4.205 23.3676 4.72485 23.4691L13.75 25.2411V35.3044C13.7482 35.8525 13.9111 36.3886 14.2176 36.843C14.524 37.2975 14.9599 37.6495 15.4688 37.8533C15.9768 38.0607 16.5355 38.1105 17.0723 37.9962C17.609 37.8819 18.0989 37.6087 18.4783 37.2122L22.8302 32.6987L29.7344 38.7419C30.2325 39.1837 30.875 39.4282 31.5408 39.4294C31.8326 39.4291 32.1225 39.3833 32.4002 39.2936C32.8538 39.1496 33.2619 38.8894 33.5836 38.5386C33.9054 38.1879 34.1296 37.759 34.2341 37.2947L41.2105 6.945C41.2729 6.67128 41.2596 6.38575 41.1721 6.119C41.0846 5.85225 40.9262 5.61434 40.7138 5.43078ZM31.5442 36.6794L17.3336 24.2184L37.7867 9.55922L31.5442 36.6794Z" fill="#2E2E2E"/>
</g>
<defs>
<clipPath id="clip0_478_1301">
<rect width="44" height="44" fill="white" transform="translate(0 0.929688)"/>
</clipPath>
</defs>
</svg>
