<svg width="44" height="45" viewBox="0 0 44 45" fill="none" xmlns="http://www.w3.org/2000/svg">
<g id="TwitterLogo" clip-path="url(#clip0_478_1287)">
<path id="Vector" d="M42.2228 14.2773L37.0838 19.4164C36.0456 31.4511 25.8964 40.8045 13.75 40.8045C11.2544 40.8045 9.19703 40.4092 7.63469 39.6289C6.37484 38.9981 5.85922 38.3226 5.73031 38.1301C5.61537 37.9577 5.54087 37.7616 5.51238 37.5564C5.48388 37.3512 5.50213 37.1422 5.56576 36.945C5.62939 36.7478 5.73676 36.5676 5.87984 36.4177C6.02292 36.2679 6.19801 36.1523 6.39203 36.0796C6.43672 36.0625 10.5583 34.4795 13.1759 31.4665C11.7243 30.273 10.457 28.8714 9.41531 27.3071C7.28406 24.1429 4.89844 18.6464 5.63406 10.4325C5.65738 10.1715 5.75479 9.92256 5.91483 9.71506C6.07486 9.50757 6.29085 9.35012 6.53737 9.26127C6.78388 9.17242 7.05065 9.15585 7.30627 9.21353C7.56188 9.27121 7.79569 9.40073 7.98016 9.58683C8.04031 9.64699 13.7002 15.2759 20.6198 17.1012V16.0545C20.6172 14.9569 20.8342 13.8698 21.2581 12.8574C21.682 11.8449 22.3041 10.9275 23.088 10.1592C23.8492 9.39902 24.755 8.79903 25.7519 8.39461C26.7487 7.99019 27.8165 7.78954 28.8922 7.80449C30.3352 7.81872 31.7499 8.20608 32.9989 8.9289C34.2479 9.65173 35.2886 10.6854 36.0198 11.9295H41.25C41.5221 11.9293 41.7882 12.0098 42.0145 12.1609C42.2408 12.3119 42.4172 12.5268 42.5214 12.7782C42.6255 13.0295 42.6527 13.3062 42.5996 13.573C42.5465 13.8399 42.4153 14.085 42.2228 14.2773Z" fill="#2E2E2E"/>
</g>
<defs>
<clipPath id="clip0_478_1287">
<rect width="44" height="44" fill="white" transform="translate(0 0.929688)"/>
</clipPath>
</defs>
</svg>
