<svg width="129" height="37" viewBox="0 0 129 37" fill="none" xmlns="http://www.w3.org/2000/svg">
<g id="Group 10">
<g id="Group 3">
<g id="Group 9">
<path id="Subtract" fill-rule="evenodd" clip-rule="evenodd" d="M4.25839 30.2781C6.05082 32.6221 8.10014 34.6238 10.345 36.2055H16.8133C13.6307 34.6143 10.7134 31.2991 9.65253 29.8404V21.0884C6.46997 17.9058 3.81783 10.7451 2.88959 7.5625V28.3452C3.32696 29.0124 3.78361 29.6572 4.25839 30.2781ZM3.8612 30.5818C5.53081 32.7652 7.42427 34.6613 9.49377 36.2055H7.0653C5.5691 35.1075 4.17115 33.8559 2.88959 32.4708V29.2421C3.20436 29.6998 3.52836 30.1465 3.8612 30.5818ZM2.88959 33.2006V36.2055H6.23105C5.05039 35.2958 3.93361 34.2908 2.88959 33.2006Z" fill="black"/>
<path id="Subtract_2" fill-rule="evenodd" clip-rule="evenodd" d="M41.7919 30.2781C39.9995 32.6221 37.9501 34.6238 35.7053 36.2055H29.237C32.4196 34.6143 35.3369 31.2991 36.3978 29.8404V21.0884C39.5803 17.9058 42.2325 10.7451 43.1607 7.5625V28.3452C42.7233 29.0124 42.2667 29.6572 41.7919 30.2781ZM42.1891 30.5818C40.5195 32.7652 38.626 34.6613 36.5565 36.2055H38.985C40.4812 35.1075 41.8791 33.8559 43.1607 32.4708V29.2421C42.8459 29.6998 42.5219 30.1465 42.1891 30.5818ZM43.1607 33.2006V36.2055H39.8192C40.9999 35.2958 42.1167 34.2908 43.1607 33.2006Z" fill="black"/>
</g>
<g id="Group 1">
<g id="Group 8">
<path id="Subtract_3" fill-rule="evenodd" clip-rule="evenodd" d="M15.9312 10.6914H17.6003V20.6135C17.6003 20.6135 20.7626 22.301 23.0251 22.3005C25.2881 22.3 28.45 20.6103 28.45 20.6103V10.6914H30.1191V20.6279L25.5257 25.5302C24.8136 25.0639 23.9526 24.7912 23.0252 24.7912C22.099 24.7912 21.239 25.0632 20.5276 25.5283L15.9312 20.6135L15.9312 10.6914ZM23.0252 25.2912C23.8234 25.2912 24.5618 25.516 25.1783 25.9009L24.8265 26.2763C24.2989 25.9002 23.683 25.6843 23.0252 25.6843C22.3682 25.6843 21.753 25.8997 21.2258 26.2749L20.8746 25.8993C21.4906 25.5154 22.2281 25.2912 23.0252 25.2912ZM24.4789 26.6473L23.0251 28.1988L21.5731 26.6462C22.0124 26.3496 22.5108 26.1843 23.0252 26.1843C23.5402 26.1843 24.0392 26.35 24.4789 26.6473Z" fill="black"/>
</g>
</g>
<path id="Subtract_4" fill-rule="evenodd" clip-rule="evenodd" d="M0.367798 0.676758L4.18279 1.60057C4.20851 1.99158 4.14227 2.35294 3.98723 2.67085C3.83521 2.98256 3.5977 3.25272 3.28313 3.47097C2.2365 2.59567 1.25014 1.66266 0.367798 0.676758ZM4.49324 4.4384C4.21981 4.22916 3.94916 4.01614 3.68197 3.79943C4.00452 3.55282 4.26148 3.24916 4.43664 2.89002C4.61357 2.52722 4.69449 2.13349 4.68842 1.72301L5.32602 1.87741C5.48394 2.59201 5.40496 3.24224 5.09832 3.76789C4.94784 4.02583 4.74426 4.25082 4.49324 4.4384ZM4.90643 4.7502C7.95569 7.01959 11.3006 8.82376 13.9997 10.0591L15.921 7.78241V10.8484C16.1294 10.9341 16.3171 11.0132 16.4917 11.0868L16.492 11.0869L16.4921 11.087C16.9001 11.2589 17.2369 11.401 17.6004 11.5264V7.99668C17.6004 6.15017 16.3364 4.54362 14.5418 4.10904L13.4759 3.85094C13.3194 4.70117 12.5743 5.34533 11.6788 5.34533C10.6696 5.34533 9.85148 4.5272 9.85148 3.51797C9.85148 3.33509 9.87835 3.15848 9.92835 2.99188L5.85901 2.00647C5.97518 2.7332 5.87665 3.42596 5.5302 4.01984C5.36629 4.30081 5.15579 4.54437 4.90643 4.7502Z" fill="black"/>
<path id="Subtract_5" fill-rule="evenodd" clip-rule="evenodd" d="M45.6826 0.676758L41.8676 1.60058C41.8419 1.99159 41.9081 2.35295 42.0631 2.67085C42.2152 2.98257 42.4527 3.25274 42.7673 3.47099C43.8139 2.59568 44.8003 1.66267 45.6826 0.676758ZM41.5571 4.43841C41.8306 4.22917 42.1012 4.01616 42.3684 3.79945C42.0458 3.55284 41.7889 3.24917 41.6137 2.89002C41.4368 2.52722 41.3559 2.1335 41.3619 1.72302L40.7243 1.87742C40.5664 2.59201 40.6454 3.24225 40.952 3.76789C41.1025 4.02584 41.3061 4.25083 41.5571 4.43841ZM41.1439 4.75022C38.0947 7.0196 34.7498 8.82376 32.0507 10.0591L30.1294 7.78241V10.8484C29.921 10.9341 29.7333 11.0132 29.5587 11.0868L29.5584 11.0869L29.5583 11.087C29.1503 11.2589 28.8135 11.401 28.45 11.5264V7.99668C28.45 6.15017 29.714 4.54362 31.5086 4.10904L32.5744 3.85095C32.731 4.70118 33.476 5.34533 34.3715 5.34533C35.3807 5.34533 36.1989 4.5272 36.1989 3.51797C36.1989 3.33509 36.172 3.15849 36.122 2.99189L40.1914 2.00648C40.0752 2.73321 40.1737 3.42597 40.5202 4.01984C40.6841 4.30082 40.8946 4.54439 41.1439 4.75022Z" fill="black"/>
</g>
<g id="WBF">
<path d="M74.715 36.1035C74.8105 35.2871 75.0969 33.9944 75.5106 32.3956L80.6026 12.0188C81.0163 10.318 81.4618 8.71911 81.7801 7.80062H74.5559C74.524 8.99125 74.3967 9.97777 74.0785 11.5426L72.0735 21.6799C71.9462 22.2242 71.7235 23.8571 71.628 24.6055C71.437 26.0342 71.437 26.0342 71.3734 26.6806C70.9597 23.9251 70.7369 22.8025 70.4823 21.714L67.9045 11.2364C67.4908 9.63759 67.2998 8.68509 67.1725 7.80062H61.5077C61.3804 8.75313 61.1895 9.80768 60.8076 11.3385L58.2616 21.8841C58.0707 22.5984 57.8479 23.8231 57.3705 26.6806C56.9886 23.9932 56.7658 22.3943 56.6704 21.8841L54.6336 11.5426C54.379 10.1138 54.2199 9.02527 54.188 7.80062H46.932C47.2503 8.71911 47.6958 10.2839 48.1413 12.0188L53.2333 32.4296C53.7107 34.4027 53.8698 35.117 54.0289 36.1035H60.362C60.4575 35.1851 60.6485 34.1985 61.0622 32.4976L63.4172 22.4624C63.7991 20.8635 64.181 18.7204 64.372 17.3256C64.6902 19.5708 64.9448 21.1357 65.263 22.4624L67.6817 32.4636C68 33.8243 68.2227 35.015 68.35 36.1035H74.715Z" fill="black"/>
<path d="M97.3854 36.1035C102.923 36.1035 106.169 33.212 106.169 28.3134C106.169 26.0683 105.469 24.2313 104.1 22.9386C103.177 22.0882 102.35 21.6799 100.791 21.3057C102.095 20.7955 102.668 20.4553 103.368 19.809C104.578 18.6523 105.214 17.0195 105.214 14.9444C105.214 10.454 102.191 7.80062 97.0353 7.80062H88.6972C86.0876 7.80062 85.6421 7.80062 84.019 7.69857C84.2099 9.33143 84.2736 10.7942 84.2736 12.5972V31.205C84.2736 33.5862 84.2099 34.7428 84.019 36.2056C85.3875 36.1376 86.3104 36.1035 88.729 36.1035H97.3854ZM90.5112 18.7204V13.3796H96.0487C97.8627 13.3796 98.8493 14.3321 98.8493 15.9989C98.8493 17.6658 97.7991 18.7204 96.1124 18.7204H90.5112ZM90.5112 24.1632H96.3352C98.3719 24.1632 99.5813 25.3199 99.5813 27.2929C99.5813 29.3 98.3719 30.4906 96.367 30.4906H90.5112V24.1632Z" fill="black"/>
<path d="M115.967 25.1838H121.95C124.369 25.1838 125.642 25.2518 127.042 25.4219V19.1286C125.642 19.2987 124.432 19.3667 121.95 19.3667H115.967V13.7878H123.287C125.96 13.7878 127.201 13.8558 128.601 14.0259V7.5625C127.106 7.76661 126.055 7.80062 123.255 7.80062H114.058C111.607 7.80062 110.716 7.76661 109.411 7.69857C109.602 9.29741 109.666 10.42 109.666 12.6652V30.2865C109.666 33.246 109.602 34.6068 109.379 36.1035H116.222C115.999 34.6068 115.967 33.3821 115.967 30.1844V25.1838Z" fill="black"/>
</g>
</g>
</svg>
