<svg width="540" height="57" viewBox="0 0 540 57" fill="none" xmlns="http://www.w3.org/2000/svg">
<path fill-rule="evenodd" clip-rule="evenodd" d="M349.322 6.8779L343.747 1.19434L327.023 18.245L332.597 23.9286L343.747 12.5617L354.896 23.9288L360.471 18.2453L349.322 6.87814L349.322 6.8779Z" fill="#00FF84"/>
<path fill-rule="evenodd" clip-rule="evenodd" d="M58.7745 55.6298H48.5915V0.297852H58.7745V55.6298ZM10.3183 8.75185V25.2339H22.5958C28.3419 25.2339 30.8877 21.6276 30.8877 17.03C30.8877 12.2841 28.3419 8.75185 22.5958 8.75185H10.3183ZM23.0322 0.298205C35.2518 0.298205 41.3616 8.05723 41.3616 17.03C41.3616 24.8904 36.1246 33.6134 23.0322 33.6134H10.3183V55.6298H0.135254V0.298205H23.0322ZM66.2168 34.9406C66.2168 47.7694 74.3633 56.2972 84.5463 56.2972C90.947 56.2972 95.5294 53.1827 97.9297 49.6233V55.6298H108.185V14.548H97.9297V20.4063C95.5294 16.9951 91.0925 13.8806 84.619 13.8806C74.3633 13.8806 66.2168 22.1118 66.2168 34.9406ZM97.9297 35.0889C97.9297 42.8751 92.8382 47.1761 87.2375 47.1761C81.7823 47.1761 76.6181 42.7268 76.6181 34.9406C76.6181 27.1543 81.7823 23.0017 87.2375 23.0017C92.8382 23.0017 97.9297 27.3026 97.9297 35.0889ZM156.535 55.6298H146.352V32.9384C146.352 26.3386 142.788 22.7792 137.406 22.7792C131.878 22.7792 128.314 26.3386 128.314 32.9384V55.6298H118.131V14.548H128.314V19.6647C130.932 16.1794 135.297 13.9548 140.461 13.9548C149.844 13.9548 156.535 20.1838 156.535 31.5295V55.6298ZM163.6 35.0889C163.6 47.9918 171.892 56.2972 183.53 56.2972C193.568 56.2972 201.033 50.5131 203.215 41.7628H192.232C190.995 45.4706 187.676 47.3986 183.457 47.3986C177.784 47.3986 174.002 43.0976 174.002 35.0889C174.002 27.0802 177.784 22.7051 183.457 22.7051C187.676 22.7051 191.068 24.9297 192.232 28.415H203.215C201.033 19.2198 193.568 13.8806 183.53 13.8806C171.892 13.8806 163.6 22.186 163.6 35.0889ZM216.654 55.6298H206.471V0.297852H216.654V31.9744L230.183 14.548H243.421L225.673 35.163L243.566 55.6298H230.328L216.654 38.1292V55.6298ZM266.259 22.4084C271.496 22.4084 275.714 25.8195 275.86 31.2328H256.73C257.53 25.5971 261.385 22.4084 266.259 22.4084ZM286.089 42.7268H275.106C273.797 45.4706 270.696 47.6952 266.331 47.6952C261.24 47.6952 257.167 44.2841 256.658 38.2034H286.116C286.334 36.8686 286.407 35.5338 286.407 34.199C286.407 21.9635 278.187 13.8806 266.55 13.8806C254.621 13.8806 246.329 22.1118 246.329 35.0889C246.329 47.9918 254.839 56.2972 266.55 56.2972C276.514 56.2972 283.907 50.2906 286.089 42.7268ZM313.696 24.8555C307.659 24.8555 304.022 27.2285 304.022 35.163V55.6298H293.839V14.548H304.022V20.9253C306.568 16.6985 310.787 13.9548 316.387 13.9548V24.8555H313.696Z" fill="black"/>
<path d="M403.082 4.01791H385.335V55.778H403.082C419.303 55.778 429.849 45.6188 429.849 29.9721C429.849 14.2513 419.303 4.01791 403.082 4.01791ZM395.518 46.9535V12.7682H402.719C413.411 12.7682 419.448 19.2196 419.448 29.9721C419.448 40.7245 413.411 46.9535 402.719 46.9535H395.518Z" fill="black"/>
<path d="M471.949 55.778H482.713L464.457 3.94376H452.601L434.344 55.778H445.036L448.382 45.9154H468.603L471.949 55.778ZM465.839 37.61H451.146L458.492 15.9568L465.839 37.61Z" fill="black"/>
<path d="M539.071 29.7496C539.071 14.2513 527.578 3.27637 513.104 3.27637C498.775 3.27637 487.065 14.2513 487.065 29.7496C487.065 45.3221 498.775 56.297 513.104 56.297C527.506 56.297 539.071 45.3221 539.071 29.7496ZM497.538 29.7496C497.538 19.2196 503.867 12.6199 513.104 12.6199C522.269 12.6199 528.597 19.2196 528.597 29.7496C528.597 40.2796 522.269 47.0277 513.104 47.0277C503.867 47.0277 497.538 40.2796 497.538 29.7496Z" fill="black"/>
</svg>
