<svg width="203" height="57" viewBox="0 0 203 57" fill="none" xmlns="http://www.w3.org/2000/svg">
<path fill-rule="evenodd" clip-rule="evenodd" d="M6.78354 47.0416C9.57232 50.6886 12.756 53.813 16.2421 56.2965H26.6865C21.6703 53.7884 17.0721 48.5632 15.4 46.2641V32.4694C10.3838 27.4532 6.20358 16.1666 4.74051 11.1504V44.1694C5.39503 45.159 6.07655 46.117 6.78354 47.0416ZM6.38635 47.3453C9.05236 50.8318 12.0802 53.8506 15.391 56.2965H11.0794C8.81389 54.6186 6.6925 52.7175 4.74051 50.6212V45.0662C5.27243 45.8463 5.82129 46.6064 6.38635 47.3453ZM4.74051 51.351V56.2965H10.2452C8.29522 54.807 6.45495 53.1524 4.74051 51.351Z" fill="black"/>
<path fill-rule="evenodd" clip-rule="evenodd" d="M66.1714 47.0416C63.3826 50.6886 60.199 53.813 56.7128 56.2965H46.2684C51.2846 53.7884 55.8828 48.5632 57.5549 46.2641V32.4694C62.5712 27.4532 66.7514 16.1666 68.2144 11.1504V44.1694C67.5599 45.159 66.8784 46.117 66.1714 47.0416ZM66.5686 47.3453C63.9026 50.8318 60.8747 53.8506 57.5639 56.2965H61.8756C64.141 54.6186 66.2624 52.7175 68.2144 50.6212V45.0662C67.6825 45.8463 67.1336 46.6064 66.5686 47.3453ZM68.2144 51.351V56.2965H62.7097C64.6597 54.807 66.5 53.1524 68.2144 51.351Z" fill="black"/>
<path fill-rule="evenodd" clip-rule="evenodd" d="M25.2961 16.0811H27.927V31.7199C27.927 31.7199 32.9113 34.3797 36.4774 34.379C40.0442 34.3782 45.0278 31.7148 45.0278 31.7148V16.0811H47.6587V31.7426L40.4189 39.4692C39.2966 38.7342 37.9394 38.3044 36.4775 38.3044C35.0175 38.3044 33.6621 38.733 32.5407 39.4662L25.2961 31.7199L25.2961 16.0811ZM36.4775 38.8044C37.8103 38.8044 39.0448 39.1862 40.0717 39.8396L39.3164 40.6457C38.4849 40.053 37.5142 39.7127 36.4775 39.7127C35.442 39.7127 34.4725 40.0521 33.6417 40.6434L32.8874 39.8369C33.9135 39.1852 35.1465 38.8044 36.4775 38.8044ZM38.9691 41.0164L36.4774 43.6756L33.9887 41.0144C34.7321 40.5018 35.5851 40.2127 36.4775 40.2127C37.371 40.2127 38.225 40.5026 38.9691 41.0164Z" fill="black"/>
<path fill-rule="evenodd" clip-rule="evenodd" d="M0.765728 0.297852L7.0714 1.82479C7.09983 2.45126 6.98709 3.03968 6.72948 3.56791C6.47596 4.08775 6.0901 4.53292 5.59072 4.89321C3.85556 3.45849 2.2209 1.92381 0.765728 0.297852ZM7.50584 6.4078C6.99408 6.02018 6.48816 5.62422 5.98989 5.22009C6.49806 4.83146 6.9029 4.35297 7.17888 3.78708C7.45788 3.21502 7.58541 2.59418 7.57572 1.94691L8.8905 2.26529C9.11294 3.3957 8.97797 4.44508 8.47063 5.31474C8.22509 5.73564 7.89996 6.10134 7.50584 6.4078ZM7.9191 6.71806C12.7253 10.2951 17.9975 13.1388 22.2518 15.086L25.2802 11.4975V16.33C25.6088 16.4651 25.9047 16.5898 26.18 16.7059L26.1803 16.7061C26.8233 16.9771 27.3542 17.2009 27.9271 17.3986V10.0221C27.9271 8.17556 26.6632 6.569 24.8685 6.13443L21.4262 5.30086C21.1794 6.64084 20.0052 7.65599 18.5938 7.65599C17.0031 7.65599 15.7136 6.36648 15.7136 4.77578C15.7136 4.48762 15.7559 4.20935 15.8346 3.94684L9.42084 2.39372C9.60384 3.539 9.44851 4.63075 8.90252 5.56668C8.64411 6.00964 8.31224 6.39361 7.9191 6.71806Z" fill="black"/>
<path fill-rule="evenodd" clip-rule="evenodd" d="M72.1893 0.297852L65.8836 1.82481C65.8551 2.45127 65.9679 3.03969 66.2255 3.56791C66.479 4.08776 66.8649 4.53295 67.3643 4.89324C69.0994 3.45851 70.7341 1.92382 72.1893 0.297852ZM65.4492 6.40783C65.9609 6.02022 66.4668 5.62425 66.9651 5.22012C66.4569 4.83148 66.0521 4.35298 65.7761 3.78708C65.4971 3.21502 65.3695 2.59419 65.3792 1.94693L64.0645 2.26531C63.842 3.39571 63.977 4.44508 64.4843 5.31474C64.7299 5.73566 65.055 6.10136 65.4492 6.40783ZM65.0359 6.7181C60.2297 10.2951 54.9575 13.1388 50.7032 15.086L47.6748 11.4975V16.33C47.3463 16.4651 47.0503 16.5898 46.775 16.7059L46.7747 16.7061C46.1317 16.9771 45.6008 17.2009 45.0279 17.3986V10.0221C45.0279 8.17556 46.2919 6.569 48.0865 6.13443L51.5287 5.30088C51.7756 6.64084 52.9498 7.65599 54.3612 7.65599C55.9519 7.65599 57.2414 6.36648 57.2414 4.77578C57.2414 4.48763 57.1991 4.20936 57.1203 3.94685L63.5341 2.39373C63.3511 3.53901 63.5064 4.63076 64.0524 5.56668C64.3109 6.00966 64.6427 6.39363 65.0359 6.7181Z" fill="black"/>
<path d="M117.949 56.1367C118.1 54.8499 118.551 52.8124 119.203 50.2924L127.229 18.1753C127.881 15.4944 128.583 12.9744 129.085 11.5267H117.698C117.648 13.4033 117.447 14.9582 116.946 17.4247L113.786 33.4028C113.585 34.2607 113.234 36.8343 113.083 38.0139C112.782 40.2659 112.782 40.2659 112.682 41.2846C112.03 36.9416 111.679 35.1722 111.278 33.4564L107.215 16.9421C106.563 14.4221 106.262 12.9208 106.061 11.5267H97.1322C96.9316 13.028 96.6306 14.6901 96.0287 17.1029L92.0158 33.7245C91.7149 34.8505 91.3637 36.7807 90.6113 41.2846C90.0094 37.0488 89.6583 34.5287 89.5078 33.7245L86.2975 17.4247C85.8962 15.1727 85.6454 13.4569 85.5952 11.5267H74.1585C74.6601 12.9744 75.3624 15.4408 76.0646 18.1753L84.0904 50.346C84.8428 53.4558 85.0936 54.5818 85.3444 56.1367H95.3264C95.4769 54.6891 95.7779 53.1341 96.43 50.4532L100.142 34.636C100.744 32.1159 101.346 28.738 101.647 26.5397C102.148 30.0785 102.55 32.5449 103.051 34.636L106.863 50.3996C107.365 52.5443 107.716 54.421 107.917 56.1367H117.949Z" fill="black"/>
<path d="M153.681 56.1367C162.409 56.1367 167.526 51.5792 167.526 43.8583C167.526 40.3195 166.422 37.4241 164.265 35.3866C162.811 34.0462 161.506 33.4028 159.049 32.813C161.105 32.0087 162.008 31.4725 163.112 30.4538C165.018 28.6308 166.021 26.0571 166.021 22.7864C166.021 15.7089 161.256 11.5267 153.13 11.5267H139.987C135.874 11.5267 135.172 11.5267 132.614 11.3658C132.915 13.9395 133.015 16.2451 133.015 19.0868V48.4158C133.015 52.169 132.915 53.992 132.614 56.2976C134.771 56.1904 136.225 56.1367 140.038 56.1367H153.681ZM142.847 28.738V20.32H151.575C154.434 20.32 155.989 21.8213 155.989 24.4486C155.989 27.0759 154.333 28.738 151.675 28.738H142.847ZM142.847 37.3169H152.026C155.236 37.3169 157.142 39.1399 157.142 42.2497C157.142 45.4132 155.236 47.2898 152.076 47.2898H142.847V37.3169Z" fill="black"/>
<path d="M182.969 38.9254H192.399C196.212 38.9254 198.218 39.0326 200.425 39.3007V29.3814C198.218 29.6495 196.312 29.7568 192.399 29.7568H182.969V20.9634H194.506C198.72 20.9634 200.676 21.0707 202.883 21.3388V11.1514C200.525 11.4731 198.87 11.5267 194.456 11.5267H179.959C176.097 11.5267 174.692 11.4731 172.636 11.3658C172.937 13.8859 173.037 15.6553 173.037 19.194V46.9681C173.037 51.6328 172.937 53.7776 172.586 56.1367H183.37C183.019 53.7776 182.969 51.8473 182.969 46.8072V38.9254Z" fill="black"/>
</svg>
